<mxfile host="app.diagrams.net" modified="2023-06-22T11:37:57.792Z" agent="Mozilla/5.0 (Windows NT 10.0; Win64; x64) AppleWebKit/537.36 (KHTML, like Gecko) Chrome/109.0.0.0 Safari/537.36" etag="wJvDtRT2Qiow0Tk2o41s" version="21.5.0" type="device" pages="6">
  <diagram id="EInhI8qqsZpDA_eLQSHA" name="FINAL">
    <mxGraphModel dx="1347" dy="1976" grid="1" gridSize="10" guides="1" tooltips="1" connect="1" arrows="1" fold="1" page="1" pageScale="1" pageWidth="827" pageHeight="1169" math="0" shadow="0">
      <root>
        <mxCell id="0" />
        <mxCell id="1" parent="0" />
        <mxCell id="c5qZVFnj32TkXawNKoMy-1" value="" style="rounded=0;whiteSpace=wrap;html=1;fontSize=18;fillColor=#d5e8d4;strokeColor=#82b366;" parent="1" vertex="1">
          <mxGeometry x="-390" y="-50" width="1190" height="790" as="geometry" />
        </mxCell>
        <mxCell id="c5qZVFnj32TkXawNKoMy-2" style="edgeStyle=orthogonalEdgeStyle;rounded=0;orthogonalLoop=1;jettySize=auto;html=1;exitX=1;exitY=0.335;exitDx=0;exitDy=0;exitPerimeter=0;fontSize=18;entryX=0;entryY=0.25;entryDx=0;entryDy=0;" parent="1" source="c5qZVFnj32TkXawNKoMy-3" edge="1">
          <mxGeometry relative="1" as="geometry">
            <Array as="points">
              <mxPoint x="265" y="100" />
            </Array>
            <mxPoint x="361" y="100" as="targetPoint" />
          </mxGeometry>
        </mxCell>
        <mxCell id="c5qZVFnj32TkXawNKoMy-3" value="FIFO" style="rounded=0;whiteSpace=wrap;html=1;fontSize=18;" parent="1" vertex="1">
          <mxGeometry x="145" y="75" width="120" height="67" as="geometry" />
        </mxCell>
        <mxCell id="c5qZVFnj32TkXawNKoMy-4" style="edgeStyle=orthogonalEdgeStyle;rounded=0;orthogonalLoop=1;jettySize=auto;html=1;exitX=1;exitY=0.5;exitDx=0;exitDy=0;entryX=-0.003;entryY=0.367;entryDx=0;entryDy=0;entryPerimeter=0;fontSize=18;" parent="1" source="c5qZVFnj32TkXawNKoMy-7" target="c5qZVFnj32TkXawNKoMy-11" edge="1">
          <mxGeometry relative="1" as="geometry">
            <Array as="points">
              <mxPoint x="552" y="195" />
              <mxPoint x="552" y="-5" />
              <mxPoint x="-90" y="-5" />
              <mxPoint x="-90" y="131" />
            </Array>
          </mxGeometry>
        </mxCell>
        <mxCell id="c5qZVFnj32TkXawNKoMy-5" style="edgeStyle=orthogonalEdgeStyle;rounded=0;orthogonalLoop=1;jettySize=auto;html=1;exitX=1.014;exitY=0.11;exitDx=0;exitDy=0;entryX=0.25;entryY=0;entryDx=0;entryDy=0;exitPerimeter=0;fontSize=18;" parent="1" source="c5qZVFnj32TkXawNKoMy-7" target="c5qZVFnj32TkXawNKoMy-3" edge="1">
          <mxGeometry relative="1" as="geometry">
            <mxPoint x="435" y="195.99999999999977" as="sourcePoint" />
            <mxPoint x="265" y="196" as="targetPoint" />
            <Array as="points">
              <mxPoint x="503" y="106" />
              <mxPoint x="522" y="106" />
              <mxPoint x="522" y="55" />
              <mxPoint x="175" y="55" />
            </Array>
          </mxGeometry>
        </mxCell>
        <mxCell id="c5qZVFnj32TkXawNKoMy-6" style="edgeStyle=orthogonalEdgeStyle;rounded=0;orthogonalLoop=1;jettySize=auto;html=1;fontSize=18;entryX=0.5;entryY=0;entryDx=0;entryDy=0;strokeWidth=2;" parent="1" source="c5qZVFnj32TkXawNKoMy-7" target="c5qZVFnj32TkXawNKoMy-46" edge="1">
          <mxGeometry relative="1" as="geometry">
            <mxPoint x="718" y="203.09000000000015" as="targetPoint" />
            <mxPoint x="575" y="204" as="sourcePoint" />
            <Array as="points">
              <mxPoint x="429" y="300" />
              <mxPoint x="429" y="300" />
            </Array>
          </mxGeometry>
        </mxCell>
        <mxCell id="c5qZVFnj32TkXawNKoMy-7" value="Scheduler" style="rounded=0;whiteSpace=wrap;html=1;fontSize=31;fillColor=#F0F0F0;strokeColor=#000000;" parent="1" vertex="1">
          <mxGeometry x="361" y="85" width="149" height="175" as="geometry" />
        </mxCell>
        <mxCell id="c5qZVFnj32TkXawNKoMy-8" style="edgeStyle=orthogonalEdgeStyle;rounded=0;orthogonalLoop=1;jettySize=auto;html=1;exitX=1;exitY=0.5;exitDx=0;exitDy=0;entryX=0.006;entryY=0.363;entryDx=0;entryDy=0;entryPerimeter=0;fontSize=18;" parent="1" target="c5qZVFnj32TkXawNKoMy-3" edge="1">
          <mxGeometry relative="1" as="geometry">
            <mxPoint x="151.99999999999955" y="100" as="sourcePoint" />
          </mxGeometry>
        </mxCell>
        <mxCell id="c5qZVFnj32TkXawNKoMy-9" style="edgeStyle=orthogonalEdgeStyle;rounded=0;orthogonalLoop=1;jettySize=auto;html=1;exitX=0.998;exitY=0.378;exitDx=0;exitDy=0;entryX=-0.006;entryY=0.811;entryDx=0;entryDy=0;entryPerimeter=0;exitPerimeter=0;fontSize=18;" parent="1" source="c5qZVFnj32TkXawNKoMy-11" target="c5qZVFnj32TkXawNKoMy-3" edge="1">
          <mxGeometry relative="1" as="geometry">
            <mxPoint x="152" y="128" as="sourcePoint" />
            <mxPoint x="252.00000000000023" y="115.5" as="targetPoint" />
            <Array as="points">
              <mxPoint x="152" y="129" />
              <mxPoint x="251" y="129" />
            </Array>
          </mxGeometry>
        </mxCell>
        <mxCell id="c5qZVFnj32TkXawNKoMy-10" style="edgeStyle=orthogonalEdgeStyle;rounded=0;orthogonalLoop=1;jettySize=auto;html=1;entryX=0;entryY=0.75;entryDx=0;entryDy=0;strokeWidth=5;fontSize=18;" parent="1" source="c5qZVFnj32TkXawNKoMy-22" target="c5qZVFnj32TkXawNKoMy-27" edge="1">
          <mxGeometry relative="1" as="geometry">
            <mxPoint x="657" y="135" as="sourcePoint" />
            <Array as="points">
              <mxPoint x="-374" y="440" />
            </Array>
          </mxGeometry>
        </mxCell>
        <mxCell id="c5qZVFnj32TkXawNKoMy-11" value="Arbiter" style="rounded=0;whiteSpace=wrap;html=1;fontSize=18;" parent="1" vertex="1">
          <mxGeometry x="-65" y="92" width="110" height="105" as="geometry" />
        </mxCell>
        <mxCell id="c5qZVFnj32TkXawNKoMy-12" value="DescAddr" style="text;html=1;align=center;verticalAlign=middle;resizable=0;points=[];autosize=1;strokeColor=none;fillColor=none;fontSize=18;" parent="1" vertex="1">
          <mxGeometry x="39" y="101" width="100" height="40" as="geometry" />
        </mxCell>
        <mxCell id="c5qZVFnj32TkXawNKoMy-13" value="enqueue" style="text;html=1;align=center;verticalAlign=middle;resizable=0;points=[];autosize=1;strokeColor=none;fillColor=none;fontSize=18;" parent="1" vertex="1">
          <mxGeometry x="39" y="67" width="90" height="40" as="geometry" />
        </mxCell>
        <mxCell id="c5qZVFnj32TkXawNKoMy-14" style="edgeStyle=orthogonalEdgeStyle;rounded=0;orthogonalLoop=1;jettySize=auto;html=1;startArrow=none;fontSize=18;entryX=0.002;entryY=0.801;entryDx=0;entryDy=0;entryPerimeter=0;" parent="1" source="c5qZVFnj32TkXawNKoMy-37" target="c5qZVFnj32TkXawNKoMy-31" edge="1">
          <mxGeometry relative="1" as="geometry">
            <mxPoint x="109.99999999999955" y="244" as="targetPoint" />
            <Array as="points">
              <mxPoint x="-160" y="302" />
              <mxPoint x="-160" y="176" />
            </Array>
            <mxPoint x="-70" y="246" as="sourcePoint" />
          </mxGeometry>
        </mxCell>
        <mxCell id="c5qZVFnj32TkXawNKoMy-15" style="edgeStyle=orthogonalEdgeStyle;rounded=0;orthogonalLoop=1;jettySize=auto;html=1;strokeWidth=5;fontSize=18;entryX=0;entryY=0.25;entryDx=0;entryDy=0;exitX=1;exitY=0.5;exitDx=0;exitDy=0;" parent="1" source="c5qZVFnj32TkXawNKoMy-37" target="c5qZVFnj32TkXawNKoMy-21" edge="1">
          <mxGeometry relative="1" as="geometry">
            <mxPoint x="-492.00000000000045" y="264.00000000000045" as="sourcePoint" />
            <mxPoint x="230" y="291.25" as="targetPoint" />
            <Array as="points">
              <mxPoint x="-480" y="303" />
            </Array>
          </mxGeometry>
        </mxCell>
        <mxCell id="c5qZVFnj32TkXawNKoMy-16" value="DescAddrPointer , Vald" style="text;html=1;align=center;verticalAlign=middle;resizable=0;points=[];autosize=1;strokeColor=none;fillColor=none;fontSize=18;" parent="1" vertex="1">
          <mxGeometry x="181" y="-39" width="210" height="40" as="geometry" />
        </mxCell>
        <mxCell id="c5qZVFnj32TkXawNKoMy-17" value="FIFO_Out" style="text;html=1;align=center;verticalAlign=middle;resizable=0;points=[];autosize=1;strokeColor=none;fillColor=none;fontSize=18;" parent="1" vertex="1">
          <mxGeometry x="261" y="93" width="100" height="40" as="geometry" />
        </mxCell>
        <mxCell id="c5qZVFnj32TkXawNKoMy-18" value="dequeue" style="text;html=1;align=center;verticalAlign=middle;resizable=0;points=[];autosize=1;strokeColor=none;fillColor=none;fontSize=18;" parent="1" vertex="1">
          <mxGeometry x="315" y="20" width="90" height="40" as="geometry" />
        </mxCell>
        <mxCell id="c5qZVFnj32TkXawNKoMy-19" style="edgeStyle=orthogonalEdgeStyle;rounded=0;orthogonalLoop=1;jettySize=auto;html=1;strokeWidth=5;fontSize=18;" parent="1" source="c5qZVFnj32TkXawNKoMy-21" target="c5qZVFnj32TkXawNKoMy-7" edge="1">
          <mxGeometry relative="1" as="geometry">
            <Array as="points">
              <mxPoint x="310" y="440" />
              <mxPoint x="310" y="240" />
            </Array>
            <mxPoint x="195" y="285.0769230769233" as="sourcePoint" />
          </mxGeometry>
        </mxCell>
        <mxCell id="c5qZVFnj32TkXawNKoMy-20" style="edgeStyle=orthogonalEdgeStyle;rounded=0;orthogonalLoop=1;jettySize=auto;html=1;strokeWidth=5;fontSize=18;entryX=0;entryY=0.5;entryDx=0;entryDy=0;" parent="1" source="c5qZVFnj32TkXawNKoMy-21" target="c5qZVFnj32TkXawNKoMy-37" edge="1">
          <mxGeometry relative="1" as="geometry">
            <Array as="points">
              <mxPoint x="230" y="280" />
              <mxPoint x="230" y="220" />
              <mxPoint x="-570" y="220" />
              <mxPoint x="-570" y="302" />
              <mxPoint x="-539" y="302" />
            </Array>
            <mxPoint x="-165" y="222.25" as="targetPoint" />
          </mxGeometry>
        </mxCell>
        <mxCell id="c5qZVFnj32TkXawNKoMy-21" value="&lt;font style=&quot;font-size: 31px;&quot;&gt;Desc&lt;br&gt;BRAM&lt;/font&gt;" style="rounded=0;whiteSpace=wrap;html=1;fontSize=31;fillColor=#F0F0F0;" parent="1" vertex="1">
          <mxGeometry x="35" y="248" width="160" height="220" as="geometry" />
        </mxCell>
        <mxCell id="c5qZVFnj32TkXawNKoMy-22" value="Data,Val from Sched" style="text;html=1;align=center;verticalAlign=middle;resizable=0;points=[];autosize=1;strokeColor=none;fillColor=none;fontSize=18;" parent="1" vertex="1">
          <mxGeometry x="-393" y="417" width="190" height="40" as="geometry" />
        </mxCell>
        <mxCell id="c5qZVFnj32TkXawNKoMy-23" value="Data_out1" style="text;html=1;align=center;verticalAlign=middle;resizable=0;points=[];autosize=1;strokeColor=none;fillColor=none;fontSize=18;" parent="1" vertex="1">
          <mxGeometry x="127" y="216" width="110" height="40" as="geometry" />
        </mxCell>
        <mxCell id="c5qZVFnj32TkXawNKoMy-24" value="Data_out2" style="text;html=1;align=center;verticalAlign=middle;resizable=0;points=[];autosize=1;strokeColor=none;fillColor=none;fontSize=18;" parent="1" vertex="1">
          <mxGeometry x="184" y="406" width="110" height="40" as="geometry" />
        </mxCell>
        <mxCell id="c5qZVFnj32TkXawNKoMy-25" value="Command" style="text;html=1;align=center;verticalAlign=middle;resizable=0;points=[];autosize=1;strokeColor=none;fillColor=none;fontSize=18;" parent="1" vertex="1">
          <mxGeometry x="420" y="315" width="110" height="40" as="geometry" />
        </mxCell>
        <mxCell id="c5qZVFnj32TkXawNKoMy-26" style="edgeStyle=orthogonalEdgeStyle;rounded=0;orthogonalLoop=1;jettySize=auto;html=1;exitX=1;exitY=0.5;exitDx=0;exitDy=0;entryX=0;entryY=0.75;entryDx=0;entryDy=0;fontSize=18;strokeWidth=5;" parent="1" source="c5qZVFnj32TkXawNKoMy-27" target="c5qZVFnj32TkXawNKoMy-21" edge="1">
          <mxGeometry relative="1" as="geometry" />
        </mxCell>
        <mxCell id="c5qZVFnj32TkXawNKoMy-27" value="Arbiter" style="rounded=0;whiteSpace=wrap;html=1;fontSize=31;fillColor=#F2F2F2;" parent="1" vertex="1">
          <mxGeometry x="-155" y="361" width="110" height="105" as="geometry" />
        </mxCell>
        <mxCell id="c5qZVFnj32TkXawNKoMy-28" value="Arbiter" style="rounded=0;whiteSpace=wrap;html=1;fontSize=18;" parent="1" vertex="1">
          <mxGeometry x="-65" y="92" width="110" height="105" as="geometry" />
        </mxCell>
        <mxCell id="c5qZVFnj32TkXawNKoMy-29" value="FIFO" style="rounded=0;whiteSpace=wrap;html=1;fontSize=18;" parent="1" vertex="1">
          <mxGeometry x="145" y="75" width="120" height="67" as="geometry" />
        </mxCell>
        <mxCell id="c5qZVFnj32TkXawNKoMy-30" style="edgeStyle=orthogonalEdgeStyle;rounded=0;orthogonalLoop=1;jettySize=auto;html=1;" parent="1" source="c5qZVFnj32TkXawNKoMy-31" target="c5qZVFnj32TkXawNKoMy-7" edge="1">
          <mxGeometry relative="1" as="geometry">
            <mxPoint x="468" y="175.00000000000045" as="targetPoint" />
            <Array as="points">
              <mxPoint x="210" y="170" />
              <mxPoint x="210" y="170" />
            </Array>
          </mxGeometry>
        </mxCell>
        <mxCell id="c5qZVFnj32TkXawNKoMy-31" value="Arbiter" style="rounded=0;whiteSpace=wrap;html=1;fontSize=31;fillColor=#F2F2F2;" parent="1" vertex="1">
          <mxGeometry x="-65" y="92" width="110" height="105" as="geometry" />
        </mxCell>
        <mxCell id="c5qZVFnj32TkXawNKoMy-32" value="FIFO" style="rounded=0;whiteSpace=wrap;html=1;fontSize=31;fillColor=#F2F2F2;" parent="1" vertex="1">
          <mxGeometry x="145" y="75" width="120" height="67" as="geometry" />
        </mxCell>
        <mxCell id="c5qZVFnj32TkXawNKoMy-33" style="edgeStyle=orthogonalEdgeStyle;rounded=0;orthogonalLoop=1;jettySize=auto;html=1;fontSize=31;strokeWidth=5;entryX=0.011;entryY=0.339;entryDx=0;entryDy=0;entryPerimeter=0;" parent="1" source="c5qZVFnj32TkXawNKoMy-34" target="c5qZVFnj32TkXawNKoMy-27" edge="1">
          <mxGeometry relative="1" as="geometry">
            <mxPoint x="306" y="665" as="targetPoint" />
            <Array as="points">
              <mxPoint x="-364" y="397" />
              <mxPoint x="-364" y="397" />
            </Array>
          </mxGeometry>
        </mxCell>
        <mxCell id="c5qZVFnj32TkXawNKoMy-34" value="&lt;font style=&quot;font-size: 17px;&quot;&gt;Data,Val from CHI-Conv&lt;/font&gt;" style="text;html=1;align=center;verticalAlign=middle;resizable=0;points=[];autosize=1;strokeColor=none;fillColor=none;fontSize=16;" parent="1" vertex="1">
          <mxGeometry x="-400" y="376" width="210" height="30" as="geometry" />
        </mxCell>
        <mxCell id="c5qZVFnj32TkXawNKoMy-35" style="edgeStyle=orthogonalEdgeStyle;rounded=0;orthogonalLoop=1;jettySize=auto;html=1;fontSize=31;strokeWidth=5;" parent="1" source="c5qZVFnj32TkXawNKoMy-7" target="c5qZVFnj32TkXawNKoMy-36" edge="1">
          <mxGeometry relative="1" as="geometry">
            <mxPoint x="511" y="238.74500000000026" as="sourcePoint" />
            <mxPoint x="571" y="239" as="targetPoint" />
            <Array as="points">
              <mxPoint x="530" y="240" />
              <mxPoint x="530" y="240" />
            </Array>
          </mxGeometry>
        </mxCell>
        <mxCell id="c5qZVFnj32TkXawNKoMy-36" value="Data from Sched for BRAM" style="text;html=1;align=center;verticalAlign=middle;resizable=0;points=[];autosize=1;strokeColor=none;fillColor=none;fontSize=18;" parent="1" vertex="1">
          <mxGeometry x="560" y="220" width="240" height="40" as="geometry" />
        </mxCell>
        <mxCell id="c5qZVFnj32TkXawNKoMy-37" value="&lt;font style=&quot;font-size: 31px;&quot;&gt;CPU&lt;br&gt;&lt;/font&gt;" style="ellipse;whiteSpace=wrap;html=1;aspect=fixed;fontSize=16;fillColor=#B3B3B3;" parent="1" vertex="1">
          <mxGeometry x="-525" y="244" width="118" height="118" as="geometry" />
        </mxCell>
        <mxCell id="c5qZVFnj32TkXawNKoMy-38" value="&lt;font style=&quot;font-size: 18px;&quot;&gt;Ready&lt;/font&gt;" style="text;html=1;align=center;verticalAlign=middle;resizable=0;points=[];autosize=1;strokeColor=none;fillColor=none;" parent="1" vertex="1">
          <mxGeometry x="165" y="141" width="80" height="40" as="geometry" />
        </mxCell>
        <mxCell id="c5qZVFnj32TkXawNKoMy-39" style="edgeStyle=orthogonalEdgeStyle;rounded=0;orthogonalLoop=1;jettySize=auto;html=1;fontSize=18;exitX=0.75;exitY=1;exitDx=0;exitDy=0;" parent="1" source="c5qZVFnj32TkXawNKoMy-27" target="c5qZVFnj32TkXawNKoMy-40" edge="1">
          <mxGeometry relative="1" as="geometry" />
        </mxCell>
        <mxCell id="c5qZVFnj32TkXawNKoMy-40" value="&lt;font style=&quot;font-size: 18px;&quot;&gt;ReadySched&lt;/font&gt;" style="text;html=1;align=center;verticalAlign=middle;resizable=0;points=[];autosize=1;strokeColor=none;fillColor=none;" parent="1" vertex="1">
          <mxGeometry x="-138" y="528" width="130" height="40" as="geometry" />
        </mxCell>
        <mxCell id="c5qZVFnj32TkXawNKoMy-41" style="edgeStyle=orthogonalEdgeStyle;rounded=0;orthogonalLoop=1;jettySize=auto;html=1;fontSize=18;" parent="1" source="c5qZVFnj32TkXawNKoMy-27" target="c5qZVFnj32TkXawNKoMy-42" edge="1">
          <mxGeometry relative="1" as="geometry">
            <Array as="points">
              <mxPoint x="-120" y="480" />
              <mxPoint x="-120" y="480" />
            </Array>
          </mxGeometry>
        </mxCell>
        <mxCell id="c5qZVFnj32TkXawNKoMy-42" value="&lt;font style=&quot;font-size: 18px;&quot;&gt;ReadyCHICon&lt;/font&gt;" style="text;html=1;align=center;verticalAlign=middle;resizable=0;points=[];autosize=1;strokeColor=none;fillColor=none;" parent="1" vertex="1">
          <mxGeometry x="-214" y="493" width="140" height="40" as="geometry" />
        </mxCell>
        <mxCell id="c5qZVFnj32TkXawNKoMy-43" style="edgeStyle=orthogonalEdgeStyle;rounded=0;orthogonalLoop=1;jettySize=auto;html=1;fontSize=17;strokeWidth=5;" parent="1" source="c5qZVFnj32TkXawNKoMy-46" target="c5qZVFnj32TkXawNKoMy-47" edge="1">
          <mxGeometry relative="1" as="geometry">
            <Array as="points">
              <mxPoint x="512" y="404" />
              <mxPoint x="512" y="404" />
            </Array>
          </mxGeometry>
        </mxCell>
        <mxCell id="c5qZVFnj32TkXawNKoMy-44" style="edgeStyle=orthogonalEdgeStyle;rounded=0;orthogonalLoop=1;jettySize=auto;html=1;exitX=0.994;exitY=0.428;exitDx=0;exitDy=0;fontSize=13;strokeWidth=1;shape=flexArrow;startArrow=block;startFill=0;entryX=-0.002;entryY=0.235;entryDx=0;entryDy=0;exitPerimeter=0;entryPerimeter=0;" parent="1" source="c5qZVFnj32TkXawNKoMy-46" target="c5qZVFnj32TkXawNKoMy-49" edge="1">
          <mxGeometry relative="1" as="geometry">
            <mxPoint x="734" y="441" as="targetPoint" />
            <mxPoint x="608.9999999999995" y="441.5" as="sourcePoint" />
            <Array as="points" />
          </mxGeometry>
        </mxCell>
        <mxCell id="c5qZVFnj32TkXawNKoMy-45" style="edgeStyle=orthogonalEdgeStyle;rounded=0;orthogonalLoop=1;jettySize=auto;html=1;exitX=0.5;exitY=1;exitDx=0;exitDy=0;entryX=0;entryY=0.75;entryDx=0;entryDy=0;strokeWidth=1;fontSize=29;" parent="1" source="c5qZVFnj32TkXawNKoMy-46" target="c5qZVFnj32TkXawNKoMy-60" edge="1">
          <mxGeometry relative="1" as="geometry">
            <Array as="points">
              <mxPoint x="428" y="670" />
              <mxPoint x="32" y="670" />
              <mxPoint x="32" y="618" />
            </Array>
          </mxGeometry>
        </mxCell>
        <mxCell id="c5qZVFnj32TkXawNKoMy-46" value="CHI-Conv" style="rounded=0;whiteSpace=wrap;html=1;fontSize=31;fillColor=#F0F0F0;strokeColor=#000000;" parent="1" vertex="1">
          <mxGeometry x="355" y="376" width="147" height="185" as="geometry" />
        </mxCell>
        <mxCell id="c5qZVFnj32TkXawNKoMy-47" value="&lt;font style=&quot;font-size: 17px;&quot;&gt;Data from CHI-Conv for BRAM&lt;/font&gt;" style="text;html=1;align=center;verticalAlign=middle;resizable=0;points=[];autosize=1;strokeColor=none;fillColor=none;fontSize=16;" parent="1" vertex="1">
          <mxGeometry x="552" y="389" width="260" height="30" as="geometry" />
        </mxCell>
        <mxCell id="c5qZVFnj32TkXawNKoMy-48" style="edgeStyle=orthogonalEdgeStyle;rounded=0;orthogonalLoop=1;jettySize=auto;html=1;fontSize=13;strokeWidth=1;shape=flexArrow;startArrow=block;startFill=0;exitX=0;exitY=0.25;exitDx=0;exitDy=0;entryX=0.019;entryY=0.75;entryDx=0;entryDy=0;entryPerimeter=0;" parent="1" source="c5qZVFnj32TkXawNKoMy-60" target="c5qZVFnj32TkXawNKoMy-49" edge="1">
          <mxGeometry relative="1" as="geometry">
            <mxPoint x="735" y="510.0769230769233" as="targetPoint" />
            <mxPoint x="609" y="511.5" as="sourcePoint" />
            <Array as="points">
              <mxPoint y="532" />
              <mxPoint y="710" />
              <mxPoint x="532" y="710" />
              <mxPoint x="532" y="539" />
            </Array>
          </mxGeometry>
        </mxCell>
        <mxCell id="c5qZVFnj32TkXawNKoMy-49" value="&lt;font style=&quot;font-size: 30px;&quot;&gt;CHI &lt;br&gt;System&lt;/font&gt;" style="rounded=1;whiteSpace=wrap;html=1;arcSize=18;fillColor=#B3B3B3;" parent="1" vertex="1">
          <mxGeometry x="853" y="417" width="200" height="163" as="geometry" />
        </mxCell>
        <mxCell id="c5qZVFnj32TkXawNKoMy-50" style="edgeStyle=orthogonalEdgeStyle;rounded=0;orthogonalLoop=1;jettySize=auto;html=1;fontSize=13;strokeWidth=1;shape=flexArrow;startArrow=block;startFill=0;exitX=1.003;exitY=0.774;exitDx=0;exitDy=0;exitPerimeter=0;entryX=-0.002;entryY=0.631;entryDx=0;entryDy=0;entryPerimeter=0;" parent="1" source="c5qZVFnj32TkXawNKoMy-46" target="c5qZVFnj32TkXawNKoMy-49" edge="1">
          <mxGeometry relative="1" as="geometry">
            <mxPoint x="951.8000000000002" y="520.2500000000002" as="targetPoint" />
            <mxPoint x="618.9999999999995" y="520.4300000000001" as="sourcePoint" />
            <Array as="points" />
          </mxGeometry>
        </mxCell>
        <mxCell id="c5qZVFnj32TkXawNKoMy-51" style="edgeStyle=orthogonalEdgeStyle;rounded=0;orthogonalLoop=1;jettySize=auto;html=1;fontSize=13;strokeWidth=1;shape=flexArrow;startArrow=block;startFill=0;exitX=0.994;exitY=0.664;exitDx=0;exitDy=0;exitPerimeter=0;" parent="1" source="c5qZVFnj32TkXawNKoMy-46" target="c5qZVFnj32TkXawNKoMy-49" edge="1">
          <mxGeometry relative="1" as="geometry">
            <mxPoint x="947.5999999999999" y="500.8530000000003" as="targetPoint" />
            <mxPoint x="619.4409999999998" y="501.1900000000003" as="sourcePoint" />
            <Array as="points" />
          </mxGeometry>
        </mxCell>
        <mxCell id="c5qZVFnj32TkXawNKoMy-52" style="edgeStyle=orthogonalEdgeStyle;rounded=0;orthogonalLoop=1;jettySize=auto;html=1;fontSize=13;strokeWidth=1;shape=flexArrow;startArrow=block;startFill=0;exitX=1.003;exitY=0.556;exitDx=0;exitDy=0;exitPerimeter=0;entryX=0.007;entryY=0.377;entryDx=0;entryDy=0;entryPerimeter=0;" parent="1" source="c5qZVFnj32TkXawNKoMy-46" target="c5qZVFnj32TkXawNKoMy-49" edge="1">
          <mxGeometry relative="1" as="geometry">
            <mxPoint x="948" y="479.4893617021278" as="targetPoint" />
            <mxPoint x="620.7639999999997" y="481.21000000000004" as="sourcePoint" />
            <Array as="points" />
          </mxGeometry>
        </mxCell>
        <mxCell id="c5qZVFnj32TkXawNKoMy-53" value="CHI-Channel&amp;nbsp;&lt;br&gt;Interface" style="text;html=1;align=center;verticalAlign=middle;resizable=0;points=[];autosize=1;strokeColor=none;fillColor=none;fontSize=30;" parent="1" vertex="1">
          <mxGeometry x="580" y="540" width="210" height="90" as="geometry" />
        </mxCell>
        <mxCell id="c5qZVFnj32TkXawNKoMy-54" style="edgeStyle=orthogonalEdgeStyle;rounded=0;orthogonalLoop=1;jettySize=auto;html=1;fontSize=18;" parent="1" source="c5qZVFnj32TkXawNKoMy-55" target="c5qZVFnj32TkXawNKoMy-46" edge="1">
          <mxGeometry relative="1" as="geometry">
            <Array as="points">
              <mxPoint x="350" y="486" />
              <mxPoint x="350" y="486" />
            </Array>
          </mxGeometry>
        </mxCell>
        <mxCell id="c5qZVFnj32TkXawNKoMy-55" value="&lt;font style=&quot;font-size: 18px;&quot;&gt;ReadyCHICon&lt;/font&gt;" style="text;html=1;align=center;verticalAlign=middle;resizable=0;points=[];autosize=1;strokeColor=none;fillColor=none;" parent="1" vertex="1">
          <mxGeometry x="184" y="466" width="140" height="40" as="geometry" />
        </mxCell>
        <mxCell id="c5qZVFnj32TkXawNKoMy-56" value="&lt;span style=&quot;&quot;&gt;WE,Addr&lt;/span&gt;" style="text;html=1;align=center;verticalAlign=middle;resizable=0;points=[];autosize=1;strokeColor=none;fillColor=none;fontSize=18;" parent="1" vertex="1">
          <mxGeometry x="-155" y="146" width="100" height="40" as="geometry" />
        </mxCell>
        <mxCell id="c5qZVFnj32TkXawNKoMy-57" value="&lt;b&gt;&lt;font style=&quot;font-size: 40px;&quot;&gt;DMA&lt;/font&gt;&lt;/b&gt;" style="text;html=1;align=center;verticalAlign=middle;resizable=0;points=[];autosize=1;strokeColor=none;fillColor=none;fontSize=18;" parent="1" vertex="1">
          <mxGeometry x="183" y="-120" width="110" height="60" as="geometry" />
        </mxCell>
        <mxCell id="c5qZVFnj32TkXawNKoMy-58" style="edgeStyle=orthogonalEdgeStyle;rounded=0;orthogonalLoop=1;jettySize=auto;html=1;strokeWidth=5;fontSize=18;" parent="1" source="c5qZVFnj32TkXawNKoMy-21" target="c5qZVFnj32TkXawNKoMy-46" edge="1">
          <mxGeometry relative="1" as="geometry">
            <Array as="points">
              <mxPoint x="310" y="440" />
              <mxPoint x="310" y="440" />
            </Array>
            <mxPoint x="-632.9999999999945" y="312" as="targetPoint" />
            <mxPoint x="205" y="450" as="sourcePoint" />
          </mxGeometry>
        </mxCell>
        <mxCell id="c5qZVFnj32TkXawNKoMy-59" style="edgeStyle=orthogonalEdgeStyle;rounded=0;orthogonalLoop=1;jettySize=auto;html=1;exitX=1;exitY=0.25;exitDx=0;exitDy=0;entryX=-0.015;entryY=0.847;entryDx=0;entryDy=0;entryPerimeter=0;fontSize=29;fillColor=#f8cecc;strokeColor=#000000;strokeWidth=3;" parent="1" source="c5qZVFnj32TkXawNKoMy-60" target="c5qZVFnj32TkXawNKoMy-46" edge="1">
          <mxGeometry relative="1" as="geometry" />
        </mxCell>
        <mxCell id="c5qZVFnj32TkXawNKoMy-60" value="BS" style="rounded=0;whiteSpace=wrap;html=1;fontSize=31;fillColor=#F0F0F0;strokeColor=#000000;" parent="1" vertex="1">
          <mxGeometry x="52" y="490" width="140" height="170" as="geometry" />
        </mxCell>
        <mxCell id="c5qZVFnj32TkXawNKoMy-61" value="&lt;font style=&quot;font-size: 23px;&quot;&gt;DataInbChannel&lt;/font&gt;" style="text;html=1;align=center;verticalAlign=middle;resizable=0;points=[];autosize=1;strokeColor=none;fillColor=none;fontSize=29;" parent="1" vertex="1">
          <mxGeometry x="257" y="667" width="190" height="50" as="geometry" />
        </mxCell>
        <mxCell id="c5qZVFnj32TkXawNKoMy-62" style="edgeStyle=orthogonalEdgeStyle;rounded=0;orthogonalLoop=1;jettySize=auto;html=1;fontSize=18;" parent="1" source="c5qZVFnj32TkXawNKoMy-63" target="c5qZVFnj32TkXawNKoMy-7" edge="1">
          <mxGeometry relative="1" as="geometry">
            <mxPoint x="345" y="207.00000000000045" as="targetPoint" />
            <Array as="points">
              <mxPoint x="335" y="203" />
              <mxPoint x="335" y="203" />
            </Array>
          </mxGeometry>
        </mxCell>
        <mxCell id="c5qZVFnj32TkXawNKoMy-63" value="&lt;font style=&quot;font-size: 18px;&quot;&gt;ReadySched&lt;/font&gt;" style="text;html=1;align=center;verticalAlign=middle;resizable=0;points=[];autosize=1;strokeColor=none;fillColor=none;" parent="1" vertex="1">
          <mxGeometry x="191" y="179" width="130" height="40" as="geometry" />
        </mxCell>
        <mxCell id="c5qZVFnj32TkXawNKoMy-64" value="Command" style="text;html=1;align=center;verticalAlign=middle;resizable=0;points=[];autosize=1;strokeColor=none;fillColor=none;fontSize=18;" parent="1" vertex="1">
          <mxGeometry x="214" y="640" width="110" height="40" as="geometry" />
        </mxCell>
        <mxCell id="c5qZVFnj32TkXawNKoMy-65" value="shiftedData&lt;br&gt;,FULL" style="text;html=1;align=center;verticalAlign=middle;resizable=0;points=[];autosize=1;strokeColor=none;fillColor=none;fontSize=23;" parent="1" vertex="1">
          <mxGeometry x="197" y="522" width="140" height="70" as="geometry" />
        </mxCell>
      </root>
    </mxGraphModel>
  </diagram>
  <diagram id="ry3wOKPXWizeex2nkKH3" name="Σελίδα-1">
    <mxGraphModel dx="2389" dy="2003" grid="1" gridSize="10" guides="1" tooltips="1" connect="1" arrows="1" fold="1" page="1" pageScale="1" pageWidth="827" pageHeight="1169" math="0" shadow="0">
      <root>
        <mxCell id="0" />
        <mxCell id="1" parent="0" />
        <mxCell id="w4vCa72nUayKM2oI4r0T-25" style="edgeStyle=orthogonalEdgeStyle;rounded=0;orthogonalLoop=1;jettySize=auto;html=1;exitX=1;exitY=0.335;exitDx=0;exitDy=0;exitPerimeter=0;fontSize=18;" parent="1" source="w4vCa72nUayKM2oI4r0T-1" target="w4vCa72nUayKM2oI4r0T-2" edge="1">
          <mxGeometry relative="1" as="geometry">
            <Array as="points" />
            <mxPoint x="580" y="160" as="targetPoint" />
          </mxGeometry>
        </mxCell>
        <mxCell id="w4vCa72nUayKM2oI4r0T-1" value="FIFO" style="rounded=0;whiteSpace=wrap;html=1;fontSize=18;" parent="1" vertex="1">
          <mxGeometry x="320" y="143" width="120" height="67" as="geometry" />
        </mxCell>
        <mxCell id="w4vCa72nUayKM2oI4r0T-13" style="edgeStyle=orthogonalEdgeStyle;rounded=0;orthogonalLoop=1;jettySize=auto;html=1;exitX=1;exitY=0.5;exitDx=0;exitDy=0;entryX=-0.003;entryY=0.367;entryDx=0;entryDy=0;entryPerimeter=0;fontSize=18;" parent="1" source="w4vCa72nUayKM2oI4r0T-2" target="w4vCa72nUayKM2oI4r0T-4" edge="1">
          <mxGeometry relative="1" as="geometry">
            <Array as="points">
              <mxPoint x="750" y="140" />
              <mxPoint x="830" y="140" />
              <mxPoint x="830" y="-20" />
              <mxPoint x="40" y="-20" />
              <mxPoint x="40" y="199" />
              <mxPoint x="110" y="199" />
            </Array>
          </mxGeometry>
        </mxCell>
        <mxCell id="w4vCa72nUayKM2oI4r0T-27" style="edgeStyle=orthogonalEdgeStyle;rounded=0;orthogonalLoop=1;jettySize=auto;html=1;exitX=1.014;exitY=0.11;exitDx=0;exitDy=0;entryX=0.25;entryY=0;entryDx=0;entryDy=0;exitPerimeter=0;fontSize=18;" parent="1" source="w4vCa72nUayKM2oI4r0T-2" target="w4vCa72nUayKM2oI4r0T-1" edge="1">
          <mxGeometry relative="1" as="geometry">
            <mxPoint x="610" y="180.99999999999977" as="sourcePoint" />
            <mxPoint x="440" y="181" as="targetPoint" />
            <Array as="points">
              <mxPoint x="780" y="91" />
              <mxPoint x="780" y="40" />
              <mxPoint x="350" y="40" />
            </Array>
          </mxGeometry>
        </mxCell>
        <mxCell id="w4vCa72nUayKM2oI4r0T-43" style="edgeStyle=orthogonalEdgeStyle;rounded=0;orthogonalLoop=1;jettySize=auto;html=1;exitX=1;exitY=0.75;exitDx=0;exitDy=0;fontSize=18;entryX=0;entryY=0.314;entryDx=0;entryDy=0;entryPerimeter=0;strokeWidth=2;" parent="1" target="Jt4FC6XR3V2Ozk7LUW1B-16" edge="1">
          <mxGeometry relative="1" as="geometry">
            <mxPoint x="889.9999999999995" y="204.17647058823536" as="targetPoint" />
            <mxPoint x="749.9999999999995" y="204" as="sourcePoint" />
            <Array as="points">
              <mxPoint x="900" y="204" />
              <mxPoint x="995" y="203" />
            </Array>
          </mxGeometry>
        </mxCell>
        <mxCell id="w4vCa72nUayKM2oI4r0T-2" value="Scheduler" style="rounded=0;whiteSpace=wrap;html=1;fontSize=31;" parent="1" vertex="1">
          <mxGeometry x="610" y="70" width="140" height="190" as="geometry" />
        </mxCell>
        <mxCell id="w4vCa72nUayKM2oI4r0T-5" style="edgeStyle=orthogonalEdgeStyle;rounded=0;orthogonalLoop=1;jettySize=auto;html=1;exitX=1;exitY=0.5;exitDx=0;exitDy=0;entryX=0.006;entryY=0.363;entryDx=0;entryDy=0;entryPerimeter=0;fontSize=18;" parent="1" target="w4vCa72nUayKM2oI4r0T-1" edge="1">
          <mxGeometry relative="1" as="geometry">
            <mxPoint x="220" y="168" as="sourcePoint" />
          </mxGeometry>
        </mxCell>
        <mxCell id="w4vCa72nUayKM2oI4r0T-7" style="edgeStyle=orthogonalEdgeStyle;rounded=0;orthogonalLoop=1;jettySize=auto;html=1;exitX=0.998;exitY=0.378;exitDx=0;exitDy=0;entryX=-0.006;entryY=0.811;entryDx=0;entryDy=0;entryPerimeter=0;exitPerimeter=0;fontSize=18;" parent="1" source="w4vCa72nUayKM2oI4r0T-4" target="w4vCa72nUayKM2oI4r0T-1" edge="1">
          <mxGeometry relative="1" as="geometry">
            <mxPoint x="220" y="196" as="sourcePoint" />
            <mxPoint x="320.0000000000002" y="183.5" as="targetPoint" />
            <Array as="points">
              <mxPoint x="220" y="197" />
              <mxPoint x="319" y="197" />
            </Array>
          </mxGeometry>
        </mxCell>
        <mxCell id="w4vCa72nUayKM2oI4r0T-32" style="edgeStyle=orthogonalEdgeStyle;rounded=0;orthogonalLoop=1;jettySize=auto;html=1;entryX=0;entryY=0.75;entryDx=0;entryDy=0;strokeWidth=5;fontSize=18;" parent="1" source="w4vCa72nUayKM2oI4r0T-35" target="Jt4FC6XR3V2Ozk7LUW1B-6" edge="1">
          <mxGeometry relative="1" as="geometry">
            <mxPoint x="751" y="220" as="sourcePoint" />
            <Array as="points">
              <mxPoint x="-280" y="525" />
            </Array>
          </mxGeometry>
        </mxCell>
        <mxCell id="w4vCa72nUayKM2oI4r0T-4" value="Arbiter" style="rounded=0;whiteSpace=wrap;html=1;fontSize=18;" parent="1" vertex="1">
          <mxGeometry x="110" y="160" width="110" height="105" as="geometry" />
        </mxCell>
        <mxCell id="w4vCa72nUayKM2oI4r0T-6" value="DescAddr" style="text;html=1;align=center;verticalAlign=middle;resizable=0;points=[];autosize=1;strokeColor=none;fillColor=none;fontSize=18;" parent="1" vertex="1">
          <mxGeometry x="212" y="170" width="100" height="40" as="geometry" />
        </mxCell>
        <mxCell id="w4vCa72nUayKM2oI4r0T-8" value="enqueue" style="text;html=1;align=center;verticalAlign=middle;resizable=0;points=[];autosize=1;strokeColor=none;fillColor=none;fontSize=18;" parent="1" vertex="1">
          <mxGeometry x="214" y="135" width="90" height="40" as="geometry" />
        </mxCell>
        <mxCell id="w4vCa72nUayKM2oI4r0T-12" style="edgeStyle=orthogonalEdgeStyle;rounded=0;orthogonalLoop=1;jettySize=auto;html=1;startArrow=none;fontSize=18;" parent="1" source="aXjU8Vsmj80-lh8SVnBt-1" edge="1">
          <mxGeometry relative="1" as="geometry">
            <mxPoint x="110" y="244" as="targetPoint" />
            <Array as="points">
              <mxPoint x="-40" y="244" />
              <mxPoint x="-40" y="244" />
            </Array>
            <mxPoint x="-70" y="246" as="sourcePoint" />
          </mxGeometry>
        </mxCell>
        <mxCell id="w4vCa72nUayKM2oI4r0T-37" style="edgeStyle=orthogonalEdgeStyle;rounded=0;orthogonalLoop=1;jettySize=auto;html=1;strokeWidth=5;fontSize=18;entryX=0;entryY=0.25;entryDx=0;entryDy=0;" parent="1" source="aXjU8Vsmj80-lh8SVnBt-1" target="w4vCa72nUayKM2oI4r0T-31" edge="1">
          <mxGeometry relative="1" as="geometry">
            <mxPoint x="-70" y="269.75" as="sourcePoint" />
            <mxPoint x="230" y="376.25" as="targetPoint" />
            <Array as="points">
              <mxPoint x="-10" y="270" />
              <mxPoint x="-10" y="388" />
            </Array>
          </mxGeometry>
        </mxCell>
        <mxCell id="w4vCa72nUayKM2oI4r0T-15" value="DescAddrPointer , Vald" style="text;html=1;align=center;verticalAlign=middle;resizable=0;points=[];autosize=1;strokeColor=none;fillColor=none;fontSize=18;" parent="1" vertex="1">
          <mxGeometry x="495" y="-60" width="210" height="40" as="geometry" />
        </mxCell>
        <mxCell id="w4vCa72nUayKM2oI4r0T-26" value="FIFO_Out" style="text;html=1;align=center;verticalAlign=middle;resizable=0;points=[];autosize=1;strokeColor=none;fillColor=none;fontSize=18;" parent="1" vertex="1">
          <mxGeometry x="440" y="135" width="100" height="40" as="geometry" />
        </mxCell>
        <mxCell id="w4vCa72nUayKM2oI4r0T-28" value="dequeue" style="text;html=1;align=center;verticalAlign=middle;resizable=0;points=[];autosize=1;strokeColor=none;fillColor=none;fontSize=18;" parent="1" vertex="1">
          <mxGeometry x="490" width="90" height="40" as="geometry" />
        </mxCell>
        <mxCell id="w4vCa72nUayKM2oI4r0T-38" style="edgeStyle=orthogonalEdgeStyle;rounded=0;orthogonalLoop=1;jettySize=auto;html=1;exitX=1;exitY=0.25;exitDx=0;exitDy=0;strokeWidth=5;fontSize=18;entryX=-0.003;entryY=0.867;entryDx=0;entryDy=0;entryPerimeter=0;" parent="1" source="w4vCa72nUayKM2oI4r0T-31" target="w4vCa72nUayKM2oI4r0T-2" edge="1">
          <mxGeometry relative="1" as="geometry">
            <Array as="points">
              <mxPoint x="195" y="390" />
              <mxPoint x="480" y="390" />
              <mxPoint x="480" y="235" />
            </Array>
          </mxGeometry>
        </mxCell>
        <mxCell id="w4vCa72nUayKM2oI4r0T-39" style="edgeStyle=orthogonalEdgeStyle;rounded=0;orthogonalLoop=1;jettySize=auto;html=1;strokeWidth=5;fontSize=18;exitX=0.994;exitY=0.666;exitDx=0;exitDy=0;exitPerimeter=0;" parent="1" source="w4vCa72nUayKM2oI4r0T-31" target="aXjU8Vsmj80-lh8SVnBt-1" edge="1">
          <mxGeometry relative="1" as="geometry">
            <Array as="points">
              <mxPoint x="310" y="480" />
              <mxPoint x="310" y="580" />
              <mxPoint x="-440" y="580" />
              <mxPoint x="-440" y="250" />
            </Array>
            <mxPoint x="-165" y="222.25" as="targetPoint" />
          </mxGeometry>
        </mxCell>
        <mxCell id="w4vCa72nUayKM2oI4r0T-31" value="&lt;font style=&quot;font-size: 31px;&quot;&gt;DescBRAM&lt;/font&gt;" style="rounded=0;whiteSpace=wrap;html=1;fontSize=31;" parent="1" vertex="1">
          <mxGeometry x="35" y="333" width="160" height="220" as="geometry" />
        </mxCell>
        <mxCell id="w4vCa72nUayKM2oI4r0T-35" value="Data from Sched" style="text;html=1;align=center;verticalAlign=middle;resizable=0;points=[];autosize=1;strokeColor=none;fillColor=none;fontSize=18;" parent="1" vertex="1">
          <mxGeometry x="-420" y="500" width="160" height="40" as="geometry" />
        </mxCell>
        <mxCell id="w4vCa72nUayKM2oI4r0T-40" value="Data_out1" style="text;html=1;align=center;verticalAlign=middle;resizable=0;points=[];autosize=1;strokeColor=none;fillColor=none;fontSize=18;" parent="1" vertex="1">
          <mxGeometry x="184" y="343" width="110" height="40" as="geometry" />
        </mxCell>
        <mxCell id="w4vCa72nUayKM2oI4r0T-41" value="Data_out2" style="text;html=1;align=center;verticalAlign=middle;resizable=0;points=[];autosize=1;strokeColor=none;fillColor=none;fontSize=18;" parent="1" vertex="1">
          <mxGeometry x="195" y="488" width="110" height="40" as="geometry" />
        </mxCell>
        <mxCell id="w4vCa72nUayKM2oI4r0T-42" value="&lt;span style=&quot;color: rgb(0, 0, 0); font-family: Helvetica; font-size: 18px; font-style: normal; font-variant-ligatures: normal; font-variant-caps: normal; font-weight: 400; letter-spacing: normal; orphans: 2; text-align: center; text-indent: 0px; text-transform: none; widows: 2; word-spacing: 0px; -webkit-text-stroke-width: 0px; background-color: rgb(248, 249, 250); text-decoration-thickness: initial; text-decoration-style: initial; text-decoration-color: initial; float: none; display: inline !important;&quot;&gt;Data,WE,Addr&lt;/span&gt;" style="text;whiteSpace=wrap;html=1;fontSize=18;" parent="1" vertex="1">
          <mxGeometry x="-72" y="240" width="110" height="40" as="geometry" />
        </mxCell>
        <mxCell id="w4vCa72nUayKM2oI4r0T-44" value="SrcAddr,DstAddr,Length" style="text;html=1;align=center;verticalAlign=middle;resizable=0;points=[];autosize=1;strokeColor=none;fillColor=none;fontSize=18;" parent="1" vertex="1">
          <mxGeometry x="743" y="159" width="220" height="40" as="geometry" />
        </mxCell>
        <mxCell id="Jt4FC6XR3V2Ozk7LUW1B-2" value="DescAddrPointer,Vald" style="text;html=1;align=center;verticalAlign=middle;resizable=0;points=[];autosize=1;strokeColor=none;fillColor=none;fontSize=18;" parent="1" vertex="1">
          <mxGeometry x="-135" y="212" width="200" height="40" as="geometry" />
        </mxCell>
        <mxCell id="Jt4FC6XR3V2Ozk7LUW1B-9" style="edgeStyle=orthogonalEdgeStyle;rounded=0;orthogonalLoop=1;jettySize=auto;html=1;exitX=1;exitY=0.5;exitDx=0;exitDy=0;entryX=0;entryY=0.75;entryDx=0;entryDy=0;fontSize=18;strokeWidth=5;" parent="1" source="Jt4FC6XR3V2Ozk7LUW1B-6" target="w4vCa72nUayKM2oI4r0T-31" edge="1">
          <mxGeometry relative="1" as="geometry" />
        </mxCell>
        <mxCell id="Jt4FC6XR3V2Ozk7LUW1B-6" value="Arbiter" style="rounded=0;whiteSpace=wrap;html=1;fontSize=31;" parent="1" vertex="1">
          <mxGeometry x="-151" y="446" width="110" height="105" as="geometry" />
        </mxCell>
        <mxCell id="Jt4FC6XR3V2Ozk7LUW1B-11" value="Arbiter" style="rounded=0;whiteSpace=wrap;html=1;fontSize=18;" parent="1" vertex="1">
          <mxGeometry x="110" y="160" width="110" height="105" as="geometry" />
        </mxCell>
        <mxCell id="Jt4FC6XR3V2Ozk7LUW1B-12" value="FIFO" style="rounded=0;whiteSpace=wrap;html=1;fontSize=18;" parent="1" vertex="1">
          <mxGeometry x="320" y="143" width="120" height="67" as="geometry" />
        </mxCell>
        <mxCell id="Jt4FC6XR3V2Ozk7LUW1B-14" value="Arbiter" style="rounded=0;whiteSpace=wrap;html=1;fontSize=31;" parent="1" vertex="1">
          <mxGeometry x="110" y="160" width="110" height="105" as="geometry" />
        </mxCell>
        <mxCell id="Jt4FC6XR3V2Ozk7LUW1B-15" value="FIFO" style="rounded=0;whiteSpace=wrap;html=1;fontSize=31;" parent="1" vertex="1">
          <mxGeometry x="320" y="143" width="120" height="67" as="geometry" />
        </mxCell>
        <mxCell id="Jt4FC6XR3V2Ozk7LUW1B-18" style="edgeStyle=orthogonalEdgeStyle;rounded=0;orthogonalLoop=1;jettySize=auto;html=1;fontSize=31;strokeWidth=5;entryX=0.011;entryY=0.339;entryDx=0;entryDy=0;entryPerimeter=0;" parent="1" source="Jt4FC6XR3V2Ozk7LUW1B-24" target="Jt4FC6XR3V2Ozk7LUW1B-6" edge="1">
          <mxGeometry relative="1" as="geometry">
            <mxPoint x="400" y="750" as="targetPoint" />
            <Array as="points">
              <mxPoint x="-270" y="482" />
              <mxPoint x="-270" y="482" />
            </Array>
          </mxGeometry>
        </mxCell>
        <mxCell id="Jt4FC6XR3V2Ozk7LUW1B-28" style="edgeStyle=orthogonalEdgeStyle;rounded=0;orthogonalLoop=1;jettySize=auto;html=1;exitX=1;exitY=0.25;exitDx=0;exitDy=0;fontSize=17;strokeWidth=5;" parent="1" source="Jt4FC6XR3V2Ozk7LUW1B-16" target="Jt4FC6XR3V2Ozk7LUW1B-26" edge="1">
          <mxGeometry relative="1" as="geometry" />
        </mxCell>
        <mxCell id="Jt4FC6XR3V2Ozk7LUW1B-29" style="edgeStyle=orthogonalEdgeStyle;rounded=0;orthogonalLoop=1;jettySize=auto;html=1;exitX=1;exitY=0.5;exitDx=0;exitDy=0;fontSize=13;strokeWidth=1;shape=flexArrow;startArrow=none;startFill=0;" parent="1" source="Jt4FC6XR3V2Ozk7LUW1B-16" target="Jt4FC6XR3V2Ozk7LUW1B-30" edge="1">
          <mxGeometry relative="1" as="geometry">
            <mxPoint x="1202.0000000000005" y="235.99999999999955" as="targetPoint" />
            <mxPoint x="1141.9999999999995" y="238.5" as="sourcePoint" />
            <Array as="points" />
          </mxGeometry>
        </mxCell>
        <mxCell id="Jt4FC6XR3V2Ozk7LUW1B-33" style="edgeStyle=orthogonalEdgeStyle;rounded=0;orthogonalLoop=1;jettySize=auto;html=1;exitX=0.5;exitY=1;exitDx=0;exitDy=0;fontSize=17;strokeWidth=1;entryX=0;entryY=0.75;entryDx=0;entryDy=0;" parent="1" source="Jt4FC6XR3V2Ozk7LUW1B-16" target="Jt4FC6XR3V2Ozk7LUW1B-17" edge="1">
          <mxGeometry relative="1" as="geometry">
            <mxPoint x="970" y="390" as="targetPoint" />
            <Array as="points">
              <mxPoint x="1069" y="720" />
              <mxPoint x="520" y="720" />
              <mxPoint x="520" y="645" />
            </Array>
          </mxGeometry>
        </mxCell>
        <mxCell id="Jt4FC6XR3V2Ozk7LUW1B-16" value="CHI-Conv" style="rounded=0;whiteSpace=wrap;html=1;fontSize=31;" parent="1" vertex="1">
          <mxGeometry x="995" y="145" width="147" height="185" as="geometry" />
        </mxCell>
        <mxCell id="Jt4FC6XR3V2Ozk7LUW1B-35" style="edgeStyle=orthogonalEdgeStyle;rounded=0;orthogonalLoop=1;jettySize=auto;html=1;exitX=1;exitY=0.5;exitDx=0;exitDy=0;entryX=0;entryY=0.75;entryDx=0;entryDy=0;fontSize=17;strokeWidth=2;" parent="1" source="Jt4FC6XR3V2Ozk7LUW1B-17" target="Jt4FC6XR3V2Ozk7LUW1B-16" edge="1">
          <mxGeometry relative="1" as="geometry">
            <Array as="points">
              <mxPoint x="950" y="620" />
              <mxPoint x="950" y="284" />
            </Array>
          </mxGeometry>
        </mxCell>
        <mxCell id="Jt4FC6XR3V2Ozk7LUW1B-36" style="edgeStyle=orthogonalEdgeStyle;rounded=0;orthogonalLoop=1;jettySize=auto;html=1;exitX=1.019;exitY=0.592;exitDx=0;exitDy=0;fontSize=17;strokeWidth=1;entryX=0;entryY=0.5;entryDx=0;entryDy=0;exitPerimeter=0;shape=flexArrow;" parent="1" source="Jt4FC6XR3V2Ozk7LUW1B-37" target="Jt4FC6XR3V2Ozk7LUW1B-17" edge="1">
          <mxGeometry relative="1" as="geometry">
            <mxPoint x="60" y="630" as="sourcePoint" />
            <Array as="points">
              <mxPoint x="90" y="621" />
            </Array>
          </mxGeometry>
        </mxCell>
        <mxCell id="Jt4FC6XR3V2Ozk7LUW1B-17" value="barrel shifter" style="rounded=0;whiteSpace=wrap;html=1;fontSize=31;" parent="1" vertex="1">
          <mxGeometry x="540" y="570" width="120" height="100" as="geometry" />
        </mxCell>
        <mxCell id="Jt4FC6XR3V2Ozk7LUW1B-19" value="" style="rounded=0;whiteSpace=wrap;html=1;fontSize=31;" parent="1" vertex="1">
          <mxGeometry x="1008.5" y="297" width="30" height="27" as="geometry" />
        </mxCell>
        <mxCell id="Jt4FC6XR3V2Ozk7LUW1B-20" value="" style="rounded=0;whiteSpace=wrap;html=1;fontSize=31;" parent="1" vertex="1">
          <mxGeometry x="1038.5" y="297" width="30" height="27" as="geometry" />
        </mxCell>
        <mxCell id="Jt4FC6XR3V2Ozk7LUW1B-21" value="" style="rounded=0;whiteSpace=wrap;html=1;fontSize=31;" parent="1" vertex="1">
          <mxGeometry x="1068.5" y="297" width="30" height="27" as="geometry" />
        </mxCell>
        <mxCell id="Jt4FC6XR3V2Ozk7LUW1B-23" value="&lt;font style=&quot;font-size: 16px;&quot;&gt;ComandFIFO&lt;/font&gt;" style="text;html=1;align=center;verticalAlign=middle;resizable=0;points=[];autosize=1;strokeColor=none;fillColor=none;fontSize=16;" parent="1" vertex="1">
          <mxGeometry x="1008.5" y="267" width="120" height="30" as="geometry" />
        </mxCell>
        <mxCell id="Jt4FC6XR3V2Ozk7LUW1B-24" value="&lt;font style=&quot;font-size: 17px;&quot;&gt;Data from CHI-Conv&lt;/font&gt;" style="text;html=1;align=center;verticalAlign=middle;resizable=0;points=[];autosize=1;strokeColor=none;fillColor=none;fontSize=16;" parent="1" vertex="1">
          <mxGeometry x="-440" y="465" width="180" height="30" as="geometry" />
        </mxCell>
        <mxCell id="Jt4FC6XR3V2Ozk7LUW1B-25" style="edgeStyle=orthogonalEdgeStyle;rounded=0;orthogonalLoop=1;jettySize=auto;html=1;fontSize=31;strokeWidth=5;" parent="1" source="w4vCa72nUayKM2oI4r0T-2" target="Jt4FC6XR3V2Ozk7LUW1B-27" edge="1">
          <mxGeometry relative="1" as="geometry">
            <mxPoint x="760" y="238.74500000000026" as="sourcePoint" />
            <mxPoint x="820" y="239" as="targetPoint" />
            <Array as="points">
              <mxPoint x="805" y="239" />
            </Array>
          </mxGeometry>
        </mxCell>
        <mxCell id="Jt4FC6XR3V2Ozk7LUW1B-26" value="&lt;font style=&quot;font-size: 17px;&quot;&gt;Data from CHI-Conv for BRAM&lt;/font&gt;" style="text;html=1;align=center;verticalAlign=middle;resizable=0;points=[];autosize=1;strokeColor=none;fillColor=none;fontSize=16;" parent="1" vertex="1">
          <mxGeometry x="1211" y="176" width="260" height="30" as="geometry" />
        </mxCell>
        <mxCell id="Jt4FC6XR3V2Ozk7LUW1B-27" value="Data from Sched for BRAM" style="text;html=1;align=center;verticalAlign=middle;resizable=0;points=[];autosize=1;strokeColor=none;fillColor=none;fontSize=18;" parent="1" vertex="1">
          <mxGeometry x="685" y="275" width="240" height="40" as="geometry" />
        </mxCell>
        <mxCell id="Jt4FC6XR3V2Ozk7LUW1B-30" value="CHI-Read" style="text;html=1;align=center;verticalAlign=middle;resizable=0;points=[];autosize=1;strokeColor=none;fillColor=none;fontSize=17;" parent="1" vertex="1">
          <mxGeometry x="1267" y="223" width="100" height="30" as="geometry" />
        </mxCell>
        <mxCell id="Jt4FC6XR3V2Ozk7LUW1B-34" value="Shift" style="text;html=1;align=center;verticalAlign=middle;resizable=0;points=[];autosize=1;strokeColor=none;fillColor=none;fontSize=17;" parent="1" vertex="1">
          <mxGeometry x="890" y="690" width="60" height="30" as="geometry" />
        </mxCell>
        <mxCell id="Jt4FC6XR3V2Ozk7LUW1B-37" value="ReadResponse" style="text;html=1;align=center;verticalAlign=middle;resizable=0;points=[];autosize=1;strokeColor=none;fillColor=none;fontSize=17;" parent="1" vertex="1">
          <mxGeometry x="-350" y="603" width="140" height="30" as="geometry" />
        </mxCell>
        <mxCell id="r7OrUEbrD_c8es7nuOji-1" style="edgeStyle=orthogonalEdgeStyle;rounded=0;orthogonalLoop=1;jettySize=auto;html=1;fontSize=13;strokeWidth=1;shape=flexArrow;startArrow=none;startFill=0;exitX=1;exitY=0.878;exitDx=0;exitDy=0;exitPerimeter=0;" parent="1" source="Jt4FC6XR3V2Ozk7LUW1B-16" target="r7OrUEbrD_c8es7nuOji-2" edge="1">
          <mxGeometry relative="1" as="geometry">
            <mxPoint x="1202.0000000000005" y="306.99999999999955" as="targetPoint" />
            <mxPoint x="1142" y="308.5" as="sourcePoint" />
            <Array as="points" />
          </mxGeometry>
        </mxCell>
        <mxCell id="r7OrUEbrD_c8es7nuOji-2" value="CHI-Write" style="text;html=1;align=center;verticalAlign=middle;resizable=0;points=[];autosize=1;strokeColor=none;fillColor=none;fontSize=17;" parent="1" vertex="1">
          <mxGeometry x="1268" y="292" width="100" height="30" as="geometry" />
        </mxCell>
        <mxCell id="aXjU8Vsmj80-lh8SVnBt-1" value="&lt;font style=&quot;font-size: 31px;&quot;&gt;Proc&lt;/font&gt;" style="ellipse;whiteSpace=wrap;html=1;aspect=fixed;fontSize=16;" parent="1" vertex="1">
          <mxGeometry x="-162" y="212" width="80" height="80" as="geometry" />
        </mxCell>
      </root>
    </mxGraphModel>
  </diagram>
  <diagram id="doL_1HWbYZPGtKuqBr8e" name="Σελίδα-3">
    <mxGraphModel dx="2313" dy="3260" grid="1" gridSize="10" guides="1" tooltips="1" connect="1" arrows="1" fold="1" page="1" pageScale="1" pageWidth="827" pageHeight="1169" math="0" shadow="0">
      <root>
        <mxCell id="0" />
        <mxCell id="1" parent="0" />
        <mxCell id="dYnM1GEBc4L6-Mky44I_-1" value="" style="rounded=0;whiteSpace=wrap;html=1;fontSize=18;fillColor=#d5e8d4;strokeColor=#82b366;" parent="1" vertex="1">
          <mxGeometry x="-390" y="-50" width="1190" height="790" as="geometry" />
        </mxCell>
        <mxCell id="dYnM1GEBc4L6-Mky44I_-2" style="edgeStyle=orthogonalEdgeStyle;rounded=0;orthogonalLoop=1;jettySize=auto;html=1;exitX=1;exitY=0.335;exitDx=0;exitDy=0;exitPerimeter=0;fontSize=18;entryX=0;entryY=0.25;entryDx=0;entryDy=0;" parent="1" source="dYnM1GEBc4L6-Mky44I_-3" edge="1">
          <mxGeometry relative="1" as="geometry">
            <Array as="points">
              <mxPoint x="265" y="100" />
            </Array>
            <mxPoint x="361" y="100" as="targetPoint" />
          </mxGeometry>
        </mxCell>
        <mxCell id="dYnM1GEBc4L6-Mky44I_-3" value="FIFO" style="rounded=0;whiteSpace=wrap;html=1;fontSize=18;" parent="1" vertex="1">
          <mxGeometry x="145" y="75" width="120" height="67" as="geometry" />
        </mxCell>
        <mxCell id="dYnM1GEBc4L6-Mky44I_-4" style="edgeStyle=orthogonalEdgeStyle;rounded=0;orthogonalLoop=1;jettySize=auto;html=1;exitX=1;exitY=0.5;exitDx=0;exitDy=0;entryX=-0.003;entryY=0.367;entryDx=0;entryDy=0;entryPerimeter=0;fontSize=18;" parent="1" source="dYnM1GEBc4L6-Mky44I_-7" target="dYnM1GEBc4L6-Mky44I_-11" edge="1">
          <mxGeometry relative="1" as="geometry">
            <Array as="points">
              <mxPoint x="552" y="195" />
              <mxPoint x="552" y="-5" />
              <mxPoint x="-90" y="-5" />
              <mxPoint x="-90" y="131" />
            </Array>
          </mxGeometry>
        </mxCell>
        <mxCell id="dYnM1GEBc4L6-Mky44I_-5" style="edgeStyle=orthogonalEdgeStyle;rounded=0;orthogonalLoop=1;jettySize=auto;html=1;exitX=1.014;exitY=0.11;exitDx=0;exitDy=0;entryX=0.25;entryY=0;entryDx=0;entryDy=0;exitPerimeter=0;fontSize=18;" parent="1" source="dYnM1GEBc4L6-Mky44I_-7" target="dYnM1GEBc4L6-Mky44I_-3" edge="1">
          <mxGeometry relative="1" as="geometry">
            <mxPoint x="435" y="195.99999999999977" as="sourcePoint" />
            <mxPoint x="265" y="196" as="targetPoint" />
            <Array as="points">
              <mxPoint x="503" y="106" />
              <mxPoint x="522" y="106" />
              <mxPoint x="522" y="55" />
              <mxPoint x="175" y="55" />
            </Array>
          </mxGeometry>
        </mxCell>
        <mxCell id="dYnM1GEBc4L6-Mky44I_-6" style="edgeStyle=orthogonalEdgeStyle;rounded=0;orthogonalLoop=1;jettySize=auto;html=1;fontSize=18;entryX=0.5;entryY=0;entryDx=0;entryDy=0;strokeWidth=2;" parent="1" source="dYnM1GEBc4L6-Mky44I_-7" target="dYnM1GEBc4L6-Mky44I_-46" edge="1">
          <mxGeometry relative="1" as="geometry">
            <mxPoint x="718" y="203.09000000000015" as="targetPoint" />
            <mxPoint x="575" y="204" as="sourcePoint" />
            <Array as="points">
              <mxPoint x="429" y="300" />
              <mxPoint x="429" y="300" />
            </Array>
          </mxGeometry>
        </mxCell>
        <mxCell id="dYnM1GEBc4L6-Mky44I_-7" value="Scheduler" style="rounded=0;whiteSpace=wrap;html=1;fontSize=31;fillColor=#F0F0F0;strokeColor=#000000;" parent="1" vertex="1">
          <mxGeometry x="361" y="85" width="149" height="175" as="geometry" />
        </mxCell>
        <mxCell id="dYnM1GEBc4L6-Mky44I_-8" style="edgeStyle=orthogonalEdgeStyle;rounded=0;orthogonalLoop=1;jettySize=auto;html=1;exitX=1;exitY=0.5;exitDx=0;exitDy=0;entryX=0.006;entryY=0.363;entryDx=0;entryDy=0;entryPerimeter=0;fontSize=18;" parent="1" target="dYnM1GEBc4L6-Mky44I_-3" edge="1">
          <mxGeometry relative="1" as="geometry">
            <mxPoint x="151.99999999999955" y="100" as="sourcePoint" />
          </mxGeometry>
        </mxCell>
        <mxCell id="dYnM1GEBc4L6-Mky44I_-9" style="edgeStyle=orthogonalEdgeStyle;rounded=0;orthogonalLoop=1;jettySize=auto;html=1;exitX=0.998;exitY=0.378;exitDx=0;exitDy=0;entryX=-0.006;entryY=0.811;entryDx=0;entryDy=0;entryPerimeter=0;exitPerimeter=0;fontSize=18;" parent="1" source="dYnM1GEBc4L6-Mky44I_-11" target="dYnM1GEBc4L6-Mky44I_-3" edge="1">
          <mxGeometry relative="1" as="geometry">
            <mxPoint x="152" y="128" as="sourcePoint" />
            <mxPoint x="252.00000000000023" y="115.5" as="targetPoint" />
            <Array as="points">
              <mxPoint x="152" y="129" />
              <mxPoint x="251" y="129" />
            </Array>
          </mxGeometry>
        </mxCell>
        <mxCell id="dYnM1GEBc4L6-Mky44I_-10" style="edgeStyle=orthogonalEdgeStyle;rounded=0;orthogonalLoop=1;jettySize=auto;html=1;entryX=0;entryY=0.75;entryDx=0;entryDy=0;strokeWidth=5;fontSize=18;" parent="1" source="dYnM1GEBc4L6-Mky44I_-22" target="dYnM1GEBc4L6-Mky44I_-27" edge="1">
          <mxGeometry relative="1" as="geometry">
            <mxPoint x="657" y="135" as="sourcePoint" />
            <Array as="points">
              <mxPoint x="-374" y="440" />
            </Array>
          </mxGeometry>
        </mxCell>
        <mxCell id="dYnM1GEBc4L6-Mky44I_-11" value="Arbiter" style="rounded=0;whiteSpace=wrap;html=1;fontSize=18;" parent="1" vertex="1">
          <mxGeometry x="-65" y="92" width="110" height="105" as="geometry" />
        </mxCell>
        <mxCell id="dYnM1GEBc4L6-Mky44I_-12" value="DescAddr" style="text;html=1;align=center;verticalAlign=middle;resizable=0;points=[];autosize=1;strokeColor=none;fillColor=none;fontSize=18;" parent="1" vertex="1">
          <mxGeometry x="39" y="101" width="100" height="40" as="geometry" />
        </mxCell>
        <mxCell id="dYnM1GEBc4L6-Mky44I_-13" value="enqueue" style="text;html=1;align=center;verticalAlign=middle;resizable=0;points=[];autosize=1;strokeColor=none;fillColor=none;fontSize=18;" parent="1" vertex="1">
          <mxGeometry x="39" y="67" width="90" height="40" as="geometry" />
        </mxCell>
        <mxCell id="dYnM1GEBc4L6-Mky44I_-14" style="edgeStyle=orthogonalEdgeStyle;rounded=0;orthogonalLoop=1;jettySize=auto;html=1;startArrow=none;fontSize=18;entryX=0.002;entryY=0.801;entryDx=0;entryDy=0;entryPerimeter=0;" parent="1" source="dYnM1GEBc4L6-Mky44I_-37" target="dYnM1GEBc4L6-Mky44I_-31" edge="1">
          <mxGeometry relative="1" as="geometry">
            <mxPoint x="109.99999999999955" y="244" as="targetPoint" />
            <Array as="points">
              <mxPoint x="-160" y="302" />
              <mxPoint x="-160" y="176" />
            </Array>
            <mxPoint x="-70" y="246" as="sourcePoint" />
          </mxGeometry>
        </mxCell>
        <mxCell id="dYnM1GEBc4L6-Mky44I_-15" style="edgeStyle=orthogonalEdgeStyle;rounded=0;orthogonalLoop=1;jettySize=auto;html=1;strokeWidth=5;fontSize=18;entryX=0;entryY=0.25;entryDx=0;entryDy=0;exitX=1;exitY=0.5;exitDx=0;exitDy=0;" parent="1" source="dYnM1GEBc4L6-Mky44I_-37" target="dYnM1GEBc4L6-Mky44I_-21" edge="1">
          <mxGeometry relative="1" as="geometry">
            <mxPoint x="-492.00000000000045" y="264.00000000000045" as="sourcePoint" />
            <mxPoint x="230" y="291.25" as="targetPoint" />
            <Array as="points">
              <mxPoint x="-480" y="303" />
            </Array>
          </mxGeometry>
        </mxCell>
        <mxCell id="dYnM1GEBc4L6-Mky44I_-16" value="DescAddrPointer , Vald" style="text;html=1;align=center;verticalAlign=middle;resizable=0;points=[];autosize=1;strokeColor=none;fillColor=none;fontSize=18;" parent="1" vertex="1">
          <mxGeometry x="181" y="-39" width="210" height="40" as="geometry" />
        </mxCell>
        <mxCell id="dYnM1GEBc4L6-Mky44I_-17" value="FIFO_Out" style="text;html=1;align=center;verticalAlign=middle;resizable=0;points=[];autosize=1;strokeColor=none;fillColor=none;fontSize=18;" parent="1" vertex="1">
          <mxGeometry x="261" y="93" width="100" height="40" as="geometry" />
        </mxCell>
        <mxCell id="dYnM1GEBc4L6-Mky44I_-18" value="dequeue" style="text;html=1;align=center;verticalAlign=middle;resizable=0;points=[];autosize=1;strokeColor=none;fillColor=none;fontSize=18;" parent="1" vertex="1">
          <mxGeometry x="315" y="20" width="90" height="40" as="geometry" />
        </mxCell>
        <mxCell id="dYnM1GEBc4L6-Mky44I_-19" style="edgeStyle=orthogonalEdgeStyle;rounded=0;orthogonalLoop=1;jettySize=auto;html=1;strokeWidth=5;fontSize=18;" parent="1" source="dYnM1GEBc4L6-Mky44I_-21" target="dYnM1GEBc4L6-Mky44I_-7" edge="1">
          <mxGeometry relative="1" as="geometry">
            <Array as="points">
              <mxPoint x="310" y="440" />
              <mxPoint x="310" y="240" />
            </Array>
            <mxPoint x="195" y="285.0769230769233" as="sourcePoint" />
          </mxGeometry>
        </mxCell>
        <mxCell id="dYnM1GEBc4L6-Mky44I_-20" style="edgeStyle=orthogonalEdgeStyle;rounded=0;orthogonalLoop=1;jettySize=auto;html=1;strokeWidth=5;fontSize=18;entryX=0;entryY=0.5;entryDx=0;entryDy=0;" parent="1" source="dYnM1GEBc4L6-Mky44I_-21" target="dYnM1GEBc4L6-Mky44I_-37" edge="1">
          <mxGeometry relative="1" as="geometry">
            <Array as="points">
              <mxPoint x="230" y="280" />
              <mxPoint x="230" y="220" />
              <mxPoint x="-570" y="220" />
              <mxPoint x="-570" y="302" />
              <mxPoint x="-539" y="302" />
            </Array>
            <mxPoint x="-165" y="222.25" as="targetPoint" />
          </mxGeometry>
        </mxCell>
        <mxCell id="dYnM1GEBc4L6-Mky44I_-21" value="&lt;font style=&quot;font-size: 31px;&quot;&gt;Desc&lt;br&gt;BRAM&lt;/font&gt;" style="rounded=0;whiteSpace=wrap;html=1;fontSize=31;fillColor=#ffe6cc;strokeColor=#000000;dashed=1;strokeWidth=3;" parent="1" vertex="1">
          <mxGeometry x="42" y="246" width="160" height="220" as="geometry" />
        </mxCell>
        <mxCell id="dYnM1GEBc4L6-Mky44I_-22" value="Data,Val from Sched" style="text;html=1;align=center;verticalAlign=middle;resizable=0;points=[];autosize=1;strokeColor=none;fillColor=none;fontSize=18;" parent="1" vertex="1">
          <mxGeometry x="-393" y="417" width="190" height="40" as="geometry" />
        </mxCell>
        <mxCell id="dYnM1GEBc4L6-Mky44I_-23" value="Data_out1" style="text;html=1;align=center;verticalAlign=middle;resizable=0;points=[];autosize=1;strokeColor=none;fillColor=none;fontSize=18;" parent="1" vertex="1">
          <mxGeometry x="127" y="216" width="110" height="40" as="geometry" />
        </mxCell>
        <mxCell id="dYnM1GEBc4L6-Mky44I_-24" value="Data_out2" style="text;html=1;align=center;verticalAlign=middle;resizable=0;points=[];autosize=1;strokeColor=none;fillColor=none;fontSize=18;" parent="1" vertex="1">
          <mxGeometry x="184" y="406" width="110" height="40" as="geometry" />
        </mxCell>
        <mxCell id="dYnM1GEBc4L6-Mky44I_-25" value="Command" style="text;html=1;align=center;verticalAlign=middle;resizable=0;points=[];autosize=1;strokeColor=none;fillColor=none;fontSize=18;" parent="1" vertex="1">
          <mxGeometry x="420" y="315" width="110" height="40" as="geometry" />
        </mxCell>
        <mxCell id="dYnM1GEBc4L6-Mky44I_-26" style="edgeStyle=orthogonalEdgeStyle;rounded=0;orthogonalLoop=1;jettySize=auto;html=1;exitX=1;exitY=0.5;exitDx=0;exitDy=0;entryX=0;entryY=0.75;entryDx=0;entryDy=0;fontSize=18;strokeWidth=5;" parent="1" source="dYnM1GEBc4L6-Mky44I_-27" target="dYnM1GEBc4L6-Mky44I_-21" edge="1">
          <mxGeometry relative="1" as="geometry" />
        </mxCell>
        <mxCell id="dYnM1GEBc4L6-Mky44I_-27" value="Arbiter" style="rounded=0;whiteSpace=wrap;html=1;fontSize=31;fillColor=#F2F2F2;" parent="1" vertex="1">
          <mxGeometry x="-155" y="361" width="110" height="105" as="geometry" />
        </mxCell>
        <mxCell id="dYnM1GEBc4L6-Mky44I_-28" value="Arbiter" style="rounded=0;whiteSpace=wrap;html=1;fontSize=18;" parent="1" vertex="1">
          <mxGeometry x="-65" y="92" width="110" height="105" as="geometry" />
        </mxCell>
        <mxCell id="dYnM1GEBc4L6-Mky44I_-29" value="FIFO" style="rounded=0;whiteSpace=wrap;html=1;fontSize=18;" parent="1" vertex="1">
          <mxGeometry x="145" y="75" width="120" height="67" as="geometry" />
        </mxCell>
        <mxCell id="dYnM1GEBc4L6-Mky44I_-30" style="edgeStyle=orthogonalEdgeStyle;rounded=0;orthogonalLoop=1;jettySize=auto;html=1;" parent="1" source="dYnM1GEBc4L6-Mky44I_-31" target="dYnM1GEBc4L6-Mky44I_-7" edge="1">
          <mxGeometry relative="1" as="geometry">
            <mxPoint x="468" y="175.00000000000045" as="targetPoint" />
            <Array as="points">
              <mxPoint x="210" y="170" />
              <mxPoint x="210" y="170" />
            </Array>
          </mxGeometry>
        </mxCell>
        <mxCell id="dYnM1GEBc4L6-Mky44I_-31" value="Arbiter" style="rounded=0;whiteSpace=wrap;html=1;fontSize=31;fillColor=#F2F2F2;" parent="1" vertex="1">
          <mxGeometry x="-65" y="92" width="110" height="105" as="geometry" />
        </mxCell>
        <mxCell id="dYnM1GEBc4L6-Mky44I_-32" value="FIFO" style="rounded=0;whiteSpace=wrap;html=1;fontSize=31;fillColor=#F2F2F2;" parent="1" vertex="1">
          <mxGeometry x="145" y="75" width="120" height="67" as="geometry" />
        </mxCell>
        <mxCell id="dYnM1GEBc4L6-Mky44I_-33" style="edgeStyle=orthogonalEdgeStyle;rounded=0;orthogonalLoop=1;jettySize=auto;html=1;fontSize=31;strokeWidth=5;entryX=0.011;entryY=0.339;entryDx=0;entryDy=0;entryPerimeter=0;" parent="1" source="dYnM1GEBc4L6-Mky44I_-34" target="dYnM1GEBc4L6-Mky44I_-27" edge="1">
          <mxGeometry relative="1" as="geometry">
            <mxPoint x="306" y="665" as="targetPoint" />
            <Array as="points">
              <mxPoint x="-364" y="397" />
              <mxPoint x="-364" y="397" />
            </Array>
          </mxGeometry>
        </mxCell>
        <mxCell id="dYnM1GEBc4L6-Mky44I_-34" value="&lt;font style=&quot;font-size: 17px;&quot;&gt;Data,Val from CHI-Conv&lt;/font&gt;" style="text;html=1;align=center;verticalAlign=middle;resizable=0;points=[];autosize=1;strokeColor=none;fillColor=none;fontSize=16;" parent="1" vertex="1">
          <mxGeometry x="-400" y="376" width="210" height="30" as="geometry" />
        </mxCell>
        <mxCell id="dYnM1GEBc4L6-Mky44I_-35" style="edgeStyle=orthogonalEdgeStyle;rounded=0;orthogonalLoop=1;jettySize=auto;html=1;fontSize=31;strokeWidth=5;" parent="1" source="dYnM1GEBc4L6-Mky44I_-7" target="dYnM1GEBc4L6-Mky44I_-36" edge="1">
          <mxGeometry relative="1" as="geometry">
            <mxPoint x="511" y="238.74500000000026" as="sourcePoint" />
            <mxPoint x="571" y="239" as="targetPoint" />
            <Array as="points">
              <mxPoint x="530" y="240" />
              <mxPoint x="530" y="240" />
            </Array>
          </mxGeometry>
        </mxCell>
        <mxCell id="dYnM1GEBc4L6-Mky44I_-36" value="Data from Sched for BRAM" style="text;html=1;align=center;verticalAlign=middle;resizable=0;points=[];autosize=1;strokeColor=none;fillColor=none;fontSize=18;" parent="1" vertex="1">
          <mxGeometry x="560" y="220" width="240" height="40" as="geometry" />
        </mxCell>
        <mxCell id="dYnM1GEBc4L6-Mky44I_-37" value="&lt;font style=&quot;font-size: 31px;&quot;&gt;CPU&lt;br&gt;&lt;/font&gt;" style="ellipse;whiteSpace=wrap;html=1;aspect=fixed;fontSize=16;fillColor=#B3B3B3;" parent="1" vertex="1">
          <mxGeometry x="-525" y="244" width="118" height="118" as="geometry" />
        </mxCell>
        <mxCell id="dYnM1GEBc4L6-Mky44I_-38" value="&lt;font style=&quot;font-size: 18px;&quot;&gt;Ready&lt;/font&gt;" style="text;html=1;align=center;verticalAlign=middle;resizable=0;points=[];autosize=1;strokeColor=none;fillColor=none;" parent="1" vertex="1">
          <mxGeometry x="165" y="141" width="80" height="40" as="geometry" />
        </mxCell>
        <mxCell id="dYnM1GEBc4L6-Mky44I_-39" style="edgeStyle=orthogonalEdgeStyle;rounded=0;orthogonalLoop=1;jettySize=auto;html=1;fontSize=18;exitX=0.75;exitY=1;exitDx=0;exitDy=0;" parent="1" source="dYnM1GEBc4L6-Mky44I_-27" target="dYnM1GEBc4L6-Mky44I_-40" edge="1">
          <mxGeometry relative="1" as="geometry" />
        </mxCell>
        <mxCell id="dYnM1GEBc4L6-Mky44I_-40" value="&lt;font style=&quot;font-size: 18px;&quot;&gt;ReadySched&lt;/font&gt;" style="text;html=1;align=center;verticalAlign=middle;resizable=0;points=[];autosize=1;strokeColor=none;fillColor=none;" parent="1" vertex="1">
          <mxGeometry x="-138" y="528" width="130" height="40" as="geometry" />
        </mxCell>
        <mxCell id="dYnM1GEBc4L6-Mky44I_-41" style="edgeStyle=orthogonalEdgeStyle;rounded=0;orthogonalLoop=1;jettySize=auto;html=1;fontSize=18;" parent="1" source="dYnM1GEBc4L6-Mky44I_-27" target="dYnM1GEBc4L6-Mky44I_-42" edge="1">
          <mxGeometry relative="1" as="geometry">
            <Array as="points">
              <mxPoint x="-120" y="480" />
              <mxPoint x="-120" y="480" />
            </Array>
          </mxGeometry>
        </mxCell>
        <mxCell id="dYnM1GEBc4L6-Mky44I_-42" value="&lt;font style=&quot;font-size: 18px;&quot;&gt;ReadyCHICon&lt;/font&gt;" style="text;html=1;align=center;verticalAlign=middle;resizable=0;points=[];autosize=1;strokeColor=none;fillColor=none;" parent="1" vertex="1">
          <mxGeometry x="-214" y="493" width="140" height="40" as="geometry" />
        </mxCell>
        <mxCell id="dYnM1GEBc4L6-Mky44I_-43" style="edgeStyle=orthogonalEdgeStyle;rounded=0;orthogonalLoop=1;jettySize=auto;html=1;fontSize=17;strokeWidth=5;" parent="1" source="dYnM1GEBc4L6-Mky44I_-46" target="dYnM1GEBc4L6-Mky44I_-47" edge="1">
          <mxGeometry relative="1" as="geometry">
            <Array as="points">
              <mxPoint x="512" y="404" />
              <mxPoint x="512" y="404" />
            </Array>
          </mxGeometry>
        </mxCell>
        <mxCell id="dYnM1GEBc4L6-Mky44I_-44" style="edgeStyle=orthogonalEdgeStyle;rounded=0;orthogonalLoop=1;jettySize=auto;html=1;exitX=0.994;exitY=0.428;exitDx=0;exitDy=0;fontSize=13;strokeWidth=1;shape=flexArrow;startArrow=block;startFill=0;entryX=-0.002;entryY=0.235;entryDx=0;entryDy=0;exitPerimeter=0;entryPerimeter=0;" parent="1" source="dYnM1GEBc4L6-Mky44I_-46" target="dYnM1GEBc4L6-Mky44I_-49" edge="1">
          <mxGeometry relative="1" as="geometry">
            <mxPoint x="734" y="441" as="targetPoint" />
            <mxPoint x="608.9999999999995" y="441.5" as="sourcePoint" />
            <Array as="points" />
          </mxGeometry>
        </mxCell>
        <mxCell id="dYnM1GEBc4L6-Mky44I_-45" style="edgeStyle=orthogonalEdgeStyle;rounded=0;orthogonalLoop=1;jettySize=auto;html=1;exitX=0.5;exitY=1;exitDx=0;exitDy=0;entryX=0;entryY=0.75;entryDx=0;entryDy=0;strokeWidth=1;fontSize=29;" parent="1" source="dYnM1GEBc4L6-Mky44I_-46" target="dYnM1GEBc4L6-Mky44I_-60" edge="1">
          <mxGeometry relative="1" as="geometry">
            <Array as="points">
              <mxPoint x="428" y="670" />
              <mxPoint x="32" y="670" />
              <mxPoint x="32" y="618" />
            </Array>
          </mxGeometry>
        </mxCell>
        <mxCell id="dYnM1GEBc4L6-Mky44I_-46" value="CHI-Conv" style="rounded=0;whiteSpace=wrap;html=1;fontSize=31;fillColor=#F0F0F0;strokeColor=#000000;" parent="1" vertex="1">
          <mxGeometry x="355" y="376" width="147" height="185" as="geometry" />
        </mxCell>
        <mxCell id="dYnM1GEBc4L6-Mky44I_-47" value="&lt;font style=&quot;font-size: 17px;&quot;&gt;Data from CHI-Conv for BRAM&lt;/font&gt;" style="text;html=1;align=center;verticalAlign=middle;resizable=0;points=[];autosize=1;strokeColor=none;fillColor=none;fontSize=16;" parent="1" vertex="1">
          <mxGeometry x="552" y="389" width="260" height="30" as="geometry" />
        </mxCell>
        <mxCell id="dYnM1GEBc4L6-Mky44I_-48" style="edgeStyle=orthogonalEdgeStyle;rounded=0;orthogonalLoop=1;jettySize=auto;html=1;fontSize=13;strokeWidth=1;shape=flexArrow;startArrow=block;startFill=0;exitX=0;exitY=0.25;exitDx=0;exitDy=0;entryX=0.019;entryY=0.75;entryDx=0;entryDy=0;entryPerimeter=0;" parent="1" source="dYnM1GEBc4L6-Mky44I_-60" target="dYnM1GEBc4L6-Mky44I_-49" edge="1">
          <mxGeometry relative="1" as="geometry">
            <mxPoint x="735" y="510.0769230769233" as="targetPoint" />
            <mxPoint x="609" y="511.5" as="sourcePoint" />
            <Array as="points">
              <mxPoint y="532" />
              <mxPoint y="710" />
              <mxPoint x="532" y="710" />
              <mxPoint x="532" y="539" />
            </Array>
          </mxGeometry>
        </mxCell>
        <mxCell id="dYnM1GEBc4L6-Mky44I_-49" value="&lt;font style=&quot;font-size: 30px;&quot;&gt;CHI &lt;br&gt;System&lt;/font&gt;" style="rounded=1;whiteSpace=wrap;html=1;arcSize=18;fillColor=#B3B3B3;" parent="1" vertex="1">
          <mxGeometry x="853" y="417" width="200" height="163" as="geometry" />
        </mxCell>
        <mxCell id="dYnM1GEBc4L6-Mky44I_-50" style="edgeStyle=orthogonalEdgeStyle;rounded=0;orthogonalLoop=1;jettySize=auto;html=1;fontSize=13;strokeWidth=1;shape=flexArrow;startArrow=block;startFill=0;exitX=1.003;exitY=0.774;exitDx=0;exitDy=0;exitPerimeter=0;entryX=-0.002;entryY=0.631;entryDx=0;entryDy=0;entryPerimeter=0;" parent="1" source="dYnM1GEBc4L6-Mky44I_-46" target="dYnM1GEBc4L6-Mky44I_-49" edge="1">
          <mxGeometry relative="1" as="geometry">
            <mxPoint x="951.8000000000002" y="520.2500000000002" as="targetPoint" />
            <mxPoint x="618.9999999999995" y="520.4300000000001" as="sourcePoint" />
            <Array as="points" />
          </mxGeometry>
        </mxCell>
        <mxCell id="dYnM1GEBc4L6-Mky44I_-51" style="edgeStyle=orthogonalEdgeStyle;rounded=0;orthogonalLoop=1;jettySize=auto;html=1;fontSize=13;strokeWidth=1;shape=flexArrow;startArrow=block;startFill=0;exitX=0.994;exitY=0.664;exitDx=0;exitDy=0;exitPerimeter=0;" parent="1" source="dYnM1GEBc4L6-Mky44I_-46" target="dYnM1GEBc4L6-Mky44I_-49" edge="1">
          <mxGeometry relative="1" as="geometry">
            <mxPoint x="947.5999999999999" y="500.8530000000003" as="targetPoint" />
            <mxPoint x="619.4409999999998" y="501.1900000000003" as="sourcePoint" />
            <Array as="points" />
          </mxGeometry>
        </mxCell>
        <mxCell id="dYnM1GEBc4L6-Mky44I_-52" style="edgeStyle=orthogonalEdgeStyle;rounded=0;orthogonalLoop=1;jettySize=auto;html=1;fontSize=13;strokeWidth=1;shape=flexArrow;startArrow=block;startFill=0;exitX=1.003;exitY=0.556;exitDx=0;exitDy=0;exitPerimeter=0;entryX=0.007;entryY=0.377;entryDx=0;entryDy=0;entryPerimeter=0;" parent="1" source="dYnM1GEBc4L6-Mky44I_-46" target="dYnM1GEBc4L6-Mky44I_-49" edge="1">
          <mxGeometry relative="1" as="geometry">
            <mxPoint x="948" y="479.4893617021278" as="targetPoint" />
            <mxPoint x="620.7639999999997" y="481.21000000000004" as="sourcePoint" />
            <Array as="points" />
          </mxGeometry>
        </mxCell>
        <mxCell id="dYnM1GEBc4L6-Mky44I_-53" value="CHI-Channel&amp;nbsp;&lt;br&gt;Interface" style="text;html=1;align=center;verticalAlign=middle;resizable=0;points=[];autosize=1;strokeColor=none;fillColor=none;fontSize=30;" parent="1" vertex="1">
          <mxGeometry x="580" y="540" width="210" height="90" as="geometry" />
        </mxCell>
        <mxCell id="dYnM1GEBc4L6-Mky44I_-54" style="edgeStyle=orthogonalEdgeStyle;rounded=0;orthogonalLoop=1;jettySize=auto;html=1;fontSize=18;" parent="1" source="dYnM1GEBc4L6-Mky44I_-55" target="dYnM1GEBc4L6-Mky44I_-46" edge="1">
          <mxGeometry relative="1" as="geometry">
            <Array as="points">
              <mxPoint x="350" y="486" />
              <mxPoint x="350" y="486" />
            </Array>
          </mxGeometry>
        </mxCell>
        <mxCell id="dYnM1GEBc4L6-Mky44I_-55" value="&lt;font style=&quot;font-size: 18px;&quot;&gt;ReadyCHICon&lt;/font&gt;" style="text;html=1;align=center;verticalAlign=middle;resizable=0;points=[];autosize=1;strokeColor=none;fillColor=none;" parent="1" vertex="1">
          <mxGeometry x="184" y="466" width="140" height="40" as="geometry" />
        </mxCell>
        <mxCell id="dYnM1GEBc4L6-Mky44I_-56" value="&lt;span style=&quot;&quot;&gt;WE,Addr&lt;/span&gt;" style="text;html=1;align=center;verticalAlign=middle;resizable=0;points=[];autosize=1;strokeColor=none;fillColor=none;fontSize=18;" parent="1" vertex="1">
          <mxGeometry x="-155" y="146" width="100" height="40" as="geometry" />
        </mxCell>
        <mxCell id="dYnM1GEBc4L6-Mky44I_-57" value="&lt;b&gt;&lt;font style=&quot;font-size: 40px;&quot;&gt;DMA&lt;/font&gt;&lt;/b&gt;" style="text;html=1;align=center;verticalAlign=middle;resizable=0;points=[];autosize=1;strokeColor=none;fillColor=none;fontSize=18;" parent="1" vertex="1">
          <mxGeometry x="183" y="-120" width="110" height="60" as="geometry" />
        </mxCell>
        <mxCell id="dYnM1GEBc4L6-Mky44I_-58" style="edgeStyle=orthogonalEdgeStyle;rounded=0;orthogonalLoop=1;jettySize=auto;html=1;strokeWidth=5;fontSize=18;" parent="1" source="dYnM1GEBc4L6-Mky44I_-21" target="dYnM1GEBc4L6-Mky44I_-46" edge="1">
          <mxGeometry relative="1" as="geometry">
            <Array as="points">
              <mxPoint x="310" y="440" />
              <mxPoint x="310" y="440" />
            </Array>
            <mxPoint x="-632.9999999999945" y="312" as="targetPoint" />
            <mxPoint x="205" y="450" as="sourcePoint" />
          </mxGeometry>
        </mxCell>
        <mxCell id="dYnM1GEBc4L6-Mky44I_-59" style="edgeStyle=orthogonalEdgeStyle;rounded=0;orthogonalLoop=1;jettySize=auto;html=1;exitX=1;exitY=0.25;exitDx=0;exitDy=0;entryX=-0.015;entryY=0.847;entryDx=0;entryDy=0;entryPerimeter=0;fontSize=29;fillColor=#f8cecc;strokeColor=#000000;strokeWidth=3;" parent="1" source="dYnM1GEBc4L6-Mky44I_-60" target="dYnM1GEBc4L6-Mky44I_-46" edge="1">
          <mxGeometry relative="1" as="geometry" />
        </mxCell>
        <mxCell id="dYnM1GEBc4L6-Mky44I_-60" value="BS" style="rounded=0;whiteSpace=wrap;html=1;fontSize=31;fillColor=#F0F0F0;strokeColor=#000000;" parent="1" vertex="1">
          <mxGeometry x="52" y="490" width="140" height="170" as="geometry" />
        </mxCell>
        <mxCell id="dYnM1GEBc4L6-Mky44I_-61" value="&lt;font style=&quot;font-size: 23px;&quot;&gt;DataInbChannel&lt;/font&gt;" style="text;html=1;align=center;verticalAlign=middle;resizable=0;points=[];autosize=1;strokeColor=none;fillColor=none;fontSize=29;" parent="1" vertex="1">
          <mxGeometry x="257" y="667" width="190" height="50" as="geometry" />
        </mxCell>
        <mxCell id="dYnM1GEBc4L6-Mky44I_-62" style="edgeStyle=orthogonalEdgeStyle;rounded=0;orthogonalLoop=1;jettySize=auto;html=1;fontSize=18;" parent="1" source="dYnM1GEBc4L6-Mky44I_-63" target="dYnM1GEBc4L6-Mky44I_-7" edge="1">
          <mxGeometry relative="1" as="geometry">
            <mxPoint x="345" y="207.00000000000045" as="targetPoint" />
            <Array as="points">
              <mxPoint x="335" y="203" />
              <mxPoint x="335" y="203" />
            </Array>
          </mxGeometry>
        </mxCell>
        <mxCell id="dYnM1GEBc4L6-Mky44I_-63" value="&lt;font style=&quot;font-size: 18px;&quot;&gt;ReadySched&lt;/font&gt;" style="text;html=1;align=center;verticalAlign=middle;resizable=0;points=[];autosize=1;strokeColor=none;fillColor=none;" parent="1" vertex="1">
          <mxGeometry x="191" y="179" width="130" height="40" as="geometry" />
        </mxCell>
        <mxCell id="dYnM1GEBc4L6-Mky44I_-64" value="Command" style="text;html=1;align=center;verticalAlign=middle;resizable=0;points=[];autosize=1;strokeColor=none;fillColor=none;fontSize=18;" parent="1" vertex="1">
          <mxGeometry x="214" y="640" width="110" height="40" as="geometry" />
        </mxCell>
        <mxCell id="dYnM1GEBc4L6-Mky44I_-65" value="shiftedData&lt;br&gt;,FULL" style="text;html=1;align=center;verticalAlign=middle;resizable=0;points=[];autosize=1;strokeColor=none;fillColor=none;fontSize=23;" parent="1" vertex="1">
          <mxGeometry x="197" y="522" width="140" height="70" as="geometry" />
        </mxCell>
      </root>
    </mxGraphModel>
  </diagram>
  <diagram id="e8PBPTCcXduref0BjiUL" name="Σελίδα-5">
    <mxGraphModel dx="3667" dy="2547" grid="1" gridSize="10" guides="1" tooltips="1" connect="1" arrows="1" fold="1" page="1" pageScale="1" pageWidth="827" pageHeight="1169" math="0" shadow="0">
      <root>
        <mxCell id="0" />
        <mxCell id="1" parent="0" />
        <mxCell id="JAQQx48tu-I8qUgIg_et-1" value="" style="rounded=0;whiteSpace=wrap;html=1;fontSize=18;fillColor=#d5e8d4;strokeColor=#82b366;" parent="1" vertex="1">
          <mxGeometry x="-390" y="-50" width="1190" height="790" as="geometry" />
        </mxCell>
        <mxCell id="JAQQx48tu-I8qUgIg_et-2" style="edgeStyle=orthogonalEdgeStyle;rounded=0;orthogonalLoop=1;jettySize=auto;html=1;exitX=1;exitY=0.335;exitDx=0;exitDy=0;exitPerimeter=0;fontSize=18;entryX=0;entryY=0.25;entryDx=0;entryDy=0;" parent="1" source="JAQQx48tu-I8qUgIg_et-3" edge="1">
          <mxGeometry relative="1" as="geometry">
            <Array as="points">
              <mxPoint x="265" y="100" />
            </Array>
            <mxPoint x="361" y="100" as="targetPoint" />
          </mxGeometry>
        </mxCell>
        <mxCell id="JAQQx48tu-I8qUgIg_et-3" value="FIFO" style="rounded=0;whiteSpace=wrap;html=1;fontSize=18;" parent="1" vertex="1">
          <mxGeometry x="145" y="75" width="120" height="67" as="geometry" />
        </mxCell>
        <mxCell id="JAQQx48tu-I8qUgIg_et-4" style="edgeStyle=orthogonalEdgeStyle;rounded=0;orthogonalLoop=1;jettySize=auto;html=1;exitX=1;exitY=0.5;exitDx=0;exitDy=0;entryX=-0.003;entryY=0.367;entryDx=0;entryDy=0;entryPerimeter=0;fontSize=18;" parent="1" source="JAQQx48tu-I8qUgIg_et-7" target="JAQQx48tu-I8qUgIg_et-11" edge="1">
          <mxGeometry relative="1" as="geometry">
            <Array as="points">
              <mxPoint x="552" y="195" />
              <mxPoint x="552" y="-5" />
              <mxPoint x="-90" y="-5" />
              <mxPoint x="-90" y="131" />
            </Array>
          </mxGeometry>
        </mxCell>
        <mxCell id="JAQQx48tu-I8qUgIg_et-5" style="edgeStyle=orthogonalEdgeStyle;rounded=0;orthogonalLoop=1;jettySize=auto;html=1;exitX=1.014;exitY=0.11;exitDx=0;exitDy=0;entryX=0.25;entryY=0;entryDx=0;entryDy=0;exitPerimeter=0;fontSize=18;" parent="1" source="JAQQx48tu-I8qUgIg_et-7" target="JAQQx48tu-I8qUgIg_et-3" edge="1">
          <mxGeometry relative="1" as="geometry">
            <mxPoint x="435" y="195.99999999999977" as="sourcePoint" />
            <mxPoint x="265" y="196" as="targetPoint" />
            <Array as="points">
              <mxPoint x="503" y="106" />
              <mxPoint x="522" y="106" />
              <mxPoint x="522" y="55" />
              <mxPoint x="175" y="55" />
            </Array>
          </mxGeometry>
        </mxCell>
        <mxCell id="JAQQx48tu-I8qUgIg_et-6" style="edgeStyle=orthogonalEdgeStyle;rounded=0;orthogonalLoop=1;jettySize=auto;html=1;fontSize=18;entryX=0.5;entryY=0;entryDx=0;entryDy=0;strokeWidth=2;" parent="1" source="JAQQx48tu-I8qUgIg_et-7" target="JAQQx48tu-I8qUgIg_et-46" edge="1">
          <mxGeometry relative="1" as="geometry">
            <mxPoint x="718" y="203.09000000000015" as="targetPoint" />
            <mxPoint x="575" y="204" as="sourcePoint" />
            <Array as="points">
              <mxPoint x="429" y="300" />
              <mxPoint x="429" y="300" />
            </Array>
          </mxGeometry>
        </mxCell>
        <mxCell id="JAQQx48tu-I8qUgIg_et-7" value="Scheduler" style="rounded=0;whiteSpace=wrap;html=1;fontSize=31;fillColor=#dae8fc;strokeColor=#000000;strokeWidth=3;dashed=1;" parent="1" vertex="1">
          <mxGeometry x="361" y="85" width="149" height="175" as="geometry" />
        </mxCell>
        <mxCell id="JAQQx48tu-I8qUgIg_et-8" style="edgeStyle=orthogonalEdgeStyle;rounded=0;orthogonalLoop=1;jettySize=auto;html=1;exitX=1;exitY=0.5;exitDx=0;exitDy=0;entryX=0.006;entryY=0.363;entryDx=0;entryDy=0;entryPerimeter=0;fontSize=18;" parent="1" target="JAQQx48tu-I8qUgIg_et-3" edge="1">
          <mxGeometry relative="1" as="geometry">
            <mxPoint x="151.99999999999955" y="100" as="sourcePoint" />
          </mxGeometry>
        </mxCell>
        <mxCell id="JAQQx48tu-I8qUgIg_et-9" style="edgeStyle=orthogonalEdgeStyle;rounded=0;orthogonalLoop=1;jettySize=auto;html=1;exitX=0.998;exitY=0.378;exitDx=0;exitDy=0;entryX=-0.006;entryY=0.811;entryDx=0;entryDy=0;entryPerimeter=0;exitPerimeter=0;fontSize=18;" parent="1" source="JAQQx48tu-I8qUgIg_et-11" target="JAQQx48tu-I8qUgIg_et-3" edge="1">
          <mxGeometry relative="1" as="geometry">
            <mxPoint x="152" y="128" as="sourcePoint" />
            <mxPoint x="252.00000000000023" y="115.5" as="targetPoint" />
            <Array as="points">
              <mxPoint x="152" y="129" />
              <mxPoint x="251" y="129" />
            </Array>
          </mxGeometry>
        </mxCell>
        <mxCell id="JAQQx48tu-I8qUgIg_et-10" style="edgeStyle=orthogonalEdgeStyle;rounded=0;orthogonalLoop=1;jettySize=auto;html=1;entryX=0;entryY=0.75;entryDx=0;entryDy=0;strokeWidth=5;fontSize=18;" parent="1" source="JAQQx48tu-I8qUgIg_et-22" target="JAQQx48tu-I8qUgIg_et-27" edge="1">
          <mxGeometry relative="1" as="geometry">
            <mxPoint x="657" y="135" as="sourcePoint" />
            <Array as="points">
              <mxPoint x="-374" y="440" />
            </Array>
          </mxGeometry>
        </mxCell>
        <mxCell id="JAQQx48tu-I8qUgIg_et-11" value="Arbiter" style="rounded=0;whiteSpace=wrap;html=1;fontSize=18;" parent="1" vertex="1">
          <mxGeometry x="-65" y="92" width="110" height="105" as="geometry" />
        </mxCell>
        <mxCell id="JAQQx48tu-I8qUgIg_et-12" value="DescAddr" style="text;html=1;align=center;verticalAlign=middle;resizable=0;points=[];autosize=1;strokeColor=none;fillColor=none;fontSize=18;" parent="1" vertex="1">
          <mxGeometry x="39" y="101" width="100" height="40" as="geometry" />
        </mxCell>
        <mxCell id="JAQQx48tu-I8qUgIg_et-13" value="enqueue" style="text;html=1;align=center;verticalAlign=middle;resizable=0;points=[];autosize=1;strokeColor=none;fillColor=none;fontSize=18;" parent="1" vertex="1">
          <mxGeometry x="39" y="67" width="90" height="40" as="geometry" />
        </mxCell>
        <mxCell id="JAQQx48tu-I8qUgIg_et-14" style="edgeStyle=orthogonalEdgeStyle;rounded=0;orthogonalLoop=1;jettySize=auto;html=1;startArrow=none;fontSize=18;entryX=0.002;entryY=0.801;entryDx=0;entryDy=0;entryPerimeter=0;" parent="1" source="JAQQx48tu-I8qUgIg_et-37" target="JAQQx48tu-I8qUgIg_et-31" edge="1">
          <mxGeometry relative="1" as="geometry">
            <mxPoint x="109.99999999999955" y="244" as="targetPoint" />
            <Array as="points">
              <mxPoint x="-160" y="302" />
              <mxPoint x="-160" y="176" />
            </Array>
            <mxPoint x="-70" y="246" as="sourcePoint" />
          </mxGeometry>
        </mxCell>
        <mxCell id="JAQQx48tu-I8qUgIg_et-15" style="edgeStyle=orthogonalEdgeStyle;rounded=0;orthogonalLoop=1;jettySize=auto;html=1;strokeWidth=5;fontSize=18;entryX=0;entryY=0.25;entryDx=0;entryDy=0;exitX=1;exitY=0.5;exitDx=0;exitDy=0;" parent="1" source="JAQQx48tu-I8qUgIg_et-37" target="JAQQx48tu-I8qUgIg_et-21" edge="1">
          <mxGeometry relative="1" as="geometry">
            <mxPoint x="-492.00000000000045" y="264.00000000000045" as="sourcePoint" />
            <mxPoint x="230" y="291.25" as="targetPoint" />
            <Array as="points">
              <mxPoint x="-480" y="303" />
            </Array>
          </mxGeometry>
        </mxCell>
        <mxCell id="JAQQx48tu-I8qUgIg_et-16" value="DescAddrPointer , Vald" style="text;html=1;align=center;verticalAlign=middle;resizable=0;points=[];autosize=1;strokeColor=none;fillColor=none;fontSize=18;" parent="1" vertex="1">
          <mxGeometry x="181" y="-39" width="210" height="40" as="geometry" />
        </mxCell>
        <mxCell id="JAQQx48tu-I8qUgIg_et-17" value="FIFO_Out" style="text;html=1;align=center;verticalAlign=middle;resizable=0;points=[];autosize=1;strokeColor=none;fillColor=none;fontSize=18;" parent="1" vertex="1">
          <mxGeometry x="261" y="93" width="100" height="40" as="geometry" />
        </mxCell>
        <mxCell id="JAQQx48tu-I8qUgIg_et-18" value="dequeue" style="text;html=1;align=center;verticalAlign=middle;resizable=0;points=[];autosize=1;strokeColor=none;fillColor=none;fontSize=18;" parent="1" vertex="1">
          <mxGeometry x="315" y="20" width="90" height="40" as="geometry" />
        </mxCell>
        <mxCell id="JAQQx48tu-I8qUgIg_et-19" style="edgeStyle=orthogonalEdgeStyle;rounded=0;orthogonalLoop=1;jettySize=auto;html=1;strokeWidth=5;fontSize=18;" parent="1" source="JAQQx48tu-I8qUgIg_et-21" target="JAQQx48tu-I8qUgIg_et-7" edge="1">
          <mxGeometry relative="1" as="geometry">
            <Array as="points">
              <mxPoint x="310" y="440" />
              <mxPoint x="310" y="240" />
            </Array>
            <mxPoint x="195" y="285.0769230769233" as="sourcePoint" />
          </mxGeometry>
        </mxCell>
        <mxCell id="JAQQx48tu-I8qUgIg_et-20" style="edgeStyle=orthogonalEdgeStyle;rounded=0;orthogonalLoop=1;jettySize=auto;html=1;strokeWidth=5;fontSize=18;entryX=0;entryY=0.5;entryDx=0;entryDy=0;" parent="1" source="JAQQx48tu-I8qUgIg_et-21" target="JAQQx48tu-I8qUgIg_et-37" edge="1">
          <mxGeometry relative="1" as="geometry">
            <Array as="points">
              <mxPoint x="230" y="280" />
              <mxPoint x="230" y="220" />
              <mxPoint x="-570" y="220" />
              <mxPoint x="-570" y="302" />
              <mxPoint x="-539" y="302" />
            </Array>
            <mxPoint x="-165" y="222.25" as="targetPoint" />
          </mxGeometry>
        </mxCell>
        <mxCell id="JAQQx48tu-I8qUgIg_et-21" value="&lt;font style=&quot;font-size: 31px;&quot;&gt;Desc&lt;br&gt;BRAM&lt;/font&gt;" style="rounded=0;whiteSpace=wrap;html=1;fontSize=31;fillColor=#F0F0F0;" parent="1" vertex="1">
          <mxGeometry x="35" y="248" width="160" height="220" as="geometry" />
        </mxCell>
        <mxCell id="JAQQx48tu-I8qUgIg_et-22" value="Data,Val from Sched" style="text;html=1;align=center;verticalAlign=middle;resizable=0;points=[];autosize=1;strokeColor=none;fillColor=none;fontSize=18;" parent="1" vertex="1">
          <mxGeometry x="-393" y="417" width="190" height="40" as="geometry" />
        </mxCell>
        <mxCell id="JAQQx48tu-I8qUgIg_et-23" value="Data_out1" style="text;html=1;align=center;verticalAlign=middle;resizable=0;points=[];autosize=1;strokeColor=none;fillColor=none;fontSize=18;" parent="1" vertex="1">
          <mxGeometry x="127" y="216" width="110" height="40" as="geometry" />
        </mxCell>
        <mxCell id="JAQQx48tu-I8qUgIg_et-24" value="Data_out2" style="text;html=1;align=center;verticalAlign=middle;resizable=0;points=[];autosize=1;strokeColor=none;fillColor=none;fontSize=18;" parent="1" vertex="1">
          <mxGeometry x="184" y="406" width="110" height="40" as="geometry" />
        </mxCell>
        <mxCell id="JAQQx48tu-I8qUgIg_et-25" value="Command" style="text;html=1;align=center;verticalAlign=middle;resizable=0;points=[];autosize=1;strokeColor=none;fillColor=none;fontSize=18;" parent="1" vertex="1">
          <mxGeometry x="420" y="315" width="110" height="40" as="geometry" />
        </mxCell>
        <mxCell id="JAQQx48tu-I8qUgIg_et-26" style="edgeStyle=orthogonalEdgeStyle;rounded=0;orthogonalLoop=1;jettySize=auto;html=1;exitX=1;exitY=0.5;exitDx=0;exitDy=0;entryX=0;entryY=0.75;entryDx=0;entryDy=0;fontSize=18;strokeWidth=5;" parent="1" source="JAQQx48tu-I8qUgIg_et-27" target="JAQQx48tu-I8qUgIg_et-21" edge="1">
          <mxGeometry relative="1" as="geometry" />
        </mxCell>
        <mxCell id="JAQQx48tu-I8qUgIg_et-27" value="Arbiter" style="rounded=0;whiteSpace=wrap;html=1;fontSize=31;fillColor=#F2F2F2;" parent="1" vertex="1">
          <mxGeometry x="-155" y="361" width="110" height="105" as="geometry" />
        </mxCell>
        <mxCell id="JAQQx48tu-I8qUgIg_et-28" value="Arbiter" style="rounded=0;whiteSpace=wrap;html=1;fontSize=18;" parent="1" vertex="1">
          <mxGeometry x="-65" y="92" width="110" height="105" as="geometry" />
        </mxCell>
        <mxCell id="JAQQx48tu-I8qUgIg_et-29" value="FIFO" style="rounded=0;whiteSpace=wrap;html=1;fontSize=18;" parent="1" vertex="1">
          <mxGeometry x="145" y="75" width="120" height="67" as="geometry" />
        </mxCell>
        <mxCell id="JAQQx48tu-I8qUgIg_et-30" style="edgeStyle=orthogonalEdgeStyle;rounded=0;orthogonalLoop=1;jettySize=auto;html=1;" parent="1" source="JAQQx48tu-I8qUgIg_et-31" target="JAQQx48tu-I8qUgIg_et-7" edge="1">
          <mxGeometry relative="1" as="geometry">
            <mxPoint x="468" y="175.00000000000045" as="targetPoint" />
            <Array as="points">
              <mxPoint x="210" y="170" />
              <mxPoint x="210" y="170" />
            </Array>
          </mxGeometry>
        </mxCell>
        <mxCell id="JAQQx48tu-I8qUgIg_et-31" value="Arbiter" style="rounded=0;whiteSpace=wrap;html=1;fontSize=31;fillColor=#F2F2F2;" parent="1" vertex="1">
          <mxGeometry x="-65" y="92" width="110" height="105" as="geometry" />
        </mxCell>
        <mxCell id="JAQQx48tu-I8qUgIg_et-32" value="FIFO" style="rounded=0;whiteSpace=wrap;html=1;fontSize=31;fillColor=#F2F2F2;" parent="1" vertex="1">
          <mxGeometry x="145" y="75" width="120" height="67" as="geometry" />
        </mxCell>
        <mxCell id="JAQQx48tu-I8qUgIg_et-33" style="edgeStyle=orthogonalEdgeStyle;rounded=0;orthogonalLoop=1;jettySize=auto;html=1;fontSize=31;strokeWidth=5;entryX=0.011;entryY=0.339;entryDx=0;entryDy=0;entryPerimeter=0;" parent="1" source="JAQQx48tu-I8qUgIg_et-34" target="JAQQx48tu-I8qUgIg_et-27" edge="1">
          <mxGeometry relative="1" as="geometry">
            <mxPoint x="306" y="665" as="targetPoint" />
            <Array as="points">
              <mxPoint x="-364" y="397" />
              <mxPoint x="-364" y="397" />
            </Array>
          </mxGeometry>
        </mxCell>
        <mxCell id="JAQQx48tu-I8qUgIg_et-34" value="&lt;font style=&quot;font-size: 17px;&quot;&gt;Data,Val from CHI-Conv&lt;/font&gt;" style="text;html=1;align=center;verticalAlign=middle;resizable=0;points=[];autosize=1;strokeColor=none;fillColor=none;fontSize=16;" parent="1" vertex="1">
          <mxGeometry x="-400" y="376" width="210" height="30" as="geometry" />
        </mxCell>
        <mxCell id="JAQQx48tu-I8qUgIg_et-35" style="edgeStyle=orthogonalEdgeStyle;rounded=0;orthogonalLoop=1;jettySize=auto;html=1;fontSize=31;strokeWidth=5;" parent="1" source="JAQQx48tu-I8qUgIg_et-7" target="JAQQx48tu-I8qUgIg_et-36" edge="1">
          <mxGeometry relative="1" as="geometry">
            <mxPoint x="511" y="238.74500000000026" as="sourcePoint" />
            <mxPoint x="571" y="239" as="targetPoint" />
            <Array as="points">
              <mxPoint x="530" y="240" />
              <mxPoint x="530" y="240" />
            </Array>
          </mxGeometry>
        </mxCell>
        <mxCell id="JAQQx48tu-I8qUgIg_et-36" value="Data from Sched for BRAM" style="text;html=1;align=center;verticalAlign=middle;resizable=0;points=[];autosize=1;strokeColor=none;fillColor=none;fontSize=18;" parent="1" vertex="1">
          <mxGeometry x="560" y="220" width="240" height="40" as="geometry" />
        </mxCell>
        <mxCell id="JAQQx48tu-I8qUgIg_et-37" value="&lt;font style=&quot;font-size: 31px;&quot;&gt;CPU&lt;br&gt;&lt;/font&gt;" style="ellipse;whiteSpace=wrap;html=1;aspect=fixed;fontSize=16;fillColor=#B3B3B3;" parent="1" vertex="1">
          <mxGeometry x="-525" y="244" width="118" height="118" as="geometry" />
        </mxCell>
        <mxCell id="JAQQx48tu-I8qUgIg_et-38" value="&lt;font style=&quot;font-size: 18px;&quot;&gt;Ready&lt;/font&gt;" style="text;html=1;align=center;verticalAlign=middle;resizable=0;points=[];autosize=1;strokeColor=none;fillColor=none;" parent="1" vertex="1">
          <mxGeometry x="165" y="141" width="80" height="40" as="geometry" />
        </mxCell>
        <mxCell id="JAQQx48tu-I8qUgIg_et-39" style="edgeStyle=orthogonalEdgeStyle;rounded=0;orthogonalLoop=1;jettySize=auto;html=1;fontSize=18;exitX=0.75;exitY=1;exitDx=0;exitDy=0;" parent="1" source="JAQQx48tu-I8qUgIg_et-27" target="JAQQx48tu-I8qUgIg_et-40" edge="1">
          <mxGeometry relative="1" as="geometry" />
        </mxCell>
        <mxCell id="JAQQx48tu-I8qUgIg_et-40" value="&lt;font style=&quot;font-size: 18px;&quot;&gt;ReadySched&lt;/font&gt;" style="text;html=1;align=center;verticalAlign=middle;resizable=0;points=[];autosize=1;strokeColor=none;fillColor=none;" parent="1" vertex="1">
          <mxGeometry x="-138" y="528" width="130" height="40" as="geometry" />
        </mxCell>
        <mxCell id="JAQQx48tu-I8qUgIg_et-41" style="edgeStyle=orthogonalEdgeStyle;rounded=0;orthogonalLoop=1;jettySize=auto;html=1;fontSize=18;" parent="1" source="JAQQx48tu-I8qUgIg_et-27" target="JAQQx48tu-I8qUgIg_et-42" edge="1">
          <mxGeometry relative="1" as="geometry">
            <Array as="points">
              <mxPoint x="-120" y="480" />
              <mxPoint x="-120" y="480" />
            </Array>
          </mxGeometry>
        </mxCell>
        <mxCell id="JAQQx48tu-I8qUgIg_et-42" value="&lt;font style=&quot;font-size: 18px;&quot;&gt;ReadyCHICon&lt;/font&gt;" style="text;html=1;align=center;verticalAlign=middle;resizable=0;points=[];autosize=1;strokeColor=none;fillColor=none;" parent="1" vertex="1">
          <mxGeometry x="-214" y="493" width="140" height="40" as="geometry" />
        </mxCell>
        <mxCell id="JAQQx48tu-I8qUgIg_et-43" style="edgeStyle=orthogonalEdgeStyle;rounded=0;orthogonalLoop=1;jettySize=auto;html=1;fontSize=17;strokeWidth=5;" parent="1" source="JAQQx48tu-I8qUgIg_et-46" target="JAQQx48tu-I8qUgIg_et-47" edge="1">
          <mxGeometry relative="1" as="geometry">
            <Array as="points">
              <mxPoint x="512" y="404" />
              <mxPoint x="512" y="404" />
            </Array>
          </mxGeometry>
        </mxCell>
        <mxCell id="JAQQx48tu-I8qUgIg_et-44" style="edgeStyle=orthogonalEdgeStyle;rounded=0;orthogonalLoop=1;jettySize=auto;html=1;exitX=0.994;exitY=0.428;exitDx=0;exitDy=0;fontSize=13;strokeWidth=1;shape=flexArrow;startArrow=block;startFill=0;entryX=-0.002;entryY=0.235;entryDx=0;entryDy=0;exitPerimeter=0;entryPerimeter=0;" parent="1" source="JAQQx48tu-I8qUgIg_et-46" target="JAQQx48tu-I8qUgIg_et-49" edge="1">
          <mxGeometry relative="1" as="geometry">
            <mxPoint x="734" y="441" as="targetPoint" />
            <mxPoint x="608.9999999999995" y="441.5" as="sourcePoint" />
            <Array as="points" />
          </mxGeometry>
        </mxCell>
        <mxCell id="JAQQx48tu-I8qUgIg_et-45" style="edgeStyle=orthogonalEdgeStyle;rounded=0;orthogonalLoop=1;jettySize=auto;html=1;exitX=0.5;exitY=1;exitDx=0;exitDy=0;entryX=0;entryY=0.75;entryDx=0;entryDy=0;strokeWidth=1;fontSize=29;" parent="1" source="JAQQx48tu-I8qUgIg_et-46" target="JAQQx48tu-I8qUgIg_et-60" edge="1">
          <mxGeometry relative="1" as="geometry">
            <Array as="points">
              <mxPoint x="428" y="670" />
              <mxPoint x="32" y="670" />
              <mxPoint x="32" y="618" />
            </Array>
          </mxGeometry>
        </mxCell>
        <mxCell id="JAQQx48tu-I8qUgIg_et-46" value="CHI-Conv" style="rounded=0;whiteSpace=wrap;html=1;fontSize=31;fillColor=#F0F0F0;strokeColor=#000000;" parent="1" vertex="1">
          <mxGeometry x="355" y="376" width="147" height="185" as="geometry" />
        </mxCell>
        <mxCell id="JAQQx48tu-I8qUgIg_et-47" value="&lt;font style=&quot;font-size: 17px;&quot;&gt;Data from CHI-Conv for BRAM&lt;/font&gt;" style="text;html=1;align=center;verticalAlign=middle;resizable=0;points=[];autosize=1;strokeColor=none;fillColor=none;fontSize=16;" parent="1" vertex="1">
          <mxGeometry x="552" y="389" width="260" height="30" as="geometry" />
        </mxCell>
        <mxCell id="JAQQx48tu-I8qUgIg_et-48" style="edgeStyle=orthogonalEdgeStyle;rounded=0;orthogonalLoop=1;jettySize=auto;html=1;fontSize=13;strokeWidth=1;shape=flexArrow;startArrow=block;startFill=0;exitX=0;exitY=0.25;exitDx=0;exitDy=0;entryX=0.019;entryY=0.75;entryDx=0;entryDy=0;entryPerimeter=0;" parent="1" source="JAQQx48tu-I8qUgIg_et-60" target="JAQQx48tu-I8qUgIg_et-49" edge="1">
          <mxGeometry relative="1" as="geometry">
            <mxPoint x="735" y="510.0769230769233" as="targetPoint" />
            <mxPoint x="609" y="511.5" as="sourcePoint" />
            <Array as="points">
              <mxPoint y="532" />
              <mxPoint y="710" />
              <mxPoint x="532" y="710" />
              <mxPoint x="532" y="539" />
            </Array>
          </mxGeometry>
        </mxCell>
        <mxCell id="JAQQx48tu-I8qUgIg_et-49" value="&lt;font style=&quot;font-size: 30px;&quot;&gt;CHI &lt;br&gt;System&lt;/font&gt;" style="rounded=1;whiteSpace=wrap;html=1;arcSize=18;fillColor=#B3B3B3;" parent="1" vertex="1">
          <mxGeometry x="853" y="417" width="200" height="163" as="geometry" />
        </mxCell>
        <mxCell id="JAQQx48tu-I8qUgIg_et-50" style="edgeStyle=orthogonalEdgeStyle;rounded=0;orthogonalLoop=1;jettySize=auto;html=1;fontSize=13;strokeWidth=1;shape=flexArrow;startArrow=block;startFill=0;exitX=1.003;exitY=0.774;exitDx=0;exitDy=0;exitPerimeter=0;entryX=-0.002;entryY=0.631;entryDx=0;entryDy=0;entryPerimeter=0;" parent="1" source="JAQQx48tu-I8qUgIg_et-46" target="JAQQx48tu-I8qUgIg_et-49" edge="1">
          <mxGeometry relative="1" as="geometry">
            <mxPoint x="951.8000000000002" y="520.2500000000002" as="targetPoint" />
            <mxPoint x="618.9999999999995" y="520.4300000000001" as="sourcePoint" />
            <Array as="points" />
          </mxGeometry>
        </mxCell>
        <mxCell id="JAQQx48tu-I8qUgIg_et-51" style="edgeStyle=orthogonalEdgeStyle;rounded=0;orthogonalLoop=1;jettySize=auto;html=1;fontSize=13;strokeWidth=1;shape=flexArrow;startArrow=block;startFill=0;exitX=0.994;exitY=0.664;exitDx=0;exitDy=0;exitPerimeter=0;" parent="1" source="JAQQx48tu-I8qUgIg_et-46" target="JAQQx48tu-I8qUgIg_et-49" edge="1">
          <mxGeometry relative="1" as="geometry">
            <mxPoint x="947.5999999999999" y="500.8530000000003" as="targetPoint" />
            <mxPoint x="619.4409999999998" y="501.1900000000003" as="sourcePoint" />
            <Array as="points" />
          </mxGeometry>
        </mxCell>
        <mxCell id="JAQQx48tu-I8qUgIg_et-52" style="edgeStyle=orthogonalEdgeStyle;rounded=0;orthogonalLoop=1;jettySize=auto;html=1;fontSize=13;strokeWidth=1;shape=flexArrow;startArrow=block;startFill=0;exitX=1.003;exitY=0.556;exitDx=0;exitDy=0;exitPerimeter=0;entryX=0.007;entryY=0.377;entryDx=0;entryDy=0;entryPerimeter=0;" parent="1" source="JAQQx48tu-I8qUgIg_et-46" target="JAQQx48tu-I8qUgIg_et-49" edge="1">
          <mxGeometry relative="1" as="geometry">
            <mxPoint x="948" y="479.4893617021278" as="targetPoint" />
            <mxPoint x="620.7639999999997" y="481.21000000000004" as="sourcePoint" />
            <Array as="points" />
          </mxGeometry>
        </mxCell>
        <mxCell id="JAQQx48tu-I8qUgIg_et-53" value="CHI-Channel&amp;nbsp;&lt;br&gt;Interface" style="text;html=1;align=center;verticalAlign=middle;resizable=0;points=[];autosize=1;strokeColor=none;fillColor=none;fontSize=30;" parent="1" vertex="1">
          <mxGeometry x="580" y="540" width="210" height="90" as="geometry" />
        </mxCell>
        <mxCell id="JAQQx48tu-I8qUgIg_et-54" style="edgeStyle=orthogonalEdgeStyle;rounded=0;orthogonalLoop=1;jettySize=auto;html=1;fontSize=18;" parent="1" source="JAQQx48tu-I8qUgIg_et-55" target="JAQQx48tu-I8qUgIg_et-46" edge="1">
          <mxGeometry relative="1" as="geometry">
            <Array as="points">
              <mxPoint x="350" y="486" />
              <mxPoint x="350" y="486" />
            </Array>
          </mxGeometry>
        </mxCell>
        <mxCell id="JAQQx48tu-I8qUgIg_et-55" value="&lt;font style=&quot;font-size: 18px;&quot;&gt;ReadyCHICon&lt;/font&gt;" style="text;html=1;align=center;verticalAlign=middle;resizable=0;points=[];autosize=1;strokeColor=none;fillColor=none;" parent="1" vertex="1">
          <mxGeometry x="184" y="466" width="140" height="40" as="geometry" />
        </mxCell>
        <mxCell id="JAQQx48tu-I8qUgIg_et-56" value="&lt;span style=&quot;&quot;&gt;WE,Addr&lt;/span&gt;" style="text;html=1;align=center;verticalAlign=middle;resizable=0;points=[];autosize=1;strokeColor=none;fillColor=none;fontSize=18;" parent="1" vertex="1">
          <mxGeometry x="-155" y="146" width="100" height="40" as="geometry" />
        </mxCell>
        <mxCell id="JAQQx48tu-I8qUgIg_et-57" value="&lt;b&gt;&lt;font style=&quot;font-size: 40px;&quot;&gt;DMA&lt;/font&gt;&lt;/b&gt;" style="text;html=1;align=center;verticalAlign=middle;resizable=0;points=[];autosize=1;strokeColor=none;fillColor=none;fontSize=18;" parent="1" vertex="1">
          <mxGeometry x="183" y="-120" width="110" height="60" as="geometry" />
        </mxCell>
        <mxCell id="JAQQx48tu-I8qUgIg_et-58" style="edgeStyle=orthogonalEdgeStyle;rounded=0;orthogonalLoop=1;jettySize=auto;html=1;strokeWidth=5;fontSize=18;" parent="1" source="JAQQx48tu-I8qUgIg_et-21" target="JAQQx48tu-I8qUgIg_et-46" edge="1">
          <mxGeometry relative="1" as="geometry">
            <Array as="points">
              <mxPoint x="310" y="440" />
              <mxPoint x="310" y="440" />
            </Array>
            <mxPoint x="-632.9999999999945" y="312" as="targetPoint" />
            <mxPoint x="205" y="450" as="sourcePoint" />
          </mxGeometry>
        </mxCell>
        <mxCell id="JAQQx48tu-I8qUgIg_et-59" style="edgeStyle=orthogonalEdgeStyle;rounded=0;orthogonalLoop=1;jettySize=auto;html=1;exitX=1;exitY=0.25;exitDx=0;exitDy=0;entryX=-0.015;entryY=0.847;entryDx=0;entryDy=0;entryPerimeter=0;fontSize=29;fillColor=#f8cecc;strokeColor=#000000;strokeWidth=3;" parent="1" source="JAQQx48tu-I8qUgIg_et-60" target="JAQQx48tu-I8qUgIg_et-46" edge="1">
          <mxGeometry relative="1" as="geometry" />
        </mxCell>
        <mxCell id="JAQQx48tu-I8qUgIg_et-60" value="BS" style="rounded=0;whiteSpace=wrap;html=1;fontSize=31;fillColor=#F0F0F0;strokeColor=#000000;" parent="1" vertex="1">
          <mxGeometry x="52" y="490" width="140" height="170" as="geometry" />
        </mxCell>
        <mxCell id="JAQQx48tu-I8qUgIg_et-61" value="&lt;font style=&quot;font-size: 23px;&quot;&gt;DataInbChannel&lt;/font&gt;" style="text;html=1;align=center;verticalAlign=middle;resizable=0;points=[];autosize=1;strokeColor=none;fillColor=none;fontSize=29;" parent="1" vertex="1">
          <mxGeometry x="257" y="667" width="190" height="50" as="geometry" />
        </mxCell>
        <mxCell id="JAQQx48tu-I8qUgIg_et-62" style="edgeStyle=orthogonalEdgeStyle;rounded=0;orthogonalLoop=1;jettySize=auto;html=1;fontSize=18;" parent="1" source="JAQQx48tu-I8qUgIg_et-63" target="JAQQx48tu-I8qUgIg_et-7" edge="1">
          <mxGeometry relative="1" as="geometry">
            <mxPoint x="345" y="207.00000000000045" as="targetPoint" />
            <Array as="points">
              <mxPoint x="335" y="203" />
              <mxPoint x="335" y="203" />
            </Array>
          </mxGeometry>
        </mxCell>
        <mxCell id="JAQQx48tu-I8qUgIg_et-63" value="&lt;font style=&quot;font-size: 18px;&quot;&gt;ReadySched&lt;/font&gt;" style="text;html=1;align=center;verticalAlign=middle;resizable=0;points=[];autosize=1;strokeColor=none;fillColor=none;" parent="1" vertex="1">
          <mxGeometry x="191" y="179" width="130" height="40" as="geometry" />
        </mxCell>
        <mxCell id="JAQQx48tu-I8qUgIg_et-64" value="Command" style="text;html=1;align=center;verticalAlign=middle;resizable=0;points=[];autosize=1;strokeColor=none;fillColor=none;fontSize=18;" parent="1" vertex="1">
          <mxGeometry x="214" y="640" width="110" height="40" as="geometry" />
        </mxCell>
        <mxCell id="JAQQx48tu-I8qUgIg_et-65" value="shiftedData&lt;br&gt;,FULL" style="text;html=1;align=center;verticalAlign=middle;resizable=0;points=[];autosize=1;strokeColor=none;fillColor=none;fontSize=23;" parent="1" vertex="1">
          <mxGeometry x="197" y="522" width="140" height="70" as="geometry" />
        </mxCell>
      </root>
    </mxGraphModel>
  </diagram>
  <diagram id="wquDnpGldBk2n3KyLpnj" name="Σελίδα-6">
    <mxGraphModel dx="2389" dy="1927" grid="1" gridSize="10" guides="1" tooltips="1" connect="1" arrows="1" fold="1" page="1" pageScale="1" pageWidth="827" pageHeight="1169" math="0" shadow="0">
      <root>
        <mxCell id="0" />
        <mxCell id="1" parent="0" />
        <mxCell id="_AMhWy7YSz8iYAP9jkhe-1" value="" style="rounded=0;whiteSpace=wrap;html=1;fontSize=18;fillColor=#d5e8d4;strokeColor=#82b366;" vertex="1" parent="1">
          <mxGeometry x="-390" y="-50" width="1190" height="790" as="geometry" />
        </mxCell>
        <mxCell id="_AMhWy7YSz8iYAP9jkhe-2" style="edgeStyle=orthogonalEdgeStyle;rounded=0;orthogonalLoop=1;jettySize=auto;html=1;exitX=1;exitY=0.335;exitDx=0;exitDy=0;exitPerimeter=0;fontSize=18;entryX=0;entryY=0.25;entryDx=0;entryDy=0;" edge="1" parent="1" source="_AMhWy7YSz8iYAP9jkhe-3">
          <mxGeometry relative="1" as="geometry">
            <Array as="points">
              <mxPoint x="265" y="100" />
            </Array>
            <mxPoint x="361" y="100" as="targetPoint" />
          </mxGeometry>
        </mxCell>
        <mxCell id="_AMhWy7YSz8iYAP9jkhe-3" value="FIFO" style="rounded=0;whiteSpace=wrap;html=1;fontSize=18;" vertex="1" parent="1">
          <mxGeometry x="145" y="75" width="120" height="67" as="geometry" />
        </mxCell>
        <mxCell id="_AMhWy7YSz8iYAP9jkhe-4" style="edgeStyle=orthogonalEdgeStyle;rounded=0;orthogonalLoop=1;jettySize=auto;html=1;exitX=1;exitY=0.5;exitDx=0;exitDy=0;entryX=-0.003;entryY=0.367;entryDx=0;entryDy=0;entryPerimeter=0;fontSize=18;" edge="1" parent="1" source="_AMhWy7YSz8iYAP9jkhe-7" target="_AMhWy7YSz8iYAP9jkhe-11">
          <mxGeometry relative="1" as="geometry">
            <Array as="points">
              <mxPoint x="552" y="195" />
              <mxPoint x="552" y="-5" />
              <mxPoint x="-90" y="-5" />
              <mxPoint x="-90" y="131" />
            </Array>
          </mxGeometry>
        </mxCell>
        <mxCell id="_AMhWy7YSz8iYAP9jkhe-5" style="edgeStyle=orthogonalEdgeStyle;rounded=0;orthogonalLoop=1;jettySize=auto;html=1;exitX=1.014;exitY=0.11;exitDx=0;exitDy=0;entryX=0.25;entryY=0;entryDx=0;entryDy=0;exitPerimeter=0;fontSize=18;" edge="1" parent="1" source="_AMhWy7YSz8iYAP9jkhe-7" target="_AMhWy7YSz8iYAP9jkhe-3">
          <mxGeometry relative="1" as="geometry">
            <mxPoint x="435" y="195.99999999999977" as="sourcePoint" />
            <mxPoint x="265" y="196" as="targetPoint" />
            <Array as="points">
              <mxPoint x="503" y="106" />
              <mxPoint x="522" y="106" />
              <mxPoint x="522" y="55" />
              <mxPoint x="175" y="55" />
            </Array>
          </mxGeometry>
        </mxCell>
        <mxCell id="_AMhWy7YSz8iYAP9jkhe-6" style="edgeStyle=orthogonalEdgeStyle;rounded=0;orthogonalLoop=1;jettySize=auto;html=1;fontSize=18;entryX=0.5;entryY=0;entryDx=0;entryDy=0;strokeWidth=2;" edge="1" parent="1" source="_AMhWy7YSz8iYAP9jkhe-7" target="_AMhWy7YSz8iYAP9jkhe-46">
          <mxGeometry relative="1" as="geometry">
            <mxPoint x="718" y="203.09000000000015" as="targetPoint" />
            <mxPoint x="575" y="204" as="sourcePoint" />
            <Array as="points">
              <mxPoint x="429" y="300" />
              <mxPoint x="429" y="300" />
            </Array>
          </mxGeometry>
        </mxCell>
        <mxCell id="_AMhWy7YSz8iYAP9jkhe-7" value="Scheduler" style="rounded=0;whiteSpace=wrap;html=1;fontSize=31;fillColor=#F0F0F0;strokeColor=#000000;" vertex="1" parent="1">
          <mxGeometry x="361" y="85" width="149" height="175" as="geometry" />
        </mxCell>
        <mxCell id="_AMhWy7YSz8iYAP9jkhe-8" style="edgeStyle=orthogonalEdgeStyle;rounded=0;orthogonalLoop=1;jettySize=auto;html=1;exitX=1;exitY=0.5;exitDx=0;exitDy=0;entryX=0.006;entryY=0.363;entryDx=0;entryDy=0;entryPerimeter=0;fontSize=18;" edge="1" parent="1" target="_AMhWy7YSz8iYAP9jkhe-3">
          <mxGeometry relative="1" as="geometry">
            <mxPoint x="151.99999999999955" y="100" as="sourcePoint" />
          </mxGeometry>
        </mxCell>
        <mxCell id="_AMhWy7YSz8iYAP9jkhe-9" style="edgeStyle=orthogonalEdgeStyle;rounded=0;orthogonalLoop=1;jettySize=auto;html=1;exitX=0.998;exitY=0.378;exitDx=0;exitDy=0;entryX=-0.006;entryY=0.811;entryDx=0;entryDy=0;entryPerimeter=0;exitPerimeter=0;fontSize=18;" edge="1" parent="1" source="_AMhWy7YSz8iYAP9jkhe-11" target="_AMhWy7YSz8iYAP9jkhe-3">
          <mxGeometry relative="1" as="geometry">
            <mxPoint x="152" y="128" as="sourcePoint" />
            <mxPoint x="252.00000000000023" y="115.5" as="targetPoint" />
            <Array as="points">
              <mxPoint x="152" y="129" />
              <mxPoint x="251" y="129" />
            </Array>
          </mxGeometry>
        </mxCell>
        <mxCell id="_AMhWy7YSz8iYAP9jkhe-10" style="edgeStyle=orthogonalEdgeStyle;rounded=0;orthogonalLoop=1;jettySize=auto;html=1;entryX=0;entryY=0.75;entryDx=0;entryDy=0;strokeWidth=5;fontSize=18;" edge="1" parent="1" source="_AMhWy7YSz8iYAP9jkhe-22" target="_AMhWy7YSz8iYAP9jkhe-27">
          <mxGeometry relative="1" as="geometry">
            <mxPoint x="657" y="135" as="sourcePoint" />
            <Array as="points">
              <mxPoint x="-374" y="440" />
            </Array>
          </mxGeometry>
        </mxCell>
        <mxCell id="_AMhWy7YSz8iYAP9jkhe-11" value="Arbiter" style="rounded=0;whiteSpace=wrap;html=1;fontSize=18;" vertex="1" parent="1">
          <mxGeometry x="-65" y="92" width="110" height="105" as="geometry" />
        </mxCell>
        <mxCell id="_AMhWy7YSz8iYAP9jkhe-12" value="DescAddr" style="text;html=1;align=center;verticalAlign=middle;resizable=0;points=[];autosize=1;strokeColor=none;fillColor=none;fontSize=18;" vertex="1" parent="1">
          <mxGeometry x="39" y="101" width="100" height="40" as="geometry" />
        </mxCell>
        <mxCell id="_AMhWy7YSz8iYAP9jkhe-13" value="enqueue" style="text;html=1;align=center;verticalAlign=middle;resizable=0;points=[];autosize=1;strokeColor=none;fillColor=none;fontSize=18;" vertex="1" parent="1">
          <mxGeometry x="39" y="67" width="90" height="40" as="geometry" />
        </mxCell>
        <mxCell id="_AMhWy7YSz8iYAP9jkhe-14" style="edgeStyle=orthogonalEdgeStyle;rounded=0;orthogonalLoop=1;jettySize=auto;html=1;startArrow=none;fontSize=18;entryX=0.002;entryY=0.801;entryDx=0;entryDy=0;entryPerimeter=0;" edge="1" parent="1" source="_AMhWy7YSz8iYAP9jkhe-37" target="_AMhWy7YSz8iYAP9jkhe-31">
          <mxGeometry relative="1" as="geometry">
            <mxPoint x="109.99999999999955" y="244" as="targetPoint" />
            <Array as="points">
              <mxPoint x="-160" y="302" />
              <mxPoint x="-160" y="176" />
            </Array>
            <mxPoint x="-70" y="246" as="sourcePoint" />
          </mxGeometry>
        </mxCell>
        <mxCell id="_AMhWy7YSz8iYAP9jkhe-15" style="edgeStyle=orthogonalEdgeStyle;rounded=0;orthogonalLoop=1;jettySize=auto;html=1;strokeWidth=5;fontSize=18;entryX=0;entryY=0.25;entryDx=0;entryDy=0;exitX=1;exitY=0.5;exitDx=0;exitDy=0;" edge="1" parent="1" source="_AMhWy7YSz8iYAP9jkhe-37" target="_AMhWy7YSz8iYAP9jkhe-21">
          <mxGeometry relative="1" as="geometry">
            <mxPoint x="-492.00000000000045" y="264.00000000000045" as="sourcePoint" />
            <mxPoint x="230" y="291.25" as="targetPoint" />
            <Array as="points">
              <mxPoint x="-480" y="303" />
            </Array>
          </mxGeometry>
        </mxCell>
        <mxCell id="_AMhWy7YSz8iYAP9jkhe-16" value="DescAddrPointer , Vald" style="text;html=1;align=center;verticalAlign=middle;resizable=0;points=[];autosize=1;strokeColor=none;fillColor=none;fontSize=18;" vertex="1" parent="1">
          <mxGeometry x="181" y="-39" width="210" height="40" as="geometry" />
        </mxCell>
        <mxCell id="_AMhWy7YSz8iYAP9jkhe-17" value="FIFO_Out" style="text;html=1;align=center;verticalAlign=middle;resizable=0;points=[];autosize=1;strokeColor=none;fillColor=none;fontSize=18;" vertex="1" parent="1">
          <mxGeometry x="261" y="93" width="100" height="40" as="geometry" />
        </mxCell>
        <mxCell id="_AMhWy7YSz8iYAP9jkhe-18" value="dequeue" style="text;html=1;align=center;verticalAlign=middle;resizable=0;points=[];autosize=1;strokeColor=none;fillColor=none;fontSize=18;" vertex="1" parent="1">
          <mxGeometry x="315" y="20" width="90" height="40" as="geometry" />
        </mxCell>
        <mxCell id="_AMhWy7YSz8iYAP9jkhe-19" style="edgeStyle=orthogonalEdgeStyle;rounded=0;orthogonalLoop=1;jettySize=auto;html=1;strokeWidth=5;fontSize=18;" edge="1" parent="1" source="_AMhWy7YSz8iYAP9jkhe-21" target="_AMhWy7YSz8iYAP9jkhe-7">
          <mxGeometry relative="1" as="geometry">
            <Array as="points">
              <mxPoint x="310" y="440" />
              <mxPoint x="310" y="240" />
            </Array>
            <mxPoint x="195" y="285.0769230769233" as="sourcePoint" />
          </mxGeometry>
        </mxCell>
        <mxCell id="_AMhWy7YSz8iYAP9jkhe-20" style="edgeStyle=orthogonalEdgeStyle;rounded=0;orthogonalLoop=1;jettySize=auto;html=1;strokeWidth=5;fontSize=18;entryX=0;entryY=0.5;entryDx=0;entryDy=0;" edge="1" parent="1" source="_AMhWy7YSz8iYAP9jkhe-21" target="_AMhWy7YSz8iYAP9jkhe-37">
          <mxGeometry relative="1" as="geometry">
            <Array as="points">
              <mxPoint x="230" y="280" />
              <mxPoint x="230" y="220" />
              <mxPoint x="-570" y="220" />
              <mxPoint x="-570" y="302" />
              <mxPoint x="-539" y="302" />
            </Array>
            <mxPoint x="-165" y="222.25" as="targetPoint" />
          </mxGeometry>
        </mxCell>
        <mxCell id="_AMhWy7YSz8iYAP9jkhe-21" value="&lt;font style=&quot;font-size: 31px;&quot;&gt;Desc&lt;br&gt;BRAM&lt;/font&gt;" style="rounded=0;whiteSpace=wrap;html=1;fontSize=31;fillColor=#F0F0F0;" vertex="1" parent="1">
          <mxGeometry x="35" y="248" width="160" height="220" as="geometry" />
        </mxCell>
        <mxCell id="_AMhWy7YSz8iYAP9jkhe-22" value="Data,Val from Sched" style="text;html=1;align=center;verticalAlign=middle;resizable=0;points=[];autosize=1;strokeColor=none;fillColor=none;fontSize=18;" vertex="1" parent="1">
          <mxGeometry x="-393" y="417" width="190" height="40" as="geometry" />
        </mxCell>
        <mxCell id="_AMhWy7YSz8iYAP9jkhe-23" value="Data_out1" style="text;html=1;align=center;verticalAlign=middle;resizable=0;points=[];autosize=1;strokeColor=none;fillColor=none;fontSize=18;" vertex="1" parent="1">
          <mxGeometry x="127" y="216" width="110" height="40" as="geometry" />
        </mxCell>
        <mxCell id="_AMhWy7YSz8iYAP9jkhe-24" value="Data_out2" style="text;html=1;align=center;verticalAlign=middle;resizable=0;points=[];autosize=1;strokeColor=none;fillColor=none;fontSize=18;" vertex="1" parent="1">
          <mxGeometry x="184" y="406" width="110" height="40" as="geometry" />
        </mxCell>
        <mxCell id="_AMhWy7YSz8iYAP9jkhe-25" value="Command" style="text;html=1;align=center;verticalAlign=middle;resizable=0;points=[];autosize=1;strokeColor=none;fillColor=none;fontSize=18;" vertex="1" parent="1">
          <mxGeometry x="420" y="315" width="110" height="40" as="geometry" />
        </mxCell>
        <mxCell id="_AMhWy7YSz8iYAP9jkhe-26" style="edgeStyle=orthogonalEdgeStyle;rounded=0;orthogonalLoop=1;jettySize=auto;html=1;exitX=1;exitY=0.5;exitDx=0;exitDy=0;entryX=0;entryY=0.75;entryDx=0;entryDy=0;fontSize=18;strokeWidth=5;" edge="1" parent="1" source="_AMhWy7YSz8iYAP9jkhe-27" target="_AMhWy7YSz8iYAP9jkhe-21">
          <mxGeometry relative="1" as="geometry" />
        </mxCell>
        <mxCell id="_AMhWy7YSz8iYAP9jkhe-27" value="Arbiter" style="rounded=0;whiteSpace=wrap;html=1;fontSize=31;fillColor=#F2F2F2;" vertex="1" parent="1">
          <mxGeometry x="-155" y="361" width="110" height="105" as="geometry" />
        </mxCell>
        <mxCell id="_AMhWy7YSz8iYAP9jkhe-28" value="Arbiter" style="rounded=0;whiteSpace=wrap;html=1;fontSize=18;" vertex="1" parent="1">
          <mxGeometry x="-65" y="92" width="110" height="105" as="geometry" />
        </mxCell>
        <mxCell id="_AMhWy7YSz8iYAP9jkhe-29" value="FIFO" style="rounded=0;whiteSpace=wrap;html=1;fontSize=18;" vertex="1" parent="1">
          <mxGeometry x="145" y="75" width="120" height="67" as="geometry" />
        </mxCell>
        <mxCell id="_AMhWy7YSz8iYAP9jkhe-30" style="edgeStyle=orthogonalEdgeStyle;rounded=0;orthogonalLoop=1;jettySize=auto;html=1;" edge="1" parent="1" source="_AMhWy7YSz8iYAP9jkhe-31" target="_AMhWy7YSz8iYAP9jkhe-7">
          <mxGeometry relative="1" as="geometry">
            <mxPoint x="468" y="175.00000000000045" as="targetPoint" />
            <Array as="points">
              <mxPoint x="210" y="170" />
              <mxPoint x="210" y="170" />
            </Array>
          </mxGeometry>
        </mxCell>
        <mxCell id="_AMhWy7YSz8iYAP9jkhe-31" value="Arbiter" style="rounded=0;whiteSpace=wrap;html=1;fontSize=31;fillColor=#F2F2F2;" vertex="1" parent="1">
          <mxGeometry x="-65" y="92" width="110" height="105" as="geometry" />
        </mxCell>
        <mxCell id="_AMhWy7YSz8iYAP9jkhe-32" value="FIFO" style="rounded=0;whiteSpace=wrap;html=1;fontSize=31;fillColor=#F2F2F2;" vertex="1" parent="1">
          <mxGeometry x="145" y="75" width="120" height="67" as="geometry" />
        </mxCell>
        <mxCell id="_AMhWy7YSz8iYAP9jkhe-33" style="edgeStyle=orthogonalEdgeStyle;rounded=0;orthogonalLoop=1;jettySize=auto;html=1;fontSize=31;strokeWidth=5;entryX=0.011;entryY=0.339;entryDx=0;entryDy=0;entryPerimeter=0;" edge="1" parent="1" source="_AMhWy7YSz8iYAP9jkhe-34" target="_AMhWy7YSz8iYAP9jkhe-27">
          <mxGeometry relative="1" as="geometry">
            <mxPoint x="306" y="665" as="targetPoint" />
            <Array as="points">
              <mxPoint x="-364" y="397" />
              <mxPoint x="-364" y="397" />
            </Array>
          </mxGeometry>
        </mxCell>
        <mxCell id="_AMhWy7YSz8iYAP9jkhe-34" value="&lt;font style=&quot;font-size: 17px;&quot;&gt;Data,Val from CHI-Conv&lt;/font&gt;" style="text;html=1;align=center;verticalAlign=middle;resizable=0;points=[];autosize=1;strokeColor=none;fillColor=none;fontSize=16;" vertex="1" parent="1">
          <mxGeometry x="-400" y="376" width="210" height="30" as="geometry" />
        </mxCell>
        <mxCell id="_AMhWy7YSz8iYAP9jkhe-35" style="edgeStyle=orthogonalEdgeStyle;rounded=0;orthogonalLoop=1;jettySize=auto;html=1;fontSize=31;strokeWidth=5;" edge="1" parent="1" source="_AMhWy7YSz8iYAP9jkhe-7" target="_AMhWy7YSz8iYAP9jkhe-36">
          <mxGeometry relative="1" as="geometry">
            <mxPoint x="511" y="238.74500000000026" as="sourcePoint" />
            <mxPoint x="571" y="239" as="targetPoint" />
            <Array as="points">
              <mxPoint x="530" y="240" />
              <mxPoint x="530" y="240" />
            </Array>
          </mxGeometry>
        </mxCell>
        <mxCell id="_AMhWy7YSz8iYAP9jkhe-36" value="Data from Sched for BRAM" style="text;html=1;align=center;verticalAlign=middle;resizable=0;points=[];autosize=1;strokeColor=none;fillColor=none;fontSize=18;" vertex="1" parent="1">
          <mxGeometry x="560" y="220" width="240" height="40" as="geometry" />
        </mxCell>
        <mxCell id="_AMhWy7YSz8iYAP9jkhe-37" value="&lt;font style=&quot;font-size: 31px;&quot;&gt;CPU&lt;br&gt;&lt;/font&gt;" style="ellipse;whiteSpace=wrap;html=1;aspect=fixed;fontSize=16;fillColor=#B3B3B3;" vertex="1" parent="1">
          <mxGeometry x="-525" y="244" width="118" height="118" as="geometry" />
        </mxCell>
        <mxCell id="_AMhWy7YSz8iYAP9jkhe-38" value="&lt;font style=&quot;font-size: 18px;&quot;&gt;Ready&lt;/font&gt;" style="text;html=1;align=center;verticalAlign=middle;resizable=0;points=[];autosize=1;strokeColor=none;fillColor=none;" vertex="1" parent="1">
          <mxGeometry x="165" y="141" width="80" height="40" as="geometry" />
        </mxCell>
        <mxCell id="_AMhWy7YSz8iYAP9jkhe-39" style="edgeStyle=orthogonalEdgeStyle;rounded=0;orthogonalLoop=1;jettySize=auto;html=1;fontSize=18;exitX=0.75;exitY=1;exitDx=0;exitDy=0;" edge="1" parent="1" source="_AMhWy7YSz8iYAP9jkhe-27" target="_AMhWy7YSz8iYAP9jkhe-40">
          <mxGeometry relative="1" as="geometry" />
        </mxCell>
        <mxCell id="_AMhWy7YSz8iYAP9jkhe-40" value="&lt;font style=&quot;font-size: 18px;&quot;&gt;ReadySched&lt;/font&gt;" style="text;html=1;align=center;verticalAlign=middle;resizable=0;points=[];autosize=1;strokeColor=none;fillColor=none;" vertex="1" parent="1">
          <mxGeometry x="-138" y="528" width="130" height="40" as="geometry" />
        </mxCell>
        <mxCell id="_AMhWy7YSz8iYAP9jkhe-41" style="edgeStyle=orthogonalEdgeStyle;rounded=0;orthogonalLoop=1;jettySize=auto;html=1;fontSize=18;" edge="1" parent="1" source="_AMhWy7YSz8iYAP9jkhe-27" target="_AMhWy7YSz8iYAP9jkhe-42">
          <mxGeometry relative="1" as="geometry">
            <Array as="points">
              <mxPoint x="-120" y="480" />
              <mxPoint x="-120" y="480" />
            </Array>
          </mxGeometry>
        </mxCell>
        <mxCell id="_AMhWy7YSz8iYAP9jkhe-42" value="&lt;font style=&quot;font-size: 18px;&quot;&gt;ReadyCHICon&lt;/font&gt;" style="text;html=1;align=center;verticalAlign=middle;resizable=0;points=[];autosize=1;strokeColor=none;fillColor=none;" vertex="1" parent="1">
          <mxGeometry x="-214" y="493" width="140" height="40" as="geometry" />
        </mxCell>
        <mxCell id="_AMhWy7YSz8iYAP9jkhe-43" style="edgeStyle=orthogonalEdgeStyle;rounded=0;orthogonalLoop=1;jettySize=auto;html=1;fontSize=17;strokeWidth=5;" edge="1" parent="1" source="_AMhWy7YSz8iYAP9jkhe-46" target="_AMhWy7YSz8iYAP9jkhe-47">
          <mxGeometry relative="1" as="geometry">
            <Array as="points">
              <mxPoint x="512" y="404" />
              <mxPoint x="512" y="404" />
            </Array>
          </mxGeometry>
        </mxCell>
        <mxCell id="_AMhWy7YSz8iYAP9jkhe-44" style="edgeStyle=orthogonalEdgeStyle;rounded=0;orthogonalLoop=1;jettySize=auto;html=1;exitX=0.994;exitY=0.428;exitDx=0;exitDy=0;fontSize=13;strokeWidth=1;shape=flexArrow;startArrow=block;startFill=0;entryX=-0.002;entryY=0.235;entryDx=0;entryDy=0;exitPerimeter=0;entryPerimeter=0;" edge="1" parent="1" source="_AMhWy7YSz8iYAP9jkhe-46" target="_AMhWy7YSz8iYAP9jkhe-49">
          <mxGeometry relative="1" as="geometry">
            <mxPoint x="734" y="441" as="targetPoint" />
            <mxPoint x="608.9999999999995" y="441.5" as="sourcePoint" />
            <Array as="points" />
          </mxGeometry>
        </mxCell>
        <mxCell id="_AMhWy7YSz8iYAP9jkhe-45" style="edgeStyle=orthogonalEdgeStyle;rounded=0;orthogonalLoop=1;jettySize=auto;html=1;exitX=0.5;exitY=1;exitDx=0;exitDy=0;entryX=0;entryY=0.75;entryDx=0;entryDy=0;strokeWidth=1;fontSize=29;" edge="1" parent="1" source="_AMhWy7YSz8iYAP9jkhe-46" target="_AMhWy7YSz8iYAP9jkhe-60">
          <mxGeometry relative="1" as="geometry">
            <Array as="points">
              <mxPoint x="428" y="670" />
              <mxPoint x="32" y="670" />
              <mxPoint x="32" y="618" />
            </Array>
          </mxGeometry>
        </mxCell>
        <mxCell id="_AMhWy7YSz8iYAP9jkhe-46" value="CHI-Conv" style="rounded=0;whiteSpace=wrap;html=1;fontSize=31;fillColor=#F0F0F0;strokeColor=#000000;" vertex="1" parent="1">
          <mxGeometry x="355" y="376" width="147" height="185" as="geometry" />
        </mxCell>
        <mxCell id="_AMhWy7YSz8iYAP9jkhe-47" value="&lt;font style=&quot;font-size: 17px;&quot;&gt;Data from CHI-Conv for BRAM&lt;/font&gt;" style="text;html=1;align=center;verticalAlign=middle;resizable=0;points=[];autosize=1;strokeColor=none;fillColor=none;fontSize=16;" vertex="1" parent="1">
          <mxGeometry x="552" y="389" width="260" height="30" as="geometry" />
        </mxCell>
        <mxCell id="_AMhWy7YSz8iYAP9jkhe-48" style="edgeStyle=orthogonalEdgeStyle;rounded=0;orthogonalLoop=1;jettySize=auto;html=1;fontSize=13;strokeWidth=1;shape=flexArrow;startArrow=block;startFill=0;exitX=0;exitY=0.25;exitDx=0;exitDy=0;entryX=0.019;entryY=0.75;entryDx=0;entryDy=0;entryPerimeter=0;" edge="1" parent="1" source="_AMhWy7YSz8iYAP9jkhe-60" target="_AMhWy7YSz8iYAP9jkhe-49">
          <mxGeometry relative="1" as="geometry">
            <mxPoint x="735" y="510.0769230769233" as="targetPoint" />
            <mxPoint x="609" y="511.5" as="sourcePoint" />
            <Array as="points">
              <mxPoint y="532" />
              <mxPoint y="710" />
              <mxPoint x="532" y="710" />
              <mxPoint x="532" y="539" />
            </Array>
          </mxGeometry>
        </mxCell>
        <mxCell id="_AMhWy7YSz8iYAP9jkhe-49" value="&lt;font style=&quot;font-size: 30px;&quot;&gt;CHI &lt;br&gt;System&lt;/font&gt;" style="rounded=1;whiteSpace=wrap;html=1;arcSize=18;fillColor=#B3B3B3;" vertex="1" parent="1">
          <mxGeometry x="853" y="417" width="200" height="163" as="geometry" />
        </mxCell>
        <mxCell id="_AMhWy7YSz8iYAP9jkhe-50" style="edgeStyle=orthogonalEdgeStyle;rounded=0;orthogonalLoop=1;jettySize=auto;html=1;fontSize=13;strokeWidth=1;shape=flexArrow;startArrow=block;startFill=0;exitX=1.003;exitY=0.774;exitDx=0;exitDy=0;exitPerimeter=0;entryX=-0.002;entryY=0.631;entryDx=0;entryDy=0;entryPerimeter=0;" edge="1" parent="1" source="_AMhWy7YSz8iYAP9jkhe-46" target="_AMhWy7YSz8iYAP9jkhe-49">
          <mxGeometry relative="1" as="geometry">
            <mxPoint x="951.8000000000002" y="520.2500000000002" as="targetPoint" />
            <mxPoint x="618.9999999999995" y="520.4300000000001" as="sourcePoint" />
            <Array as="points" />
          </mxGeometry>
        </mxCell>
        <mxCell id="_AMhWy7YSz8iYAP9jkhe-51" style="edgeStyle=orthogonalEdgeStyle;rounded=0;orthogonalLoop=1;jettySize=auto;html=1;fontSize=13;strokeWidth=1;shape=flexArrow;startArrow=block;startFill=0;exitX=0.994;exitY=0.664;exitDx=0;exitDy=0;exitPerimeter=0;" edge="1" parent="1" source="_AMhWy7YSz8iYAP9jkhe-46" target="_AMhWy7YSz8iYAP9jkhe-49">
          <mxGeometry relative="1" as="geometry">
            <mxPoint x="947.5999999999999" y="500.8530000000003" as="targetPoint" />
            <mxPoint x="619.4409999999998" y="501.1900000000003" as="sourcePoint" />
            <Array as="points" />
          </mxGeometry>
        </mxCell>
        <mxCell id="_AMhWy7YSz8iYAP9jkhe-52" style="edgeStyle=orthogonalEdgeStyle;rounded=0;orthogonalLoop=1;jettySize=auto;html=1;fontSize=13;strokeWidth=1;shape=flexArrow;startArrow=block;startFill=0;exitX=1.003;exitY=0.556;exitDx=0;exitDy=0;exitPerimeter=0;entryX=0.007;entryY=0.377;entryDx=0;entryDy=0;entryPerimeter=0;" edge="1" parent="1" source="_AMhWy7YSz8iYAP9jkhe-46" target="_AMhWy7YSz8iYAP9jkhe-49">
          <mxGeometry relative="1" as="geometry">
            <mxPoint x="948" y="479.4893617021278" as="targetPoint" />
            <mxPoint x="620.7639999999997" y="481.21000000000004" as="sourcePoint" />
            <Array as="points" />
          </mxGeometry>
        </mxCell>
        <mxCell id="_AMhWy7YSz8iYAP9jkhe-53" value="CHI-Channel&amp;nbsp;&lt;br&gt;Interface" style="text;html=1;align=center;verticalAlign=middle;resizable=0;points=[];autosize=1;strokeColor=none;fillColor=none;fontSize=30;" vertex="1" parent="1">
          <mxGeometry x="580" y="540" width="210" height="90" as="geometry" />
        </mxCell>
        <mxCell id="_AMhWy7YSz8iYAP9jkhe-54" style="edgeStyle=orthogonalEdgeStyle;rounded=0;orthogonalLoop=1;jettySize=auto;html=1;fontSize=18;" edge="1" parent="1" source="_AMhWy7YSz8iYAP9jkhe-55" target="_AMhWy7YSz8iYAP9jkhe-46">
          <mxGeometry relative="1" as="geometry">
            <Array as="points">
              <mxPoint x="350" y="486" />
              <mxPoint x="350" y="486" />
            </Array>
          </mxGeometry>
        </mxCell>
        <mxCell id="_AMhWy7YSz8iYAP9jkhe-55" value="&lt;font style=&quot;font-size: 18px;&quot;&gt;ReadyCHICon&lt;/font&gt;" style="text;html=1;align=center;verticalAlign=middle;resizable=0;points=[];autosize=1;strokeColor=none;fillColor=none;" vertex="1" parent="1">
          <mxGeometry x="184" y="466" width="140" height="40" as="geometry" />
        </mxCell>
        <mxCell id="_AMhWy7YSz8iYAP9jkhe-56" value="&lt;span style=&quot;&quot;&gt;WE,Addr&lt;/span&gt;" style="text;html=1;align=center;verticalAlign=middle;resizable=0;points=[];autosize=1;strokeColor=none;fillColor=none;fontSize=18;" vertex="1" parent="1">
          <mxGeometry x="-155" y="146" width="100" height="40" as="geometry" />
        </mxCell>
        <mxCell id="_AMhWy7YSz8iYAP9jkhe-57" value="&lt;b&gt;&lt;font style=&quot;font-size: 40px;&quot;&gt;DMA&lt;/font&gt;&lt;/b&gt;" style="text;html=1;align=center;verticalAlign=middle;resizable=0;points=[];autosize=1;strokeColor=none;fillColor=none;fontSize=18;" vertex="1" parent="1">
          <mxGeometry x="183" y="-120" width="110" height="60" as="geometry" />
        </mxCell>
        <mxCell id="_AMhWy7YSz8iYAP9jkhe-58" style="edgeStyle=orthogonalEdgeStyle;rounded=0;orthogonalLoop=1;jettySize=auto;html=1;strokeWidth=5;fontSize=18;" edge="1" parent="1" source="_AMhWy7YSz8iYAP9jkhe-21" target="_AMhWy7YSz8iYAP9jkhe-46">
          <mxGeometry relative="1" as="geometry">
            <Array as="points">
              <mxPoint x="310" y="440" />
              <mxPoint x="310" y="440" />
            </Array>
            <mxPoint x="-632.9999999999945" y="312" as="targetPoint" />
            <mxPoint x="205" y="450" as="sourcePoint" />
          </mxGeometry>
        </mxCell>
        <mxCell id="_AMhWy7YSz8iYAP9jkhe-59" style="edgeStyle=orthogonalEdgeStyle;rounded=0;orthogonalLoop=1;jettySize=auto;html=1;exitX=1;exitY=0.25;exitDx=0;exitDy=0;entryX=-0.015;entryY=0.847;entryDx=0;entryDy=0;entryPerimeter=0;fontSize=29;fillColor=#f8cecc;strokeColor=#000000;strokeWidth=3;" edge="1" parent="1" source="_AMhWy7YSz8iYAP9jkhe-60" target="_AMhWy7YSz8iYAP9jkhe-46">
          <mxGeometry relative="1" as="geometry" />
        </mxCell>
        <mxCell id="_AMhWy7YSz8iYAP9jkhe-60" value="BS" style="rounded=0;whiteSpace=wrap;html=1;fontSize=31;fillColor=#ffff88;strokeColor=#36393d;strokeWidth=3;dashed=1;" vertex="1" parent="1">
          <mxGeometry x="52" y="490" width="140" height="170" as="geometry" />
        </mxCell>
        <mxCell id="_AMhWy7YSz8iYAP9jkhe-61" value="&lt;font style=&quot;font-size: 23px;&quot;&gt;DataInbChannel&lt;/font&gt;" style="text;html=1;align=center;verticalAlign=middle;resizable=0;points=[];autosize=1;strokeColor=none;fillColor=none;fontSize=29;" vertex="1" parent="1">
          <mxGeometry x="257" y="667" width="190" height="50" as="geometry" />
        </mxCell>
        <mxCell id="_AMhWy7YSz8iYAP9jkhe-62" style="edgeStyle=orthogonalEdgeStyle;rounded=0;orthogonalLoop=1;jettySize=auto;html=1;fontSize=18;" edge="1" parent="1" source="_AMhWy7YSz8iYAP9jkhe-63" target="_AMhWy7YSz8iYAP9jkhe-7">
          <mxGeometry relative="1" as="geometry">
            <mxPoint x="345" y="207.00000000000045" as="targetPoint" />
            <Array as="points">
              <mxPoint x="335" y="203" />
              <mxPoint x="335" y="203" />
            </Array>
          </mxGeometry>
        </mxCell>
        <mxCell id="_AMhWy7YSz8iYAP9jkhe-63" value="&lt;font style=&quot;font-size: 18px;&quot;&gt;ReadySched&lt;/font&gt;" style="text;html=1;align=center;verticalAlign=middle;resizable=0;points=[];autosize=1;strokeColor=none;fillColor=none;" vertex="1" parent="1">
          <mxGeometry x="191" y="179" width="130" height="40" as="geometry" />
        </mxCell>
        <mxCell id="_AMhWy7YSz8iYAP9jkhe-64" value="Command" style="text;html=1;align=center;verticalAlign=middle;resizable=0;points=[];autosize=1;strokeColor=none;fillColor=none;fontSize=18;" vertex="1" parent="1">
          <mxGeometry x="214" y="640" width="110" height="40" as="geometry" />
        </mxCell>
        <mxCell id="_AMhWy7YSz8iYAP9jkhe-65" value="shiftedData&lt;br&gt;,FULL" style="text;html=1;align=center;verticalAlign=middle;resizable=0;points=[];autosize=1;strokeColor=none;fillColor=none;fontSize=23;" vertex="1" parent="1">
          <mxGeometry x="197" y="522" width="140" height="70" as="geometry" />
        </mxCell>
      </root>
    </mxGraphModel>
  </diagram>
  <diagram id="BjViSCRMhev9qzBg5q_H" name="Σελίδα-7">
    <mxGraphModel dx="2389" dy="1927" grid="1" gridSize="10" guides="1" tooltips="1" connect="1" arrows="1" fold="1" page="1" pageScale="1" pageWidth="827" pageHeight="1169" math="0" shadow="0">
      <root>
        <mxCell id="0" />
        <mxCell id="1" parent="0" />
        <mxCell id="0Y1QtFHnmUwS77KSyr0P-1" value="" style="rounded=0;whiteSpace=wrap;html=1;fontSize=18;fillColor=#d5e8d4;strokeColor=#82b366;" vertex="1" parent="1">
          <mxGeometry x="-390" y="-50" width="1190" height="790" as="geometry" />
        </mxCell>
        <mxCell id="0Y1QtFHnmUwS77KSyr0P-2" style="edgeStyle=orthogonalEdgeStyle;rounded=0;orthogonalLoop=1;jettySize=auto;html=1;exitX=1;exitY=0.335;exitDx=0;exitDy=0;exitPerimeter=0;fontSize=18;entryX=0;entryY=0.25;entryDx=0;entryDy=0;" edge="1" parent="1" source="0Y1QtFHnmUwS77KSyr0P-3">
          <mxGeometry relative="1" as="geometry">
            <Array as="points">
              <mxPoint x="265" y="100" />
            </Array>
            <mxPoint x="361" y="100" as="targetPoint" />
          </mxGeometry>
        </mxCell>
        <mxCell id="0Y1QtFHnmUwS77KSyr0P-3" value="FIFO" style="rounded=0;whiteSpace=wrap;html=1;fontSize=18;" vertex="1" parent="1">
          <mxGeometry x="145" y="75" width="120" height="67" as="geometry" />
        </mxCell>
        <mxCell id="0Y1QtFHnmUwS77KSyr0P-4" style="edgeStyle=orthogonalEdgeStyle;rounded=0;orthogonalLoop=1;jettySize=auto;html=1;exitX=1;exitY=0.5;exitDx=0;exitDy=0;entryX=-0.003;entryY=0.367;entryDx=0;entryDy=0;entryPerimeter=0;fontSize=18;" edge="1" parent="1" source="0Y1QtFHnmUwS77KSyr0P-7" target="0Y1QtFHnmUwS77KSyr0P-11">
          <mxGeometry relative="1" as="geometry">
            <Array as="points">
              <mxPoint x="552" y="195" />
              <mxPoint x="552" y="-5" />
              <mxPoint x="-90" y="-5" />
              <mxPoint x="-90" y="131" />
            </Array>
          </mxGeometry>
        </mxCell>
        <mxCell id="0Y1QtFHnmUwS77KSyr0P-5" style="edgeStyle=orthogonalEdgeStyle;rounded=0;orthogonalLoop=1;jettySize=auto;html=1;exitX=1.014;exitY=0.11;exitDx=0;exitDy=0;entryX=0.25;entryY=0;entryDx=0;entryDy=0;exitPerimeter=0;fontSize=18;" edge="1" parent="1" source="0Y1QtFHnmUwS77KSyr0P-7" target="0Y1QtFHnmUwS77KSyr0P-3">
          <mxGeometry relative="1" as="geometry">
            <mxPoint x="435" y="195.99999999999977" as="sourcePoint" />
            <mxPoint x="265" y="196" as="targetPoint" />
            <Array as="points">
              <mxPoint x="503" y="106" />
              <mxPoint x="522" y="106" />
              <mxPoint x="522" y="55" />
              <mxPoint x="175" y="55" />
            </Array>
          </mxGeometry>
        </mxCell>
        <mxCell id="0Y1QtFHnmUwS77KSyr0P-6" style="edgeStyle=orthogonalEdgeStyle;rounded=0;orthogonalLoop=1;jettySize=auto;html=1;fontSize=18;entryX=0.5;entryY=0;entryDx=0;entryDy=0;strokeWidth=2;" edge="1" parent="1" source="0Y1QtFHnmUwS77KSyr0P-7" target="0Y1QtFHnmUwS77KSyr0P-46">
          <mxGeometry relative="1" as="geometry">
            <mxPoint x="718" y="203.09000000000015" as="targetPoint" />
            <mxPoint x="575" y="204" as="sourcePoint" />
            <Array as="points">
              <mxPoint x="429" y="300" />
              <mxPoint x="429" y="300" />
            </Array>
          </mxGeometry>
        </mxCell>
        <mxCell id="0Y1QtFHnmUwS77KSyr0P-7" value="Scheduler" style="rounded=0;whiteSpace=wrap;html=1;fontSize=31;fillColor=#F0F0F0;strokeColor=#000000;" vertex="1" parent="1">
          <mxGeometry x="361" y="85" width="149" height="175" as="geometry" />
        </mxCell>
        <mxCell id="0Y1QtFHnmUwS77KSyr0P-8" style="edgeStyle=orthogonalEdgeStyle;rounded=0;orthogonalLoop=1;jettySize=auto;html=1;exitX=1;exitY=0.5;exitDx=0;exitDy=0;entryX=0.006;entryY=0.363;entryDx=0;entryDy=0;entryPerimeter=0;fontSize=18;" edge="1" parent="1" target="0Y1QtFHnmUwS77KSyr0P-3">
          <mxGeometry relative="1" as="geometry">
            <mxPoint x="151.99999999999955" y="100" as="sourcePoint" />
          </mxGeometry>
        </mxCell>
        <mxCell id="0Y1QtFHnmUwS77KSyr0P-9" style="edgeStyle=orthogonalEdgeStyle;rounded=0;orthogonalLoop=1;jettySize=auto;html=1;exitX=0.998;exitY=0.378;exitDx=0;exitDy=0;entryX=-0.006;entryY=0.811;entryDx=0;entryDy=0;entryPerimeter=0;exitPerimeter=0;fontSize=18;" edge="1" parent="1" source="0Y1QtFHnmUwS77KSyr0P-11" target="0Y1QtFHnmUwS77KSyr0P-3">
          <mxGeometry relative="1" as="geometry">
            <mxPoint x="152" y="128" as="sourcePoint" />
            <mxPoint x="252.00000000000023" y="115.5" as="targetPoint" />
            <Array as="points">
              <mxPoint x="152" y="129" />
              <mxPoint x="251" y="129" />
            </Array>
          </mxGeometry>
        </mxCell>
        <mxCell id="0Y1QtFHnmUwS77KSyr0P-10" style="edgeStyle=orthogonalEdgeStyle;rounded=0;orthogonalLoop=1;jettySize=auto;html=1;entryX=0;entryY=0.75;entryDx=0;entryDy=0;strokeWidth=5;fontSize=18;" edge="1" parent="1" source="0Y1QtFHnmUwS77KSyr0P-22" target="0Y1QtFHnmUwS77KSyr0P-27">
          <mxGeometry relative="1" as="geometry">
            <mxPoint x="657" y="135" as="sourcePoint" />
            <Array as="points">
              <mxPoint x="-374" y="440" />
            </Array>
          </mxGeometry>
        </mxCell>
        <mxCell id="0Y1QtFHnmUwS77KSyr0P-11" value="Arbiter" style="rounded=0;whiteSpace=wrap;html=1;fontSize=18;" vertex="1" parent="1">
          <mxGeometry x="-65" y="92" width="110" height="105" as="geometry" />
        </mxCell>
        <mxCell id="0Y1QtFHnmUwS77KSyr0P-12" value="DescAddr" style="text;html=1;align=center;verticalAlign=middle;resizable=0;points=[];autosize=1;strokeColor=none;fillColor=none;fontSize=18;" vertex="1" parent="1">
          <mxGeometry x="39" y="101" width="100" height="40" as="geometry" />
        </mxCell>
        <mxCell id="0Y1QtFHnmUwS77KSyr0P-13" value="enqueue" style="text;html=1;align=center;verticalAlign=middle;resizable=0;points=[];autosize=1;strokeColor=none;fillColor=none;fontSize=18;" vertex="1" parent="1">
          <mxGeometry x="39" y="67" width="90" height="40" as="geometry" />
        </mxCell>
        <mxCell id="0Y1QtFHnmUwS77KSyr0P-14" style="edgeStyle=orthogonalEdgeStyle;rounded=0;orthogonalLoop=1;jettySize=auto;html=1;startArrow=none;fontSize=18;entryX=0.002;entryY=0.801;entryDx=0;entryDy=0;entryPerimeter=0;" edge="1" parent="1" source="0Y1QtFHnmUwS77KSyr0P-37" target="0Y1QtFHnmUwS77KSyr0P-31">
          <mxGeometry relative="1" as="geometry">
            <mxPoint x="109.99999999999955" y="244" as="targetPoint" />
            <Array as="points">
              <mxPoint x="-160" y="302" />
              <mxPoint x="-160" y="176" />
            </Array>
            <mxPoint x="-70" y="246" as="sourcePoint" />
          </mxGeometry>
        </mxCell>
        <mxCell id="0Y1QtFHnmUwS77KSyr0P-15" style="edgeStyle=orthogonalEdgeStyle;rounded=0;orthogonalLoop=1;jettySize=auto;html=1;strokeWidth=5;fontSize=18;entryX=0;entryY=0.25;entryDx=0;entryDy=0;exitX=1;exitY=0.5;exitDx=0;exitDy=0;" edge="1" parent="1" source="0Y1QtFHnmUwS77KSyr0P-37" target="0Y1QtFHnmUwS77KSyr0P-21">
          <mxGeometry relative="1" as="geometry">
            <mxPoint x="-492.00000000000045" y="264.00000000000045" as="sourcePoint" />
            <mxPoint x="230" y="291.25" as="targetPoint" />
            <Array as="points">
              <mxPoint x="-480" y="303" />
            </Array>
          </mxGeometry>
        </mxCell>
        <mxCell id="0Y1QtFHnmUwS77KSyr0P-16" value="DescAddrPointer , Vald" style="text;html=1;align=center;verticalAlign=middle;resizable=0;points=[];autosize=1;strokeColor=none;fillColor=none;fontSize=18;" vertex="1" parent="1">
          <mxGeometry x="181" y="-39" width="210" height="40" as="geometry" />
        </mxCell>
        <mxCell id="0Y1QtFHnmUwS77KSyr0P-17" value="FIFO_Out" style="text;html=1;align=center;verticalAlign=middle;resizable=0;points=[];autosize=1;strokeColor=none;fillColor=none;fontSize=18;" vertex="1" parent="1">
          <mxGeometry x="261" y="93" width="100" height="40" as="geometry" />
        </mxCell>
        <mxCell id="0Y1QtFHnmUwS77KSyr0P-18" value="dequeue" style="text;html=1;align=center;verticalAlign=middle;resizable=0;points=[];autosize=1;strokeColor=none;fillColor=none;fontSize=18;" vertex="1" parent="1">
          <mxGeometry x="315" y="20" width="90" height="40" as="geometry" />
        </mxCell>
        <mxCell id="0Y1QtFHnmUwS77KSyr0P-19" style="edgeStyle=orthogonalEdgeStyle;rounded=0;orthogonalLoop=1;jettySize=auto;html=1;strokeWidth=5;fontSize=18;" edge="1" parent="1" source="0Y1QtFHnmUwS77KSyr0P-21" target="0Y1QtFHnmUwS77KSyr0P-7">
          <mxGeometry relative="1" as="geometry">
            <Array as="points">
              <mxPoint x="310" y="440" />
              <mxPoint x="310" y="240" />
            </Array>
            <mxPoint x="195" y="285.0769230769233" as="sourcePoint" />
          </mxGeometry>
        </mxCell>
        <mxCell id="0Y1QtFHnmUwS77KSyr0P-20" style="edgeStyle=orthogonalEdgeStyle;rounded=0;orthogonalLoop=1;jettySize=auto;html=1;strokeWidth=5;fontSize=18;entryX=0;entryY=0.5;entryDx=0;entryDy=0;" edge="1" parent="1" source="0Y1QtFHnmUwS77KSyr0P-21" target="0Y1QtFHnmUwS77KSyr0P-37">
          <mxGeometry relative="1" as="geometry">
            <Array as="points">
              <mxPoint x="230" y="280" />
              <mxPoint x="230" y="220" />
              <mxPoint x="-570" y="220" />
              <mxPoint x="-570" y="302" />
              <mxPoint x="-539" y="302" />
            </Array>
            <mxPoint x="-165" y="222.25" as="targetPoint" />
          </mxGeometry>
        </mxCell>
        <mxCell id="0Y1QtFHnmUwS77KSyr0P-21" value="&lt;font style=&quot;font-size: 31px;&quot;&gt;Desc&lt;br&gt;BRAM&lt;/font&gt;" style="rounded=0;whiteSpace=wrap;html=1;fontSize=31;fillColor=#F0F0F0;" vertex="1" parent="1">
          <mxGeometry x="35" y="248" width="160" height="220" as="geometry" />
        </mxCell>
        <mxCell id="0Y1QtFHnmUwS77KSyr0P-22" value="Data,Val from Sched" style="text;html=1;align=center;verticalAlign=middle;resizable=0;points=[];autosize=1;strokeColor=none;fillColor=none;fontSize=18;" vertex="1" parent="1">
          <mxGeometry x="-393" y="417" width="190" height="40" as="geometry" />
        </mxCell>
        <mxCell id="0Y1QtFHnmUwS77KSyr0P-23" value="Data_out1" style="text;html=1;align=center;verticalAlign=middle;resizable=0;points=[];autosize=1;strokeColor=none;fillColor=none;fontSize=18;" vertex="1" parent="1">
          <mxGeometry x="127" y="216" width="110" height="40" as="geometry" />
        </mxCell>
        <mxCell id="0Y1QtFHnmUwS77KSyr0P-24" value="Data_out2" style="text;html=1;align=center;verticalAlign=middle;resizable=0;points=[];autosize=1;strokeColor=none;fillColor=none;fontSize=18;" vertex="1" parent="1">
          <mxGeometry x="184" y="406" width="110" height="40" as="geometry" />
        </mxCell>
        <mxCell id="0Y1QtFHnmUwS77KSyr0P-25" value="Command" style="text;html=1;align=center;verticalAlign=middle;resizable=0;points=[];autosize=1;strokeColor=none;fillColor=none;fontSize=18;" vertex="1" parent="1">
          <mxGeometry x="420" y="315" width="110" height="40" as="geometry" />
        </mxCell>
        <mxCell id="0Y1QtFHnmUwS77KSyr0P-26" style="edgeStyle=orthogonalEdgeStyle;rounded=0;orthogonalLoop=1;jettySize=auto;html=1;exitX=1;exitY=0.5;exitDx=0;exitDy=0;entryX=0;entryY=0.75;entryDx=0;entryDy=0;fontSize=18;strokeWidth=5;" edge="1" parent="1" source="0Y1QtFHnmUwS77KSyr0P-27" target="0Y1QtFHnmUwS77KSyr0P-21">
          <mxGeometry relative="1" as="geometry" />
        </mxCell>
        <mxCell id="0Y1QtFHnmUwS77KSyr0P-27" value="Arbiter" style="rounded=0;whiteSpace=wrap;html=1;fontSize=31;fillColor=#F2F2F2;" vertex="1" parent="1">
          <mxGeometry x="-155" y="361" width="110" height="105" as="geometry" />
        </mxCell>
        <mxCell id="0Y1QtFHnmUwS77KSyr0P-28" value="Arbiter" style="rounded=0;whiteSpace=wrap;html=1;fontSize=18;" vertex="1" parent="1">
          <mxGeometry x="-65" y="92" width="110" height="105" as="geometry" />
        </mxCell>
        <mxCell id="0Y1QtFHnmUwS77KSyr0P-29" value="FIFO" style="rounded=0;whiteSpace=wrap;html=1;fontSize=18;" vertex="1" parent="1">
          <mxGeometry x="145" y="75" width="120" height="67" as="geometry" />
        </mxCell>
        <mxCell id="0Y1QtFHnmUwS77KSyr0P-30" style="edgeStyle=orthogonalEdgeStyle;rounded=0;orthogonalLoop=1;jettySize=auto;html=1;" edge="1" parent="1" source="0Y1QtFHnmUwS77KSyr0P-31" target="0Y1QtFHnmUwS77KSyr0P-7">
          <mxGeometry relative="1" as="geometry">
            <mxPoint x="468" y="175.00000000000045" as="targetPoint" />
            <Array as="points">
              <mxPoint x="210" y="170" />
              <mxPoint x="210" y="170" />
            </Array>
          </mxGeometry>
        </mxCell>
        <mxCell id="0Y1QtFHnmUwS77KSyr0P-31" value="Arbiter" style="rounded=0;whiteSpace=wrap;html=1;fontSize=31;fillColor=#F2F2F2;" vertex="1" parent="1">
          <mxGeometry x="-65" y="92" width="110" height="105" as="geometry" />
        </mxCell>
        <mxCell id="0Y1QtFHnmUwS77KSyr0P-32" value="FIFO" style="rounded=0;whiteSpace=wrap;html=1;fontSize=31;fillColor=#F2F2F2;" vertex="1" parent="1">
          <mxGeometry x="145" y="75" width="120" height="67" as="geometry" />
        </mxCell>
        <mxCell id="0Y1QtFHnmUwS77KSyr0P-33" style="edgeStyle=orthogonalEdgeStyle;rounded=0;orthogonalLoop=1;jettySize=auto;html=1;fontSize=31;strokeWidth=5;entryX=0.011;entryY=0.339;entryDx=0;entryDy=0;entryPerimeter=0;" edge="1" parent="1" source="0Y1QtFHnmUwS77KSyr0P-34" target="0Y1QtFHnmUwS77KSyr0P-27">
          <mxGeometry relative="1" as="geometry">
            <mxPoint x="306" y="665" as="targetPoint" />
            <Array as="points">
              <mxPoint x="-364" y="397" />
              <mxPoint x="-364" y="397" />
            </Array>
          </mxGeometry>
        </mxCell>
        <mxCell id="0Y1QtFHnmUwS77KSyr0P-34" value="&lt;font style=&quot;font-size: 17px;&quot;&gt;Data,Val from CHI-Conv&lt;/font&gt;" style="text;html=1;align=center;verticalAlign=middle;resizable=0;points=[];autosize=1;strokeColor=none;fillColor=none;fontSize=16;" vertex="1" parent="1">
          <mxGeometry x="-400" y="376" width="210" height="30" as="geometry" />
        </mxCell>
        <mxCell id="0Y1QtFHnmUwS77KSyr0P-35" style="edgeStyle=orthogonalEdgeStyle;rounded=0;orthogonalLoop=1;jettySize=auto;html=1;fontSize=31;strokeWidth=5;" edge="1" parent="1" source="0Y1QtFHnmUwS77KSyr0P-7" target="0Y1QtFHnmUwS77KSyr0P-36">
          <mxGeometry relative="1" as="geometry">
            <mxPoint x="511" y="238.74500000000026" as="sourcePoint" />
            <mxPoint x="571" y="239" as="targetPoint" />
            <Array as="points">
              <mxPoint x="530" y="240" />
              <mxPoint x="530" y="240" />
            </Array>
          </mxGeometry>
        </mxCell>
        <mxCell id="0Y1QtFHnmUwS77KSyr0P-36" value="Data from Sched for BRAM" style="text;html=1;align=center;verticalAlign=middle;resizable=0;points=[];autosize=1;strokeColor=none;fillColor=none;fontSize=18;" vertex="1" parent="1">
          <mxGeometry x="560" y="220" width="240" height="40" as="geometry" />
        </mxCell>
        <mxCell id="0Y1QtFHnmUwS77KSyr0P-37" value="&lt;font style=&quot;font-size: 31px;&quot;&gt;CPU&lt;br&gt;&lt;/font&gt;" style="ellipse;whiteSpace=wrap;html=1;aspect=fixed;fontSize=16;fillColor=#B3B3B3;" vertex="1" parent="1">
          <mxGeometry x="-525" y="244" width="118" height="118" as="geometry" />
        </mxCell>
        <mxCell id="0Y1QtFHnmUwS77KSyr0P-38" value="&lt;font style=&quot;font-size: 18px;&quot;&gt;Ready&lt;/font&gt;" style="text;html=1;align=center;verticalAlign=middle;resizable=0;points=[];autosize=1;strokeColor=none;fillColor=none;" vertex="1" parent="1">
          <mxGeometry x="165" y="141" width="80" height="40" as="geometry" />
        </mxCell>
        <mxCell id="0Y1QtFHnmUwS77KSyr0P-39" style="edgeStyle=orthogonalEdgeStyle;rounded=0;orthogonalLoop=1;jettySize=auto;html=1;fontSize=18;exitX=0.75;exitY=1;exitDx=0;exitDy=0;" edge="1" parent="1" source="0Y1QtFHnmUwS77KSyr0P-27" target="0Y1QtFHnmUwS77KSyr0P-40">
          <mxGeometry relative="1" as="geometry" />
        </mxCell>
        <mxCell id="0Y1QtFHnmUwS77KSyr0P-40" value="&lt;font style=&quot;font-size: 18px;&quot;&gt;ReadySched&lt;/font&gt;" style="text;html=1;align=center;verticalAlign=middle;resizable=0;points=[];autosize=1;strokeColor=none;fillColor=none;" vertex="1" parent="1">
          <mxGeometry x="-138" y="528" width="130" height="40" as="geometry" />
        </mxCell>
        <mxCell id="0Y1QtFHnmUwS77KSyr0P-41" style="edgeStyle=orthogonalEdgeStyle;rounded=0;orthogonalLoop=1;jettySize=auto;html=1;fontSize=18;" edge="1" parent="1" source="0Y1QtFHnmUwS77KSyr0P-27" target="0Y1QtFHnmUwS77KSyr0P-42">
          <mxGeometry relative="1" as="geometry">
            <Array as="points">
              <mxPoint x="-120" y="480" />
              <mxPoint x="-120" y="480" />
            </Array>
          </mxGeometry>
        </mxCell>
        <mxCell id="0Y1QtFHnmUwS77KSyr0P-42" value="&lt;font style=&quot;font-size: 18px;&quot;&gt;ReadyCHICon&lt;/font&gt;" style="text;html=1;align=center;verticalAlign=middle;resizable=0;points=[];autosize=1;strokeColor=none;fillColor=none;" vertex="1" parent="1">
          <mxGeometry x="-214" y="493" width="140" height="40" as="geometry" />
        </mxCell>
        <mxCell id="0Y1QtFHnmUwS77KSyr0P-43" style="edgeStyle=orthogonalEdgeStyle;rounded=0;orthogonalLoop=1;jettySize=auto;html=1;fontSize=17;strokeWidth=5;" edge="1" parent="1" source="0Y1QtFHnmUwS77KSyr0P-46" target="0Y1QtFHnmUwS77KSyr0P-47">
          <mxGeometry relative="1" as="geometry">
            <Array as="points">
              <mxPoint x="512" y="404" />
              <mxPoint x="512" y="404" />
            </Array>
          </mxGeometry>
        </mxCell>
        <mxCell id="0Y1QtFHnmUwS77KSyr0P-44" style="edgeStyle=orthogonalEdgeStyle;rounded=0;orthogonalLoop=1;jettySize=auto;html=1;exitX=0.994;exitY=0.428;exitDx=0;exitDy=0;fontSize=13;strokeWidth=1;shape=flexArrow;startArrow=block;startFill=0;entryX=-0.002;entryY=0.235;entryDx=0;entryDy=0;exitPerimeter=0;entryPerimeter=0;" edge="1" parent="1" source="0Y1QtFHnmUwS77KSyr0P-46" target="0Y1QtFHnmUwS77KSyr0P-49">
          <mxGeometry relative="1" as="geometry">
            <mxPoint x="734" y="441" as="targetPoint" />
            <mxPoint x="608.9999999999995" y="441.5" as="sourcePoint" />
            <Array as="points" />
          </mxGeometry>
        </mxCell>
        <mxCell id="0Y1QtFHnmUwS77KSyr0P-45" style="edgeStyle=orthogonalEdgeStyle;rounded=0;orthogonalLoop=1;jettySize=auto;html=1;exitX=0.5;exitY=1;exitDx=0;exitDy=0;entryX=0;entryY=0.75;entryDx=0;entryDy=0;strokeWidth=1;fontSize=29;" edge="1" parent="1" source="0Y1QtFHnmUwS77KSyr0P-46" target="0Y1QtFHnmUwS77KSyr0P-60">
          <mxGeometry relative="1" as="geometry">
            <Array as="points">
              <mxPoint x="428" y="670" />
              <mxPoint x="32" y="670" />
              <mxPoint x="32" y="618" />
            </Array>
          </mxGeometry>
        </mxCell>
        <mxCell id="0Y1QtFHnmUwS77KSyr0P-46" value="CHI-Conv" style="rounded=0;whiteSpace=wrap;html=1;fontSize=31;fillColor=#e1d5e7;strokeColor=#000000;dashed=1;strokeWidth=3;" vertex="1" parent="1">
          <mxGeometry x="355" y="376" width="147" height="185" as="geometry" />
        </mxCell>
        <mxCell id="0Y1QtFHnmUwS77KSyr0P-47" value="&lt;font style=&quot;font-size: 17px;&quot;&gt;Data from CHI-Conv for BRAM&lt;/font&gt;" style="text;html=1;align=center;verticalAlign=middle;resizable=0;points=[];autosize=1;strokeColor=none;fillColor=none;fontSize=16;" vertex="1" parent="1">
          <mxGeometry x="552" y="389" width="260" height="30" as="geometry" />
        </mxCell>
        <mxCell id="0Y1QtFHnmUwS77KSyr0P-48" style="edgeStyle=orthogonalEdgeStyle;rounded=0;orthogonalLoop=1;jettySize=auto;html=1;fontSize=13;strokeWidth=1;shape=flexArrow;startArrow=block;startFill=0;exitX=0;exitY=0.25;exitDx=0;exitDy=0;entryX=0.019;entryY=0.75;entryDx=0;entryDy=0;entryPerimeter=0;" edge="1" parent="1" source="0Y1QtFHnmUwS77KSyr0P-60" target="0Y1QtFHnmUwS77KSyr0P-49">
          <mxGeometry relative="1" as="geometry">
            <mxPoint x="735" y="510.0769230769233" as="targetPoint" />
            <mxPoint x="609" y="511.5" as="sourcePoint" />
            <Array as="points">
              <mxPoint y="532" />
              <mxPoint y="710" />
              <mxPoint x="532" y="710" />
              <mxPoint x="532" y="539" />
            </Array>
          </mxGeometry>
        </mxCell>
        <mxCell id="0Y1QtFHnmUwS77KSyr0P-49" value="&lt;font style=&quot;font-size: 30px;&quot;&gt;CHI &lt;br&gt;System&lt;/font&gt;" style="rounded=1;whiteSpace=wrap;html=1;arcSize=18;fillColor=#B3B3B3;" vertex="1" parent="1">
          <mxGeometry x="853" y="417" width="200" height="163" as="geometry" />
        </mxCell>
        <mxCell id="0Y1QtFHnmUwS77KSyr0P-50" style="edgeStyle=orthogonalEdgeStyle;rounded=0;orthogonalLoop=1;jettySize=auto;html=1;fontSize=13;strokeWidth=1;shape=flexArrow;startArrow=block;startFill=0;exitX=1.003;exitY=0.774;exitDx=0;exitDy=0;exitPerimeter=0;entryX=-0.002;entryY=0.631;entryDx=0;entryDy=0;entryPerimeter=0;" edge="1" parent="1" source="0Y1QtFHnmUwS77KSyr0P-46" target="0Y1QtFHnmUwS77KSyr0P-49">
          <mxGeometry relative="1" as="geometry">
            <mxPoint x="951.8000000000002" y="520.2500000000002" as="targetPoint" />
            <mxPoint x="618.9999999999995" y="520.4300000000001" as="sourcePoint" />
            <Array as="points" />
          </mxGeometry>
        </mxCell>
        <mxCell id="0Y1QtFHnmUwS77KSyr0P-51" style="edgeStyle=orthogonalEdgeStyle;rounded=0;orthogonalLoop=1;jettySize=auto;html=1;fontSize=13;strokeWidth=1;shape=flexArrow;startArrow=block;startFill=0;exitX=0.994;exitY=0.664;exitDx=0;exitDy=0;exitPerimeter=0;" edge="1" parent="1" source="0Y1QtFHnmUwS77KSyr0P-46" target="0Y1QtFHnmUwS77KSyr0P-49">
          <mxGeometry relative="1" as="geometry">
            <mxPoint x="947.5999999999999" y="500.8530000000003" as="targetPoint" />
            <mxPoint x="619.4409999999998" y="501.1900000000003" as="sourcePoint" />
            <Array as="points" />
          </mxGeometry>
        </mxCell>
        <mxCell id="0Y1QtFHnmUwS77KSyr0P-52" style="edgeStyle=orthogonalEdgeStyle;rounded=0;orthogonalLoop=1;jettySize=auto;html=1;fontSize=13;strokeWidth=1;shape=flexArrow;startArrow=block;startFill=0;exitX=1.003;exitY=0.556;exitDx=0;exitDy=0;exitPerimeter=0;entryX=0.007;entryY=0.377;entryDx=0;entryDy=0;entryPerimeter=0;" edge="1" parent="1" source="0Y1QtFHnmUwS77KSyr0P-46" target="0Y1QtFHnmUwS77KSyr0P-49">
          <mxGeometry relative="1" as="geometry">
            <mxPoint x="948" y="479.4893617021278" as="targetPoint" />
            <mxPoint x="620.7639999999997" y="481.21000000000004" as="sourcePoint" />
            <Array as="points" />
          </mxGeometry>
        </mxCell>
        <mxCell id="0Y1QtFHnmUwS77KSyr0P-53" value="CHI-Channel&amp;nbsp;&lt;br&gt;Interface" style="text;html=1;align=center;verticalAlign=middle;resizable=0;points=[];autosize=1;strokeColor=none;fillColor=none;fontSize=30;" vertex="1" parent="1">
          <mxGeometry x="580" y="540" width="210" height="90" as="geometry" />
        </mxCell>
        <mxCell id="0Y1QtFHnmUwS77KSyr0P-54" style="edgeStyle=orthogonalEdgeStyle;rounded=0;orthogonalLoop=1;jettySize=auto;html=1;fontSize=18;" edge="1" parent="1" source="0Y1QtFHnmUwS77KSyr0P-55" target="0Y1QtFHnmUwS77KSyr0P-46">
          <mxGeometry relative="1" as="geometry">
            <Array as="points">
              <mxPoint x="350" y="486" />
              <mxPoint x="350" y="486" />
            </Array>
          </mxGeometry>
        </mxCell>
        <mxCell id="0Y1QtFHnmUwS77KSyr0P-55" value="&lt;font style=&quot;font-size: 18px;&quot;&gt;ReadyCHICon&lt;/font&gt;" style="text;html=1;align=center;verticalAlign=middle;resizable=0;points=[];autosize=1;strokeColor=none;fillColor=none;" vertex="1" parent="1">
          <mxGeometry x="184" y="466" width="140" height="40" as="geometry" />
        </mxCell>
        <mxCell id="0Y1QtFHnmUwS77KSyr0P-56" value="&lt;span style=&quot;&quot;&gt;WE,Addr&lt;/span&gt;" style="text;html=1;align=center;verticalAlign=middle;resizable=0;points=[];autosize=1;strokeColor=none;fillColor=none;fontSize=18;" vertex="1" parent="1">
          <mxGeometry x="-155" y="146" width="100" height="40" as="geometry" />
        </mxCell>
        <mxCell id="0Y1QtFHnmUwS77KSyr0P-57" value="&lt;b&gt;&lt;font style=&quot;font-size: 40px;&quot;&gt;DMA&lt;/font&gt;&lt;/b&gt;" style="text;html=1;align=center;verticalAlign=middle;resizable=0;points=[];autosize=1;strokeColor=none;fillColor=none;fontSize=18;" vertex="1" parent="1">
          <mxGeometry x="183" y="-120" width="110" height="60" as="geometry" />
        </mxCell>
        <mxCell id="0Y1QtFHnmUwS77KSyr0P-58" style="edgeStyle=orthogonalEdgeStyle;rounded=0;orthogonalLoop=1;jettySize=auto;html=1;strokeWidth=5;fontSize=18;" edge="1" parent="1" source="0Y1QtFHnmUwS77KSyr0P-21" target="0Y1QtFHnmUwS77KSyr0P-46">
          <mxGeometry relative="1" as="geometry">
            <Array as="points">
              <mxPoint x="310" y="440" />
              <mxPoint x="310" y="440" />
            </Array>
            <mxPoint x="-632.9999999999945" y="312" as="targetPoint" />
            <mxPoint x="205" y="450" as="sourcePoint" />
          </mxGeometry>
        </mxCell>
        <mxCell id="0Y1QtFHnmUwS77KSyr0P-59" style="edgeStyle=orthogonalEdgeStyle;rounded=0;orthogonalLoop=1;jettySize=auto;html=1;exitX=1;exitY=0.25;exitDx=0;exitDy=0;entryX=-0.015;entryY=0.847;entryDx=0;entryDy=0;entryPerimeter=0;fontSize=29;fillColor=#f8cecc;strokeColor=#000000;strokeWidth=3;" edge="1" parent="1" source="0Y1QtFHnmUwS77KSyr0P-60" target="0Y1QtFHnmUwS77KSyr0P-46">
          <mxGeometry relative="1" as="geometry" />
        </mxCell>
        <mxCell id="0Y1QtFHnmUwS77KSyr0P-60" value="BS" style="rounded=0;whiteSpace=wrap;html=1;fontSize=31;fillColor=#F0F0F0;strokeColor=#000000;" vertex="1" parent="1">
          <mxGeometry x="52" y="490" width="140" height="170" as="geometry" />
        </mxCell>
        <mxCell id="0Y1QtFHnmUwS77KSyr0P-61" value="&lt;font style=&quot;font-size: 23px;&quot;&gt;DataInbChannel&lt;/font&gt;" style="text;html=1;align=center;verticalAlign=middle;resizable=0;points=[];autosize=1;strokeColor=none;fillColor=none;fontSize=29;" vertex="1" parent="1">
          <mxGeometry x="257" y="667" width="190" height="50" as="geometry" />
        </mxCell>
        <mxCell id="0Y1QtFHnmUwS77KSyr0P-62" style="edgeStyle=orthogonalEdgeStyle;rounded=0;orthogonalLoop=1;jettySize=auto;html=1;fontSize=18;" edge="1" parent="1" source="0Y1QtFHnmUwS77KSyr0P-63" target="0Y1QtFHnmUwS77KSyr0P-7">
          <mxGeometry relative="1" as="geometry">
            <mxPoint x="345" y="207.00000000000045" as="targetPoint" />
            <Array as="points">
              <mxPoint x="335" y="203" />
              <mxPoint x="335" y="203" />
            </Array>
          </mxGeometry>
        </mxCell>
        <mxCell id="0Y1QtFHnmUwS77KSyr0P-63" value="&lt;font style=&quot;font-size: 18px;&quot;&gt;ReadySched&lt;/font&gt;" style="text;html=1;align=center;verticalAlign=middle;resizable=0;points=[];autosize=1;strokeColor=none;fillColor=none;" vertex="1" parent="1">
          <mxGeometry x="191" y="179" width="130" height="40" as="geometry" />
        </mxCell>
        <mxCell id="0Y1QtFHnmUwS77KSyr0P-64" value="Command" style="text;html=1;align=center;verticalAlign=middle;resizable=0;points=[];autosize=1;strokeColor=none;fillColor=none;fontSize=18;" vertex="1" parent="1">
          <mxGeometry x="214" y="640" width="110" height="40" as="geometry" />
        </mxCell>
        <mxCell id="0Y1QtFHnmUwS77KSyr0P-65" value="shiftedData&lt;br&gt;,FULL" style="text;html=1;align=center;verticalAlign=middle;resizable=0;points=[];autosize=1;strokeColor=none;fillColor=none;fontSize=23;" vertex="1" parent="1">
          <mxGeometry x="197" y="522" width="140" height="70" as="geometry" />
        </mxCell>
      </root>
    </mxGraphModel>
  </diagram>
</mxfile>
